%TF.GenerationSoftware,KiCad,Pcbnew,8.0.0*%
%TF.CreationDate,2024-03-26T18:15:13+09:00*%
%TF.ProjectId,led-board,6c65642d-626f-4617-9264-2e6b69636164,rev?*%
%TF.SameCoordinates,Original*%
%TF.FileFunction,Drillmap*%
%TF.FilePolarity,Positive*%
%FSLAX45Y45*%
G04 Gerber Fmt 4.5, Leading zero omitted, Abs format (unit mm)*
G04 Created by KiCad (PCBNEW 8.0.0) date 2024-03-26 18:15:13*
%MOMM*%
%LPD*%
G01*
G04 APERTURE LIST*
%ADD10C,0.050000*%
%ADD11C,0.200000*%
%ADD12C,0.100000*%
%ADD13C,0.270000*%
G04 APERTURE END LIST*
D10*
X20920000Y-9090000D02*
G75*
G02*
X20620000Y-9090000I-150000J0D01*
G01*
X20620000Y-9090000D02*
G75*
G02*
X20920000Y-9090000I150000J0D01*
G01*
X11070000Y-6390000D02*
X21070000Y-6390000D01*
X21070000Y-9390000D01*
X11070000Y-9390000D01*
X11070000Y-6390000D01*
X11520000Y-9090000D02*
G75*
G02*
X11220000Y-9090000I-150000J0D01*
G01*
X11220000Y-9090000D02*
G75*
G02*
X11520000Y-9090000I150000J0D01*
G01*
X11520000Y-6690000D02*
G75*
G02*
X11220000Y-6690000I-150000J0D01*
G01*
X11220000Y-6690000D02*
G75*
G02*
X11520000Y-6690000I150000J0D01*
G01*
X20920000Y-6690000D02*
G75*
G02*
X20620000Y-6690000I-150000J0D01*
G01*
X20620000Y-6690000D02*
G75*
G02*
X20920000Y-6690000I150000J0D01*
G01*
D11*
D12*
X12036500Y-7169000D02*
X12096500Y-7229000D01*
X12096500Y-7169000D02*
X12036500Y-7229000D01*
X12011500Y-7229000D02*
X12121500Y-7229000D01*
X12121500Y-7169000D02*
G75*
G02*
X12121500Y-7229000I0J-30000D01*
G01*
X12121500Y-7169000D02*
X12011500Y-7169000D01*
X12011500Y-7169000D02*
G75*
G03*
X12011500Y-7229000I0J-30000D01*
G01*
X12036500Y-8519000D02*
X12096500Y-8579000D01*
X12096500Y-8519000D02*
X12036500Y-8579000D01*
X12011500Y-8579000D02*
X12121500Y-8579000D01*
X12121500Y-8519000D02*
G75*
G02*
X12121500Y-8579000I0J-30000D01*
G01*
X12121500Y-8519000D02*
X12011500Y-8519000D01*
X12011500Y-8519000D02*
G75*
G03*
X12011500Y-8579000I0J-30000D01*
G01*
X20072600Y-7169000D02*
X20132600Y-7229000D01*
X20132600Y-7169000D02*
X20072600Y-7229000D01*
X20157600Y-7169000D02*
X20047600Y-7169000D01*
X20047600Y-7229000D02*
G75*
G02*
X20047600Y-7169000I0J30000D01*
G01*
X20047600Y-7229000D02*
X20157600Y-7229000D01*
X20157600Y-7229000D02*
G75*
G03*
X20157600Y-7169000I0J30000D01*
G01*
X20072600Y-8519000D02*
X20132600Y-8579000D01*
X20132600Y-8519000D02*
X20072600Y-8579000D01*
X20157600Y-8519000D02*
X20047600Y-8519000D01*
X20047600Y-8579000D02*
G75*
G02*
X20047600Y-8519000I0J30000D01*
G01*
X20047600Y-8579000D02*
X20157600Y-8579000D01*
X20157600Y-8579000D02*
G75*
G03*
X20157600Y-8519000I0J30000D01*
G01*
X12486000Y-6604000D02*
G75*
G02*
X12406000Y-6604000I-40000J0D01*
G01*
X12406000Y-6604000D02*
G75*
G02*
X12486000Y-6604000I40000J0D01*
G01*
X12486000Y-9144000D02*
G75*
G02*
X12406000Y-9144000I-40000J0D01*
G01*
X12406000Y-9144000D02*
G75*
G02*
X12486000Y-9144000I40000J0D01*
G01*
X13248000Y-6985000D02*
G75*
G02*
X13168000Y-6985000I-40000J0D01*
G01*
X13168000Y-6985000D02*
G75*
G02*
X13248000Y-6985000I40000J0D01*
G01*
X13248000Y-8763000D02*
G75*
G02*
X13168000Y-8763000I-40000J0D01*
G01*
X13168000Y-8763000D02*
G75*
G02*
X13248000Y-8763000I40000J0D01*
G01*
X13502000Y-6604000D02*
G75*
G02*
X13422000Y-6604000I-40000J0D01*
G01*
X13422000Y-6604000D02*
G75*
G02*
X13502000Y-6604000I40000J0D01*
G01*
X13502000Y-9144000D02*
G75*
G02*
X13422000Y-9144000I-40000J0D01*
G01*
X13422000Y-9144000D02*
G75*
G02*
X13502000Y-9144000I40000J0D01*
G01*
X14010000Y-6604000D02*
G75*
G02*
X13930000Y-6604000I-40000J0D01*
G01*
X13930000Y-6604000D02*
G75*
G02*
X14010000Y-6604000I40000J0D01*
G01*
X14010000Y-9144000D02*
G75*
G02*
X13930000Y-9144000I-40000J0D01*
G01*
X13930000Y-9144000D02*
G75*
G02*
X14010000Y-9144000I40000J0D01*
G01*
X14264000Y-6985000D02*
G75*
G02*
X14184000Y-6985000I-40000J0D01*
G01*
X14184000Y-6985000D02*
G75*
G02*
X14264000Y-6985000I40000J0D01*
G01*
X14264000Y-8763000D02*
G75*
G02*
X14184000Y-8763000I-40000J0D01*
G01*
X14184000Y-8763000D02*
G75*
G02*
X14264000Y-8763000I40000J0D01*
G01*
X14772000Y-6985000D02*
G75*
G02*
X14692000Y-6985000I-40000J0D01*
G01*
X14692000Y-6985000D02*
G75*
G02*
X14772000Y-6985000I40000J0D01*
G01*
X14772000Y-8763000D02*
G75*
G02*
X14692000Y-8763000I-40000J0D01*
G01*
X14692000Y-8763000D02*
G75*
G02*
X14772000Y-8763000I40000J0D01*
G01*
X15026000Y-6604000D02*
G75*
G02*
X14946000Y-6604000I-40000J0D01*
G01*
X14946000Y-6604000D02*
G75*
G02*
X15026000Y-6604000I40000J0D01*
G01*
X15026000Y-9144000D02*
G75*
G02*
X14946000Y-9144000I-40000J0D01*
G01*
X14946000Y-9144000D02*
G75*
G02*
X15026000Y-9144000I40000J0D01*
G01*
X15534000Y-6604000D02*
G75*
G02*
X15454000Y-6604000I-40000J0D01*
G01*
X15454000Y-6604000D02*
G75*
G02*
X15534000Y-6604000I40000J0D01*
G01*
X15534000Y-9144000D02*
G75*
G02*
X15454000Y-9144000I-40000J0D01*
G01*
X15454000Y-9144000D02*
G75*
G02*
X15534000Y-9144000I40000J0D01*
G01*
X15788000Y-6985000D02*
G75*
G02*
X15708000Y-6985000I-40000J0D01*
G01*
X15708000Y-6985000D02*
G75*
G02*
X15788000Y-6985000I40000J0D01*
G01*
X15788000Y-8763000D02*
G75*
G02*
X15708000Y-8763000I-40000J0D01*
G01*
X15708000Y-8763000D02*
G75*
G02*
X15788000Y-8763000I40000J0D01*
G01*
X16296000Y-6985000D02*
G75*
G02*
X16216000Y-6985000I-40000J0D01*
G01*
X16216000Y-6985000D02*
G75*
G02*
X16296000Y-6985000I40000J0D01*
G01*
X16296000Y-8763000D02*
G75*
G02*
X16216000Y-8763000I-40000J0D01*
G01*
X16216000Y-8763000D02*
G75*
G02*
X16296000Y-8763000I40000J0D01*
G01*
X16550000Y-6604000D02*
G75*
G02*
X16470000Y-6604000I-40000J0D01*
G01*
X16470000Y-6604000D02*
G75*
G02*
X16550000Y-6604000I40000J0D01*
G01*
X16550000Y-9144000D02*
G75*
G02*
X16470000Y-9144000I-40000J0D01*
G01*
X16470000Y-9144000D02*
G75*
G02*
X16550000Y-9144000I40000J0D01*
G01*
X17058000Y-6604000D02*
G75*
G02*
X16978000Y-6604000I-40000J0D01*
G01*
X16978000Y-6604000D02*
G75*
G02*
X17058000Y-6604000I40000J0D01*
G01*
X17058000Y-9144000D02*
G75*
G02*
X16978000Y-9144000I-40000J0D01*
G01*
X16978000Y-9144000D02*
G75*
G02*
X17058000Y-9144000I40000J0D01*
G01*
X17312000Y-6985000D02*
G75*
G02*
X17232000Y-6985000I-40000J0D01*
G01*
X17232000Y-6985000D02*
G75*
G02*
X17312000Y-6985000I40000J0D01*
G01*
X17312000Y-8763000D02*
G75*
G02*
X17232000Y-8763000I-40000J0D01*
G01*
X17232000Y-8763000D02*
G75*
G02*
X17312000Y-8763000I40000J0D01*
G01*
X17820000Y-6985000D02*
G75*
G02*
X17740000Y-6985000I-40000J0D01*
G01*
X17740000Y-6985000D02*
G75*
G02*
X17820000Y-6985000I40000J0D01*
G01*
X17820000Y-8763000D02*
G75*
G02*
X17740000Y-8763000I-40000J0D01*
G01*
X17740000Y-8763000D02*
G75*
G02*
X17820000Y-8763000I40000J0D01*
G01*
X18074000Y-6604000D02*
G75*
G02*
X17994000Y-6604000I-40000J0D01*
G01*
X17994000Y-6604000D02*
G75*
G02*
X18074000Y-6604000I40000J0D01*
G01*
X18074000Y-9144000D02*
G75*
G02*
X17994000Y-9144000I-40000J0D01*
G01*
X17994000Y-9144000D02*
G75*
G02*
X18074000Y-9144000I40000J0D01*
G01*
X18836000Y-6985000D02*
G75*
G02*
X18756000Y-6985000I-40000J0D01*
G01*
X18756000Y-6985000D02*
G75*
G02*
X18836000Y-6985000I40000J0D01*
G01*
X18836000Y-8763000D02*
G75*
G02*
X18756000Y-8763000I-40000J0D01*
G01*
X18756000Y-8763000D02*
G75*
G02*
X18836000Y-8763000I40000J0D01*
G01*
X13462000Y-7322000D02*
X13462000Y-7412000D01*
X13417000Y-7367000D02*
X13507000Y-7367000D01*
X13462000Y-7576000D02*
X13462000Y-7666000D01*
X13417000Y-7621000D02*
X13507000Y-7621000D01*
X13462000Y-8083000D02*
X13462000Y-8173000D01*
X13417000Y-8128000D02*
X13507000Y-8128000D01*
X13462000Y-8337000D02*
X13462000Y-8427000D01*
X13417000Y-8382000D02*
X13507000Y-8382000D01*
X14224000Y-7322000D02*
X14224000Y-7412000D01*
X14179000Y-7367000D02*
X14269000Y-7367000D01*
X14224000Y-7576000D02*
X14224000Y-7666000D01*
X14179000Y-7621000D02*
X14269000Y-7621000D01*
X14224000Y-8083000D02*
X14224000Y-8173000D01*
X14179000Y-8128000D02*
X14269000Y-8128000D01*
X14224000Y-8337000D02*
X14224000Y-8427000D01*
X14179000Y-8382000D02*
X14269000Y-8382000D01*
X14986000Y-7322000D02*
X14986000Y-7412000D01*
X14941000Y-7367000D02*
X15031000Y-7367000D01*
X14986000Y-7576000D02*
X14986000Y-7666000D01*
X14941000Y-7621000D02*
X15031000Y-7621000D01*
X14986000Y-8083000D02*
X14986000Y-8173000D01*
X14941000Y-8128000D02*
X15031000Y-8128000D01*
X14986000Y-8337000D02*
X14986000Y-8427000D01*
X14941000Y-8382000D02*
X15031000Y-8382000D01*
X15748000Y-7322000D02*
X15748000Y-7412000D01*
X15703000Y-7367000D02*
X15793000Y-7367000D01*
X15748000Y-7576000D02*
X15748000Y-7666000D01*
X15703000Y-7621000D02*
X15793000Y-7621000D01*
X15748000Y-8083000D02*
X15748000Y-8173000D01*
X15703000Y-8128000D02*
X15793000Y-8128000D01*
X15748000Y-8337000D02*
X15748000Y-8427000D01*
X15703000Y-8382000D02*
X15793000Y-8382000D01*
X16510000Y-7322000D02*
X16510000Y-7412000D01*
X16465000Y-7367000D02*
X16555000Y-7367000D01*
X16510000Y-7576000D02*
X16510000Y-7666000D01*
X16465000Y-7621000D02*
X16555000Y-7621000D01*
X16510000Y-8083000D02*
X16510000Y-8173000D01*
X16465000Y-8128000D02*
X16555000Y-8128000D01*
X16510000Y-8337000D02*
X16510000Y-8427000D01*
X16465000Y-8382000D02*
X16555000Y-8382000D01*
X17272000Y-7322000D02*
X17272000Y-7412000D01*
X17227000Y-7367000D02*
X17317000Y-7367000D01*
X17272000Y-7576000D02*
X17272000Y-7666000D01*
X17227000Y-7621000D02*
X17317000Y-7621000D01*
X17272000Y-8083000D02*
X17272000Y-8173000D01*
X17227000Y-8128000D02*
X17317000Y-8128000D01*
X17272000Y-8337000D02*
X17272000Y-8427000D01*
X17227000Y-8382000D02*
X17317000Y-8382000D01*
X18034000Y-7322000D02*
X18034000Y-7412000D01*
X17989000Y-7367000D02*
X18079000Y-7367000D01*
X18034000Y-7576000D02*
X18034000Y-7666000D01*
X17989000Y-7621000D02*
X18079000Y-7621000D01*
X18034000Y-8083000D02*
X18034000Y-8173000D01*
X17989000Y-8128000D02*
X18079000Y-8128000D01*
X18034000Y-8337000D02*
X18034000Y-8427000D01*
X17989000Y-8382000D02*
X18079000Y-8382000D01*
X18796000Y-7322000D02*
X18796000Y-7412000D01*
X18751000Y-7367000D02*
X18841000Y-7367000D01*
X18796000Y-7576000D02*
X18796000Y-7666000D01*
X18751000Y-7621000D02*
X18841000Y-7621000D01*
X18796000Y-8083000D02*
X18796000Y-8173000D01*
X18751000Y-8128000D02*
X18841000Y-8128000D01*
X18796000Y-8337000D02*
X18796000Y-8427000D01*
X18751000Y-8382000D02*
X18841000Y-8382000D01*
D13*
X12761960Y-7609460D02*
X12761960Y-7418540D01*
X12571040Y-7418540D01*
X12571040Y-7609460D01*
X12761960Y-7609460D01*
X12761960Y-8329460D02*
X12761960Y-8138540D01*
X12571040Y-8138540D01*
X12571040Y-8329460D01*
X12761960Y-8329460D01*
X19598060Y-7609460D02*
X19598060Y-7418540D01*
X19407140Y-7418540D01*
X19407140Y-7609460D01*
X19598060Y-7609460D01*
X19598060Y-8329460D02*
X19598060Y-8138540D01*
X19407140Y-8138540D01*
X19407140Y-8329460D01*
X19598060Y-8329460D01*
D11*
X11328277Y-9703984D02*
X11328277Y-9503984D01*
X11328277Y-9503984D02*
X11375896Y-9503984D01*
X11375896Y-9503984D02*
X11404467Y-9513508D01*
X11404467Y-9513508D02*
X11423515Y-9532555D01*
X11423515Y-9532555D02*
X11433039Y-9551603D01*
X11433039Y-9551603D02*
X11442562Y-9589698D01*
X11442562Y-9589698D02*
X11442562Y-9618270D01*
X11442562Y-9618270D02*
X11433039Y-9656365D01*
X11433039Y-9656365D02*
X11423515Y-9675412D01*
X11423515Y-9675412D02*
X11404467Y-9694460D01*
X11404467Y-9694460D02*
X11375896Y-9703984D01*
X11375896Y-9703984D02*
X11328277Y-9703984D01*
X11528277Y-9703984D02*
X11528277Y-9570650D01*
X11528277Y-9608746D02*
X11537801Y-9589698D01*
X11537801Y-9589698D02*
X11547324Y-9580174D01*
X11547324Y-9580174D02*
X11566372Y-9570650D01*
X11566372Y-9570650D02*
X11585420Y-9570650D01*
X11652086Y-9703984D02*
X11652086Y-9570650D01*
X11652086Y-9503984D02*
X11642562Y-9513508D01*
X11642562Y-9513508D02*
X11652086Y-9523031D01*
X11652086Y-9523031D02*
X11661610Y-9513508D01*
X11661610Y-9513508D02*
X11652086Y-9503984D01*
X11652086Y-9503984D02*
X11652086Y-9523031D01*
X11775896Y-9703984D02*
X11756848Y-9694460D01*
X11756848Y-9694460D02*
X11747324Y-9675412D01*
X11747324Y-9675412D02*
X11747324Y-9503984D01*
X11880658Y-9703984D02*
X11861610Y-9694460D01*
X11861610Y-9694460D02*
X11852086Y-9675412D01*
X11852086Y-9675412D02*
X11852086Y-9503984D01*
X12109229Y-9703984D02*
X12109229Y-9503984D01*
X12109229Y-9503984D02*
X12175896Y-9646841D01*
X12175896Y-9646841D02*
X12242562Y-9503984D01*
X12242562Y-9503984D02*
X12242562Y-9703984D01*
X12423515Y-9703984D02*
X12423515Y-9599222D01*
X12423515Y-9599222D02*
X12413991Y-9580174D01*
X12413991Y-9580174D02*
X12394943Y-9570650D01*
X12394943Y-9570650D02*
X12356848Y-9570650D01*
X12356848Y-9570650D02*
X12337801Y-9580174D01*
X12423515Y-9694460D02*
X12404467Y-9703984D01*
X12404467Y-9703984D02*
X12356848Y-9703984D01*
X12356848Y-9703984D02*
X12337801Y-9694460D01*
X12337801Y-9694460D02*
X12328277Y-9675412D01*
X12328277Y-9675412D02*
X12328277Y-9656365D01*
X12328277Y-9656365D02*
X12337801Y-9637317D01*
X12337801Y-9637317D02*
X12356848Y-9627793D01*
X12356848Y-9627793D02*
X12404467Y-9627793D01*
X12404467Y-9627793D02*
X12423515Y-9618270D01*
X12518753Y-9570650D02*
X12518753Y-9770650D01*
X12518753Y-9580174D02*
X12537801Y-9570650D01*
X12537801Y-9570650D02*
X12575896Y-9570650D01*
X12575896Y-9570650D02*
X12594943Y-9580174D01*
X12594943Y-9580174D02*
X12604467Y-9589698D01*
X12604467Y-9589698D02*
X12613991Y-9608746D01*
X12613991Y-9608746D02*
X12613991Y-9665889D01*
X12613991Y-9665889D02*
X12604467Y-9684936D01*
X12604467Y-9684936D02*
X12594943Y-9694460D01*
X12594943Y-9694460D02*
X12575896Y-9703984D01*
X12575896Y-9703984D02*
X12537801Y-9703984D01*
X12537801Y-9703984D02*
X12518753Y-9694460D01*
X12699705Y-9684936D02*
X12709229Y-9694460D01*
X12709229Y-9694460D02*
X12699705Y-9703984D01*
X12699705Y-9703984D02*
X12690182Y-9694460D01*
X12690182Y-9694460D02*
X12699705Y-9684936D01*
X12699705Y-9684936D02*
X12699705Y-9703984D01*
X12699705Y-9580174D02*
X12709229Y-9589698D01*
X12709229Y-9589698D02*
X12699705Y-9599222D01*
X12699705Y-9599222D02*
X12690182Y-9589698D01*
X12690182Y-9589698D02*
X12699705Y-9580174D01*
X12699705Y-9580174D02*
X12699705Y-9599222D01*
D12*
X11007500Y-10002500D02*
X11067500Y-10062500D01*
X11067500Y-10002500D02*
X11007500Y-10062500D01*
D11*
X11366372Y-9923984D02*
X11385420Y-9923984D01*
X11385420Y-9923984D02*
X11404467Y-9933508D01*
X11404467Y-9933508D02*
X11413991Y-9943031D01*
X11413991Y-9943031D02*
X11423515Y-9962079D01*
X11423515Y-9962079D02*
X11433039Y-10000174D01*
X11433039Y-10000174D02*
X11433039Y-10047793D01*
X11433039Y-10047793D02*
X11423515Y-10085889D01*
X11423515Y-10085889D02*
X11413991Y-10104936D01*
X11413991Y-10104936D02*
X11404467Y-10114460D01*
X11404467Y-10114460D02*
X11385420Y-10123984D01*
X11385420Y-10123984D02*
X11366372Y-10123984D01*
X11366372Y-10123984D02*
X11347324Y-10114460D01*
X11347324Y-10114460D02*
X11337801Y-10104936D01*
X11337801Y-10104936D02*
X11328277Y-10085889D01*
X11328277Y-10085889D02*
X11318753Y-10047793D01*
X11318753Y-10047793D02*
X11318753Y-10000174D01*
X11318753Y-10000174D02*
X11328277Y-9962079D01*
X11328277Y-9962079D02*
X11337801Y-9943031D01*
X11337801Y-9943031D02*
X11347324Y-9933508D01*
X11347324Y-9933508D02*
X11366372Y-9923984D01*
X11518753Y-10104936D02*
X11528277Y-10114460D01*
X11528277Y-10114460D02*
X11518753Y-10123984D01*
X11518753Y-10123984D02*
X11509229Y-10114460D01*
X11509229Y-10114460D02*
X11518753Y-10104936D01*
X11518753Y-10104936D02*
X11518753Y-10123984D01*
X11699705Y-9923984D02*
X11661610Y-9923984D01*
X11661610Y-9923984D02*
X11642562Y-9933508D01*
X11642562Y-9933508D02*
X11633039Y-9943031D01*
X11633039Y-9943031D02*
X11613991Y-9971603D01*
X11613991Y-9971603D02*
X11604467Y-10009698D01*
X11604467Y-10009698D02*
X11604467Y-10085889D01*
X11604467Y-10085889D02*
X11613991Y-10104936D01*
X11613991Y-10104936D02*
X11623515Y-10114460D01*
X11623515Y-10114460D02*
X11642562Y-10123984D01*
X11642562Y-10123984D02*
X11680658Y-10123984D01*
X11680658Y-10123984D02*
X11699705Y-10114460D01*
X11699705Y-10114460D02*
X11709229Y-10104936D01*
X11709229Y-10104936D02*
X11718753Y-10085889D01*
X11718753Y-10085889D02*
X11718753Y-10038270D01*
X11718753Y-10038270D02*
X11709229Y-10019222D01*
X11709229Y-10019222D02*
X11699705Y-10009698D01*
X11699705Y-10009698D02*
X11680658Y-10000174D01*
X11680658Y-10000174D02*
X11642562Y-10000174D01*
X11642562Y-10000174D02*
X11623515Y-10009698D01*
X11623515Y-10009698D02*
X11613991Y-10019222D01*
X11613991Y-10019222D02*
X11604467Y-10038270D01*
X11842562Y-9923984D02*
X11861610Y-9923984D01*
X11861610Y-9923984D02*
X11880658Y-9933508D01*
X11880658Y-9933508D02*
X11890182Y-9943031D01*
X11890182Y-9943031D02*
X11899705Y-9962079D01*
X11899705Y-9962079D02*
X11909229Y-10000174D01*
X11909229Y-10000174D02*
X11909229Y-10047793D01*
X11909229Y-10047793D02*
X11899705Y-10085889D01*
X11899705Y-10085889D02*
X11890182Y-10104936D01*
X11890182Y-10104936D02*
X11880658Y-10114460D01*
X11880658Y-10114460D02*
X11861610Y-10123984D01*
X11861610Y-10123984D02*
X11842562Y-10123984D01*
X11842562Y-10123984D02*
X11823515Y-10114460D01*
X11823515Y-10114460D02*
X11813991Y-10104936D01*
X11813991Y-10104936D02*
X11804467Y-10085889D01*
X11804467Y-10085889D02*
X11794943Y-10047793D01*
X11794943Y-10047793D02*
X11794943Y-10000174D01*
X11794943Y-10000174D02*
X11804467Y-9962079D01*
X11804467Y-9962079D02*
X11813991Y-9943031D01*
X11813991Y-9943031D02*
X11823515Y-9933508D01*
X11823515Y-9933508D02*
X11842562Y-9923984D01*
X12033039Y-9923984D02*
X12052086Y-9923984D01*
X12052086Y-9923984D02*
X12071134Y-9933508D01*
X12071134Y-9933508D02*
X12080658Y-9943031D01*
X12080658Y-9943031D02*
X12090182Y-9962079D01*
X12090182Y-9962079D02*
X12099705Y-10000174D01*
X12099705Y-10000174D02*
X12099705Y-10047793D01*
X12099705Y-10047793D02*
X12090182Y-10085889D01*
X12090182Y-10085889D02*
X12080658Y-10104936D01*
X12080658Y-10104936D02*
X12071134Y-10114460D01*
X12071134Y-10114460D02*
X12052086Y-10123984D01*
X12052086Y-10123984D02*
X12033039Y-10123984D01*
X12033039Y-10123984D02*
X12013991Y-10114460D01*
X12013991Y-10114460D02*
X12004467Y-10104936D01*
X12004467Y-10104936D02*
X11994943Y-10085889D01*
X11994943Y-10085889D02*
X11985420Y-10047793D01*
X11985420Y-10047793D02*
X11985420Y-10000174D01*
X11985420Y-10000174D02*
X11994943Y-9962079D01*
X11994943Y-9962079D02*
X12004467Y-9943031D01*
X12004467Y-9943031D02*
X12013991Y-9933508D01*
X12013991Y-9933508D02*
X12033039Y-9923984D01*
X12185420Y-10123984D02*
X12185420Y-9990650D01*
X12185420Y-10009698D02*
X12194943Y-10000174D01*
X12194943Y-10000174D02*
X12213991Y-9990650D01*
X12213991Y-9990650D02*
X12242563Y-9990650D01*
X12242563Y-9990650D02*
X12261610Y-10000174D01*
X12261610Y-10000174D02*
X12271134Y-10019222D01*
X12271134Y-10019222D02*
X12271134Y-10123984D01*
X12271134Y-10019222D02*
X12280658Y-10000174D01*
X12280658Y-10000174D02*
X12299705Y-9990650D01*
X12299705Y-9990650D02*
X12328277Y-9990650D01*
X12328277Y-9990650D02*
X12347324Y-10000174D01*
X12347324Y-10000174D02*
X12356848Y-10019222D01*
X12356848Y-10019222D02*
X12356848Y-10123984D01*
X12452086Y-10123984D02*
X12452086Y-9990650D01*
X12452086Y-10009698D02*
X12461610Y-10000174D01*
X12461610Y-10000174D02*
X12480658Y-9990650D01*
X12480658Y-9990650D02*
X12509229Y-9990650D01*
X12509229Y-9990650D02*
X12528277Y-10000174D01*
X12528277Y-10000174D02*
X12537801Y-10019222D01*
X12537801Y-10019222D02*
X12537801Y-10123984D01*
X12537801Y-10019222D02*
X12547324Y-10000174D01*
X12547324Y-10000174D02*
X12566372Y-9990650D01*
X12566372Y-9990650D02*
X12594943Y-9990650D01*
X12594943Y-9990650D02*
X12613991Y-10000174D01*
X12613991Y-10000174D02*
X12623515Y-10019222D01*
X12623515Y-10019222D02*
X12623515Y-10123984D01*
X13013991Y-9914460D02*
X12842563Y-10171603D01*
X13271134Y-9923984D02*
X13290182Y-9923984D01*
X13290182Y-9923984D02*
X13309229Y-9933508D01*
X13309229Y-9933508D02*
X13318753Y-9943031D01*
X13318753Y-9943031D02*
X13328277Y-9962079D01*
X13328277Y-9962079D02*
X13337801Y-10000174D01*
X13337801Y-10000174D02*
X13337801Y-10047793D01*
X13337801Y-10047793D02*
X13328277Y-10085889D01*
X13328277Y-10085889D02*
X13318753Y-10104936D01*
X13318753Y-10104936D02*
X13309229Y-10114460D01*
X13309229Y-10114460D02*
X13290182Y-10123984D01*
X13290182Y-10123984D02*
X13271134Y-10123984D01*
X13271134Y-10123984D02*
X13252086Y-10114460D01*
X13252086Y-10114460D02*
X13242563Y-10104936D01*
X13242563Y-10104936D02*
X13233039Y-10085889D01*
X13233039Y-10085889D02*
X13223515Y-10047793D01*
X13223515Y-10047793D02*
X13223515Y-10000174D01*
X13223515Y-10000174D02*
X13233039Y-9962079D01*
X13233039Y-9962079D02*
X13242563Y-9943031D01*
X13242563Y-9943031D02*
X13252086Y-9933508D01*
X13252086Y-9933508D02*
X13271134Y-9923984D01*
X13423515Y-10104936D02*
X13433039Y-10114460D01*
X13433039Y-10114460D02*
X13423515Y-10123984D01*
X13423515Y-10123984D02*
X13413991Y-10114460D01*
X13413991Y-10114460D02*
X13423515Y-10104936D01*
X13423515Y-10104936D02*
X13423515Y-10123984D01*
X13556848Y-9923984D02*
X13575896Y-9923984D01*
X13575896Y-9923984D02*
X13594944Y-9933508D01*
X13594944Y-9933508D02*
X13604467Y-9943031D01*
X13604467Y-9943031D02*
X13613991Y-9962079D01*
X13613991Y-9962079D02*
X13623515Y-10000174D01*
X13623515Y-10000174D02*
X13623515Y-10047793D01*
X13623515Y-10047793D02*
X13613991Y-10085889D01*
X13613991Y-10085889D02*
X13604467Y-10104936D01*
X13604467Y-10104936D02*
X13594944Y-10114460D01*
X13594944Y-10114460D02*
X13575896Y-10123984D01*
X13575896Y-10123984D02*
X13556848Y-10123984D01*
X13556848Y-10123984D02*
X13537801Y-10114460D01*
X13537801Y-10114460D02*
X13528277Y-10104936D01*
X13528277Y-10104936D02*
X13518753Y-10085889D01*
X13518753Y-10085889D02*
X13509229Y-10047793D01*
X13509229Y-10047793D02*
X13509229Y-10000174D01*
X13509229Y-10000174D02*
X13518753Y-9962079D01*
X13518753Y-9962079D02*
X13528277Y-9943031D01*
X13528277Y-9943031D02*
X13537801Y-9933508D01*
X13537801Y-9933508D02*
X13556848Y-9923984D01*
X13699706Y-9943031D02*
X13709229Y-9933508D01*
X13709229Y-9933508D02*
X13728277Y-9923984D01*
X13728277Y-9923984D02*
X13775896Y-9923984D01*
X13775896Y-9923984D02*
X13794944Y-9933508D01*
X13794944Y-9933508D02*
X13804467Y-9943031D01*
X13804467Y-9943031D02*
X13813991Y-9962079D01*
X13813991Y-9962079D02*
X13813991Y-9981127D01*
X13813991Y-9981127D02*
X13804467Y-10009698D01*
X13804467Y-10009698D02*
X13690182Y-10123984D01*
X13690182Y-10123984D02*
X13813991Y-10123984D01*
X13880658Y-9923984D02*
X14004467Y-9923984D01*
X14004467Y-9923984D02*
X13937801Y-10000174D01*
X13937801Y-10000174D02*
X13966372Y-10000174D01*
X13966372Y-10000174D02*
X13985420Y-10009698D01*
X13985420Y-10009698D02*
X13994944Y-10019222D01*
X13994944Y-10019222D02*
X14004467Y-10038270D01*
X14004467Y-10038270D02*
X14004467Y-10085889D01*
X14004467Y-10085889D02*
X13994944Y-10104936D01*
X13994944Y-10104936D02*
X13985420Y-10114460D01*
X13985420Y-10114460D02*
X13966372Y-10123984D01*
X13966372Y-10123984D02*
X13909229Y-10123984D01*
X13909229Y-10123984D02*
X13890182Y-10114460D01*
X13890182Y-10114460D02*
X13880658Y-10104936D01*
X14175896Y-9923984D02*
X14137801Y-9923984D01*
X14137801Y-9923984D02*
X14118753Y-9933508D01*
X14118753Y-9933508D02*
X14109229Y-9943031D01*
X14109229Y-9943031D02*
X14090182Y-9971603D01*
X14090182Y-9971603D02*
X14080658Y-10009698D01*
X14080658Y-10009698D02*
X14080658Y-10085889D01*
X14080658Y-10085889D02*
X14090182Y-10104936D01*
X14090182Y-10104936D02*
X14099706Y-10114460D01*
X14099706Y-10114460D02*
X14118753Y-10123984D01*
X14118753Y-10123984D02*
X14156848Y-10123984D01*
X14156848Y-10123984D02*
X14175896Y-10114460D01*
X14175896Y-10114460D02*
X14185420Y-10104936D01*
X14185420Y-10104936D02*
X14194944Y-10085889D01*
X14194944Y-10085889D02*
X14194944Y-10038270D01*
X14194944Y-10038270D02*
X14185420Y-10019222D01*
X14185420Y-10019222D02*
X14175896Y-10009698D01*
X14175896Y-10009698D02*
X14156848Y-10000174D01*
X14156848Y-10000174D02*
X14118753Y-10000174D01*
X14118753Y-10000174D02*
X14099706Y-10009698D01*
X14099706Y-10009698D02*
X14090182Y-10019222D01*
X14090182Y-10019222D02*
X14080658Y-10038270D01*
X14271134Y-9923984D02*
X14271134Y-9962079D01*
X14347325Y-9923984D02*
X14347325Y-9962079D01*
X14642563Y-10200174D02*
X14633039Y-10190650D01*
X14633039Y-10190650D02*
X14613991Y-10162079D01*
X14613991Y-10162079D02*
X14604468Y-10143031D01*
X14604468Y-10143031D02*
X14594944Y-10114460D01*
X14594944Y-10114460D02*
X14585420Y-10066841D01*
X14585420Y-10066841D02*
X14585420Y-10028746D01*
X14585420Y-10028746D02*
X14594944Y-9981127D01*
X14594944Y-9981127D02*
X14604468Y-9952555D01*
X14604468Y-9952555D02*
X14613991Y-9933508D01*
X14613991Y-9933508D02*
X14633039Y-9904936D01*
X14633039Y-9904936D02*
X14642563Y-9895412D01*
X14756848Y-9923984D02*
X14775896Y-9923984D01*
X14775896Y-9923984D02*
X14794944Y-9933508D01*
X14794944Y-9933508D02*
X14804468Y-9943031D01*
X14804468Y-9943031D02*
X14813991Y-9962079D01*
X14813991Y-9962079D02*
X14823515Y-10000174D01*
X14823515Y-10000174D02*
X14823515Y-10047793D01*
X14823515Y-10047793D02*
X14813991Y-10085889D01*
X14813991Y-10085889D02*
X14804468Y-10104936D01*
X14804468Y-10104936D02*
X14794944Y-10114460D01*
X14794944Y-10114460D02*
X14775896Y-10123984D01*
X14775896Y-10123984D02*
X14756848Y-10123984D01*
X14756848Y-10123984D02*
X14737801Y-10114460D01*
X14737801Y-10114460D02*
X14728277Y-10104936D01*
X14728277Y-10104936D02*
X14718753Y-10085889D01*
X14718753Y-10085889D02*
X14709229Y-10047793D01*
X14709229Y-10047793D02*
X14709229Y-10000174D01*
X14709229Y-10000174D02*
X14718753Y-9962079D01*
X14718753Y-9962079D02*
X14728277Y-9943031D01*
X14728277Y-9943031D02*
X14737801Y-9933508D01*
X14737801Y-9933508D02*
X14756848Y-9923984D01*
X15061610Y-10123984D02*
X15061610Y-9923984D01*
X15147325Y-10123984D02*
X15147325Y-10019222D01*
X15147325Y-10019222D02*
X15137801Y-10000174D01*
X15137801Y-10000174D02*
X15118753Y-9990650D01*
X15118753Y-9990650D02*
X15090182Y-9990650D01*
X15090182Y-9990650D02*
X15071134Y-10000174D01*
X15071134Y-10000174D02*
X15061610Y-10009698D01*
X15271134Y-10123984D02*
X15252087Y-10114460D01*
X15252087Y-10114460D02*
X15242563Y-10104936D01*
X15242563Y-10104936D02*
X15233039Y-10085889D01*
X15233039Y-10085889D02*
X15233039Y-10028746D01*
X15233039Y-10028746D02*
X15242563Y-10009698D01*
X15242563Y-10009698D02*
X15252087Y-10000174D01*
X15252087Y-10000174D02*
X15271134Y-9990650D01*
X15271134Y-9990650D02*
X15299706Y-9990650D01*
X15299706Y-9990650D02*
X15318753Y-10000174D01*
X15318753Y-10000174D02*
X15328277Y-10009698D01*
X15328277Y-10009698D02*
X15337801Y-10028746D01*
X15337801Y-10028746D02*
X15337801Y-10085889D01*
X15337801Y-10085889D02*
X15328277Y-10104936D01*
X15328277Y-10104936D02*
X15318753Y-10114460D01*
X15318753Y-10114460D02*
X15299706Y-10123984D01*
X15299706Y-10123984D02*
X15271134Y-10123984D01*
X15452087Y-10123984D02*
X15433039Y-10114460D01*
X15433039Y-10114460D02*
X15423515Y-10095412D01*
X15423515Y-10095412D02*
X15423515Y-9923984D01*
X15604468Y-10114460D02*
X15585420Y-10123984D01*
X15585420Y-10123984D02*
X15547325Y-10123984D01*
X15547325Y-10123984D02*
X15528277Y-10114460D01*
X15528277Y-10114460D02*
X15518753Y-10095412D01*
X15518753Y-10095412D02*
X15518753Y-10019222D01*
X15518753Y-10019222D02*
X15528277Y-10000174D01*
X15528277Y-10000174D02*
X15547325Y-9990650D01*
X15547325Y-9990650D02*
X15585420Y-9990650D01*
X15585420Y-9990650D02*
X15604468Y-10000174D01*
X15604468Y-10000174D02*
X15613991Y-10019222D01*
X15613991Y-10019222D02*
X15613991Y-10038270D01*
X15613991Y-10038270D02*
X15518753Y-10057317D01*
X15690182Y-10114460D02*
X15709230Y-10123984D01*
X15709230Y-10123984D02*
X15747325Y-10123984D01*
X15747325Y-10123984D02*
X15766372Y-10114460D01*
X15766372Y-10114460D02*
X15775896Y-10095412D01*
X15775896Y-10095412D02*
X15775896Y-10085889D01*
X15775896Y-10085889D02*
X15766372Y-10066841D01*
X15766372Y-10066841D02*
X15747325Y-10057317D01*
X15747325Y-10057317D02*
X15718753Y-10057317D01*
X15718753Y-10057317D02*
X15699706Y-10047793D01*
X15699706Y-10047793D02*
X15690182Y-10028746D01*
X15690182Y-10028746D02*
X15690182Y-10019222D01*
X15690182Y-10019222D02*
X15699706Y-10000174D01*
X15699706Y-10000174D02*
X15718753Y-9990650D01*
X15718753Y-9990650D02*
X15747325Y-9990650D01*
X15747325Y-9990650D02*
X15766372Y-10000174D01*
X16013992Y-10047793D02*
X16166373Y-10047793D01*
X16090182Y-10123984D02*
X16090182Y-9971603D01*
X16499706Y-9990650D02*
X16499706Y-10123984D01*
X16452087Y-9914460D02*
X16404468Y-10057317D01*
X16404468Y-10057317D02*
X16528277Y-10057317D01*
X16747325Y-10114460D02*
X16766373Y-10123984D01*
X16766373Y-10123984D02*
X16804468Y-10123984D01*
X16804468Y-10123984D02*
X16823516Y-10114460D01*
X16823516Y-10114460D02*
X16833039Y-10095412D01*
X16833039Y-10095412D02*
X16833039Y-10085889D01*
X16833039Y-10085889D02*
X16823516Y-10066841D01*
X16823516Y-10066841D02*
X16804468Y-10057317D01*
X16804468Y-10057317D02*
X16775896Y-10057317D01*
X16775896Y-10057317D02*
X16756849Y-10047793D01*
X16756849Y-10047793D02*
X16747325Y-10028746D01*
X16747325Y-10028746D02*
X16747325Y-10019222D01*
X16747325Y-10019222D02*
X16756849Y-10000174D01*
X16756849Y-10000174D02*
X16775896Y-9990650D01*
X16775896Y-9990650D02*
X16804468Y-9990650D01*
X16804468Y-9990650D02*
X16823516Y-10000174D01*
X16947325Y-10123984D02*
X16928277Y-10114460D01*
X16928277Y-10114460D02*
X16918754Y-10095412D01*
X16918754Y-10095412D02*
X16918754Y-9923984D01*
X17052087Y-10123984D02*
X17033039Y-10114460D01*
X17033039Y-10114460D02*
X17023516Y-10104936D01*
X17023516Y-10104936D02*
X17013992Y-10085889D01*
X17013992Y-10085889D02*
X17013992Y-10028746D01*
X17013992Y-10028746D02*
X17023516Y-10009698D01*
X17023516Y-10009698D02*
X17033039Y-10000174D01*
X17033039Y-10000174D02*
X17052087Y-9990650D01*
X17052087Y-9990650D02*
X17080658Y-9990650D01*
X17080658Y-9990650D02*
X17099706Y-10000174D01*
X17099706Y-10000174D02*
X17109230Y-10009698D01*
X17109230Y-10009698D02*
X17118754Y-10028746D01*
X17118754Y-10028746D02*
X17118754Y-10085889D01*
X17118754Y-10085889D02*
X17109230Y-10104936D01*
X17109230Y-10104936D02*
X17099706Y-10114460D01*
X17099706Y-10114460D02*
X17080658Y-10123984D01*
X17080658Y-10123984D02*
X17052087Y-10123984D01*
X17175897Y-9990650D02*
X17252087Y-9990650D01*
X17204468Y-9923984D02*
X17204468Y-10095412D01*
X17204468Y-10095412D02*
X17213992Y-10114460D01*
X17213992Y-10114460D02*
X17233039Y-10123984D01*
X17233039Y-10123984D02*
X17252087Y-10123984D01*
X17309230Y-10114460D02*
X17328277Y-10123984D01*
X17328277Y-10123984D02*
X17366373Y-10123984D01*
X17366373Y-10123984D02*
X17385420Y-10114460D01*
X17385420Y-10114460D02*
X17394944Y-10095412D01*
X17394944Y-10095412D02*
X17394944Y-10085889D01*
X17394944Y-10085889D02*
X17385420Y-10066841D01*
X17385420Y-10066841D02*
X17366373Y-10057317D01*
X17366373Y-10057317D02*
X17337801Y-10057317D01*
X17337801Y-10057317D02*
X17318754Y-10047793D01*
X17318754Y-10047793D02*
X17309230Y-10028746D01*
X17309230Y-10028746D02*
X17309230Y-10019222D01*
X17309230Y-10019222D02*
X17318754Y-10000174D01*
X17318754Y-10000174D02*
X17337801Y-9990650D01*
X17337801Y-9990650D02*
X17366373Y-9990650D01*
X17366373Y-9990650D02*
X17385420Y-10000174D01*
X17461611Y-10200174D02*
X17471135Y-10190650D01*
X17471135Y-10190650D02*
X17490182Y-10162079D01*
X17490182Y-10162079D02*
X17499706Y-10143031D01*
X17499706Y-10143031D02*
X17509230Y-10114460D01*
X17509230Y-10114460D02*
X17518754Y-10066841D01*
X17518754Y-10066841D02*
X17518754Y-10028746D01*
X17518754Y-10028746D02*
X17509230Y-9981127D01*
X17509230Y-9981127D02*
X17499706Y-9952555D01*
X17499706Y-9952555D02*
X17490182Y-9933508D01*
X17490182Y-9933508D02*
X17471135Y-9904936D01*
X17471135Y-9904936D02*
X17461611Y-9895412D01*
D12*
X11067500Y-10296500D02*
G75*
G02*
X10987500Y-10296500I-40000J0D01*
G01*
X10987500Y-10296500D02*
G75*
G02*
X11067500Y-10296500I40000J0D01*
G01*
D11*
X11366372Y-10187984D02*
X11385420Y-10187984D01*
X11385420Y-10187984D02*
X11404467Y-10197508D01*
X11404467Y-10197508D02*
X11413991Y-10207031D01*
X11413991Y-10207031D02*
X11423515Y-10226079D01*
X11423515Y-10226079D02*
X11433039Y-10264174D01*
X11433039Y-10264174D02*
X11433039Y-10311793D01*
X11433039Y-10311793D02*
X11423515Y-10349889D01*
X11423515Y-10349889D02*
X11413991Y-10368936D01*
X11413991Y-10368936D02*
X11404467Y-10378460D01*
X11404467Y-10378460D02*
X11385420Y-10387984D01*
X11385420Y-10387984D02*
X11366372Y-10387984D01*
X11366372Y-10387984D02*
X11347324Y-10378460D01*
X11347324Y-10378460D02*
X11337801Y-10368936D01*
X11337801Y-10368936D02*
X11328277Y-10349889D01*
X11328277Y-10349889D02*
X11318753Y-10311793D01*
X11318753Y-10311793D02*
X11318753Y-10264174D01*
X11318753Y-10264174D02*
X11328277Y-10226079D01*
X11328277Y-10226079D02*
X11337801Y-10207031D01*
X11337801Y-10207031D02*
X11347324Y-10197508D01*
X11347324Y-10197508D02*
X11366372Y-10187984D01*
X11518753Y-10368936D02*
X11528277Y-10378460D01*
X11528277Y-10378460D02*
X11518753Y-10387984D01*
X11518753Y-10387984D02*
X11509229Y-10378460D01*
X11509229Y-10378460D02*
X11518753Y-10368936D01*
X11518753Y-10368936D02*
X11518753Y-10387984D01*
X11642562Y-10273698D02*
X11623515Y-10264174D01*
X11623515Y-10264174D02*
X11613991Y-10254650D01*
X11613991Y-10254650D02*
X11604467Y-10235603D01*
X11604467Y-10235603D02*
X11604467Y-10226079D01*
X11604467Y-10226079D02*
X11613991Y-10207031D01*
X11613991Y-10207031D02*
X11623515Y-10197508D01*
X11623515Y-10197508D02*
X11642562Y-10187984D01*
X11642562Y-10187984D02*
X11680658Y-10187984D01*
X11680658Y-10187984D02*
X11699705Y-10197508D01*
X11699705Y-10197508D02*
X11709229Y-10207031D01*
X11709229Y-10207031D02*
X11718753Y-10226079D01*
X11718753Y-10226079D02*
X11718753Y-10235603D01*
X11718753Y-10235603D02*
X11709229Y-10254650D01*
X11709229Y-10254650D02*
X11699705Y-10264174D01*
X11699705Y-10264174D02*
X11680658Y-10273698D01*
X11680658Y-10273698D02*
X11642562Y-10273698D01*
X11642562Y-10273698D02*
X11623515Y-10283222D01*
X11623515Y-10283222D02*
X11613991Y-10292746D01*
X11613991Y-10292746D02*
X11604467Y-10311793D01*
X11604467Y-10311793D02*
X11604467Y-10349889D01*
X11604467Y-10349889D02*
X11613991Y-10368936D01*
X11613991Y-10368936D02*
X11623515Y-10378460D01*
X11623515Y-10378460D02*
X11642562Y-10387984D01*
X11642562Y-10387984D02*
X11680658Y-10387984D01*
X11680658Y-10387984D02*
X11699705Y-10378460D01*
X11699705Y-10378460D02*
X11709229Y-10368936D01*
X11709229Y-10368936D02*
X11718753Y-10349889D01*
X11718753Y-10349889D02*
X11718753Y-10311793D01*
X11718753Y-10311793D02*
X11709229Y-10292746D01*
X11709229Y-10292746D02*
X11699705Y-10283222D01*
X11699705Y-10283222D02*
X11680658Y-10273698D01*
X11842562Y-10187984D02*
X11861610Y-10187984D01*
X11861610Y-10187984D02*
X11880658Y-10197508D01*
X11880658Y-10197508D02*
X11890182Y-10207031D01*
X11890182Y-10207031D02*
X11899705Y-10226079D01*
X11899705Y-10226079D02*
X11909229Y-10264174D01*
X11909229Y-10264174D02*
X11909229Y-10311793D01*
X11909229Y-10311793D02*
X11899705Y-10349889D01*
X11899705Y-10349889D02*
X11890182Y-10368936D01*
X11890182Y-10368936D02*
X11880658Y-10378460D01*
X11880658Y-10378460D02*
X11861610Y-10387984D01*
X11861610Y-10387984D02*
X11842562Y-10387984D01*
X11842562Y-10387984D02*
X11823515Y-10378460D01*
X11823515Y-10378460D02*
X11813991Y-10368936D01*
X11813991Y-10368936D02*
X11804467Y-10349889D01*
X11804467Y-10349889D02*
X11794943Y-10311793D01*
X11794943Y-10311793D02*
X11794943Y-10264174D01*
X11794943Y-10264174D02*
X11804467Y-10226079D01*
X11804467Y-10226079D02*
X11813991Y-10207031D01*
X11813991Y-10207031D02*
X11823515Y-10197508D01*
X11823515Y-10197508D02*
X11842562Y-10187984D01*
X12033039Y-10187984D02*
X12052086Y-10187984D01*
X12052086Y-10187984D02*
X12071134Y-10197508D01*
X12071134Y-10197508D02*
X12080658Y-10207031D01*
X12080658Y-10207031D02*
X12090182Y-10226079D01*
X12090182Y-10226079D02*
X12099705Y-10264174D01*
X12099705Y-10264174D02*
X12099705Y-10311793D01*
X12099705Y-10311793D02*
X12090182Y-10349889D01*
X12090182Y-10349889D02*
X12080658Y-10368936D01*
X12080658Y-10368936D02*
X12071134Y-10378460D01*
X12071134Y-10378460D02*
X12052086Y-10387984D01*
X12052086Y-10387984D02*
X12033039Y-10387984D01*
X12033039Y-10387984D02*
X12013991Y-10378460D01*
X12013991Y-10378460D02*
X12004467Y-10368936D01*
X12004467Y-10368936D02*
X11994943Y-10349889D01*
X11994943Y-10349889D02*
X11985420Y-10311793D01*
X11985420Y-10311793D02*
X11985420Y-10264174D01*
X11985420Y-10264174D02*
X11994943Y-10226079D01*
X11994943Y-10226079D02*
X12004467Y-10207031D01*
X12004467Y-10207031D02*
X12013991Y-10197508D01*
X12013991Y-10197508D02*
X12033039Y-10187984D01*
X12185420Y-10387984D02*
X12185420Y-10254650D01*
X12185420Y-10273698D02*
X12194943Y-10264174D01*
X12194943Y-10264174D02*
X12213991Y-10254650D01*
X12213991Y-10254650D02*
X12242563Y-10254650D01*
X12242563Y-10254650D02*
X12261610Y-10264174D01*
X12261610Y-10264174D02*
X12271134Y-10283222D01*
X12271134Y-10283222D02*
X12271134Y-10387984D01*
X12271134Y-10283222D02*
X12280658Y-10264174D01*
X12280658Y-10264174D02*
X12299705Y-10254650D01*
X12299705Y-10254650D02*
X12328277Y-10254650D01*
X12328277Y-10254650D02*
X12347324Y-10264174D01*
X12347324Y-10264174D02*
X12356848Y-10283222D01*
X12356848Y-10283222D02*
X12356848Y-10387984D01*
X12452086Y-10387984D02*
X12452086Y-10254650D01*
X12452086Y-10273698D02*
X12461610Y-10264174D01*
X12461610Y-10264174D02*
X12480658Y-10254650D01*
X12480658Y-10254650D02*
X12509229Y-10254650D01*
X12509229Y-10254650D02*
X12528277Y-10264174D01*
X12528277Y-10264174D02*
X12537801Y-10283222D01*
X12537801Y-10283222D02*
X12537801Y-10387984D01*
X12537801Y-10283222D02*
X12547324Y-10264174D01*
X12547324Y-10264174D02*
X12566372Y-10254650D01*
X12566372Y-10254650D02*
X12594943Y-10254650D01*
X12594943Y-10254650D02*
X12613991Y-10264174D01*
X12613991Y-10264174D02*
X12623515Y-10283222D01*
X12623515Y-10283222D02*
X12623515Y-10387984D01*
X13013991Y-10178460D02*
X12842563Y-10435603D01*
X13271134Y-10187984D02*
X13290182Y-10187984D01*
X13290182Y-10187984D02*
X13309229Y-10197508D01*
X13309229Y-10197508D02*
X13318753Y-10207031D01*
X13318753Y-10207031D02*
X13328277Y-10226079D01*
X13328277Y-10226079D02*
X13337801Y-10264174D01*
X13337801Y-10264174D02*
X13337801Y-10311793D01*
X13337801Y-10311793D02*
X13328277Y-10349889D01*
X13328277Y-10349889D02*
X13318753Y-10368936D01*
X13318753Y-10368936D02*
X13309229Y-10378460D01*
X13309229Y-10378460D02*
X13290182Y-10387984D01*
X13290182Y-10387984D02*
X13271134Y-10387984D01*
X13271134Y-10387984D02*
X13252086Y-10378460D01*
X13252086Y-10378460D02*
X13242563Y-10368936D01*
X13242563Y-10368936D02*
X13233039Y-10349889D01*
X13233039Y-10349889D02*
X13223515Y-10311793D01*
X13223515Y-10311793D02*
X13223515Y-10264174D01*
X13223515Y-10264174D02*
X13233039Y-10226079D01*
X13233039Y-10226079D02*
X13242563Y-10207031D01*
X13242563Y-10207031D02*
X13252086Y-10197508D01*
X13252086Y-10197508D02*
X13271134Y-10187984D01*
X13423515Y-10368936D02*
X13433039Y-10378460D01*
X13433039Y-10378460D02*
X13423515Y-10387984D01*
X13423515Y-10387984D02*
X13413991Y-10378460D01*
X13413991Y-10378460D02*
X13423515Y-10368936D01*
X13423515Y-10368936D02*
X13423515Y-10387984D01*
X13556848Y-10187984D02*
X13575896Y-10187984D01*
X13575896Y-10187984D02*
X13594944Y-10197508D01*
X13594944Y-10197508D02*
X13604467Y-10207031D01*
X13604467Y-10207031D02*
X13613991Y-10226079D01*
X13613991Y-10226079D02*
X13623515Y-10264174D01*
X13623515Y-10264174D02*
X13623515Y-10311793D01*
X13623515Y-10311793D02*
X13613991Y-10349889D01*
X13613991Y-10349889D02*
X13604467Y-10368936D01*
X13604467Y-10368936D02*
X13594944Y-10378460D01*
X13594944Y-10378460D02*
X13575896Y-10387984D01*
X13575896Y-10387984D02*
X13556848Y-10387984D01*
X13556848Y-10387984D02*
X13537801Y-10378460D01*
X13537801Y-10378460D02*
X13528277Y-10368936D01*
X13528277Y-10368936D02*
X13518753Y-10349889D01*
X13518753Y-10349889D02*
X13509229Y-10311793D01*
X13509229Y-10311793D02*
X13509229Y-10264174D01*
X13509229Y-10264174D02*
X13518753Y-10226079D01*
X13518753Y-10226079D02*
X13528277Y-10207031D01*
X13528277Y-10207031D02*
X13537801Y-10197508D01*
X13537801Y-10197508D02*
X13556848Y-10187984D01*
X13690182Y-10187984D02*
X13813991Y-10187984D01*
X13813991Y-10187984D02*
X13747325Y-10264174D01*
X13747325Y-10264174D02*
X13775896Y-10264174D01*
X13775896Y-10264174D02*
X13794944Y-10273698D01*
X13794944Y-10273698D02*
X13804467Y-10283222D01*
X13804467Y-10283222D02*
X13813991Y-10302270D01*
X13813991Y-10302270D02*
X13813991Y-10349889D01*
X13813991Y-10349889D02*
X13804467Y-10368936D01*
X13804467Y-10368936D02*
X13794944Y-10378460D01*
X13794944Y-10378460D02*
X13775896Y-10387984D01*
X13775896Y-10387984D02*
X13718753Y-10387984D01*
X13718753Y-10387984D02*
X13699706Y-10378460D01*
X13699706Y-10378460D02*
X13690182Y-10368936D01*
X14004467Y-10387984D02*
X13890182Y-10387984D01*
X13947325Y-10387984D02*
X13947325Y-10187984D01*
X13947325Y-10187984D02*
X13928277Y-10216555D01*
X13928277Y-10216555D02*
X13909229Y-10235603D01*
X13909229Y-10235603D02*
X13890182Y-10245127D01*
X14185420Y-10187984D02*
X14090182Y-10187984D01*
X14090182Y-10187984D02*
X14080658Y-10283222D01*
X14080658Y-10283222D02*
X14090182Y-10273698D01*
X14090182Y-10273698D02*
X14109229Y-10264174D01*
X14109229Y-10264174D02*
X14156848Y-10264174D01*
X14156848Y-10264174D02*
X14175896Y-10273698D01*
X14175896Y-10273698D02*
X14185420Y-10283222D01*
X14185420Y-10283222D02*
X14194944Y-10302270D01*
X14194944Y-10302270D02*
X14194944Y-10349889D01*
X14194944Y-10349889D02*
X14185420Y-10368936D01*
X14185420Y-10368936D02*
X14175896Y-10378460D01*
X14175896Y-10378460D02*
X14156848Y-10387984D01*
X14156848Y-10387984D02*
X14109229Y-10387984D01*
X14109229Y-10387984D02*
X14090182Y-10378460D01*
X14090182Y-10378460D02*
X14080658Y-10368936D01*
X14271134Y-10187984D02*
X14271134Y-10226079D01*
X14347325Y-10187984D02*
X14347325Y-10226079D01*
X14642563Y-10464174D02*
X14633039Y-10454650D01*
X14633039Y-10454650D02*
X14613991Y-10426079D01*
X14613991Y-10426079D02*
X14604468Y-10407031D01*
X14604468Y-10407031D02*
X14594944Y-10378460D01*
X14594944Y-10378460D02*
X14585420Y-10330841D01*
X14585420Y-10330841D02*
X14585420Y-10292746D01*
X14585420Y-10292746D02*
X14594944Y-10245127D01*
X14594944Y-10245127D02*
X14604468Y-10216555D01*
X14604468Y-10216555D02*
X14613991Y-10197508D01*
X14613991Y-10197508D02*
X14633039Y-10168936D01*
X14633039Y-10168936D02*
X14642563Y-10159412D01*
X14699706Y-10187984D02*
X14823515Y-10187984D01*
X14823515Y-10187984D02*
X14756848Y-10264174D01*
X14756848Y-10264174D02*
X14785420Y-10264174D01*
X14785420Y-10264174D02*
X14804468Y-10273698D01*
X14804468Y-10273698D02*
X14813991Y-10283222D01*
X14813991Y-10283222D02*
X14823515Y-10302270D01*
X14823515Y-10302270D02*
X14823515Y-10349889D01*
X14823515Y-10349889D02*
X14813991Y-10368936D01*
X14813991Y-10368936D02*
X14804468Y-10378460D01*
X14804468Y-10378460D02*
X14785420Y-10387984D01*
X14785420Y-10387984D02*
X14728277Y-10387984D01*
X14728277Y-10387984D02*
X14709229Y-10378460D01*
X14709229Y-10378460D02*
X14699706Y-10368936D01*
X14899706Y-10207031D02*
X14909229Y-10197508D01*
X14909229Y-10197508D02*
X14928277Y-10187984D01*
X14928277Y-10187984D02*
X14975896Y-10187984D01*
X14975896Y-10187984D02*
X14994944Y-10197508D01*
X14994944Y-10197508D02*
X15004468Y-10207031D01*
X15004468Y-10207031D02*
X15013991Y-10226079D01*
X15013991Y-10226079D02*
X15013991Y-10245127D01*
X15013991Y-10245127D02*
X15004468Y-10273698D01*
X15004468Y-10273698D02*
X14890182Y-10387984D01*
X14890182Y-10387984D02*
X15013991Y-10387984D01*
X15252087Y-10387984D02*
X15252087Y-10187984D01*
X15337801Y-10387984D02*
X15337801Y-10283222D01*
X15337801Y-10283222D02*
X15328277Y-10264174D01*
X15328277Y-10264174D02*
X15309230Y-10254650D01*
X15309230Y-10254650D02*
X15280658Y-10254650D01*
X15280658Y-10254650D02*
X15261610Y-10264174D01*
X15261610Y-10264174D02*
X15252087Y-10273698D01*
X15461610Y-10387984D02*
X15442563Y-10378460D01*
X15442563Y-10378460D02*
X15433039Y-10368936D01*
X15433039Y-10368936D02*
X15423515Y-10349889D01*
X15423515Y-10349889D02*
X15423515Y-10292746D01*
X15423515Y-10292746D02*
X15433039Y-10273698D01*
X15433039Y-10273698D02*
X15442563Y-10264174D01*
X15442563Y-10264174D02*
X15461610Y-10254650D01*
X15461610Y-10254650D02*
X15490182Y-10254650D01*
X15490182Y-10254650D02*
X15509230Y-10264174D01*
X15509230Y-10264174D02*
X15518753Y-10273698D01*
X15518753Y-10273698D02*
X15528277Y-10292746D01*
X15528277Y-10292746D02*
X15528277Y-10349889D01*
X15528277Y-10349889D02*
X15518753Y-10368936D01*
X15518753Y-10368936D02*
X15509230Y-10378460D01*
X15509230Y-10378460D02*
X15490182Y-10387984D01*
X15490182Y-10387984D02*
X15461610Y-10387984D01*
X15642563Y-10387984D02*
X15623515Y-10378460D01*
X15623515Y-10378460D02*
X15613991Y-10359412D01*
X15613991Y-10359412D02*
X15613991Y-10187984D01*
X15794944Y-10378460D02*
X15775896Y-10387984D01*
X15775896Y-10387984D02*
X15737801Y-10387984D01*
X15737801Y-10387984D02*
X15718753Y-10378460D01*
X15718753Y-10378460D02*
X15709230Y-10359412D01*
X15709230Y-10359412D02*
X15709230Y-10283222D01*
X15709230Y-10283222D02*
X15718753Y-10264174D01*
X15718753Y-10264174D02*
X15737801Y-10254650D01*
X15737801Y-10254650D02*
X15775896Y-10254650D01*
X15775896Y-10254650D02*
X15794944Y-10264174D01*
X15794944Y-10264174D02*
X15804468Y-10283222D01*
X15804468Y-10283222D02*
X15804468Y-10302270D01*
X15804468Y-10302270D02*
X15709230Y-10321317D01*
X15880658Y-10378460D02*
X15899706Y-10387984D01*
X15899706Y-10387984D02*
X15937801Y-10387984D01*
X15937801Y-10387984D02*
X15956849Y-10378460D01*
X15956849Y-10378460D02*
X15966372Y-10359412D01*
X15966372Y-10359412D02*
X15966372Y-10349889D01*
X15966372Y-10349889D02*
X15956849Y-10330841D01*
X15956849Y-10330841D02*
X15937801Y-10321317D01*
X15937801Y-10321317D02*
X15909230Y-10321317D01*
X15909230Y-10321317D02*
X15890182Y-10311793D01*
X15890182Y-10311793D02*
X15880658Y-10292746D01*
X15880658Y-10292746D02*
X15880658Y-10283222D01*
X15880658Y-10283222D02*
X15890182Y-10264174D01*
X15890182Y-10264174D02*
X15909230Y-10254650D01*
X15909230Y-10254650D02*
X15937801Y-10254650D01*
X15937801Y-10254650D02*
X15956849Y-10264174D01*
X16033039Y-10464174D02*
X16042563Y-10454650D01*
X16042563Y-10454650D02*
X16061611Y-10426079D01*
X16061611Y-10426079D02*
X16071134Y-10407031D01*
X16071134Y-10407031D02*
X16080658Y-10378460D01*
X16080658Y-10378460D02*
X16090182Y-10330841D01*
X16090182Y-10330841D02*
X16090182Y-10292746D01*
X16090182Y-10292746D02*
X16080658Y-10245127D01*
X16080658Y-10245127D02*
X16071134Y-10216555D01*
X16071134Y-10216555D02*
X16061611Y-10197508D01*
X16061611Y-10197508D02*
X16042563Y-10168936D01*
X16042563Y-10168936D02*
X16033039Y-10159412D01*
D12*
X11022500Y-10515500D02*
X11022500Y-10605500D01*
X10977500Y-10560500D02*
X11067500Y-10560500D01*
D11*
X11366372Y-10451984D02*
X11385420Y-10451984D01*
X11385420Y-10451984D02*
X11404467Y-10461508D01*
X11404467Y-10461508D02*
X11413991Y-10471031D01*
X11413991Y-10471031D02*
X11423515Y-10490079D01*
X11423515Y-10490079D02*
X11433039Y-10528174D01*
X11433039Y-10528174D02*
X11433039Y-10575793D01*
X11433039Y-10575793D02*
X11423515Y-10613889D01*
X11423515Y-10613889D02*
X11413991Y-10632936D01*
X11413991Y-10632936D02*
X11404467Y-10642460D01*
X11404467Y-10642460D02*
X11385420Y-10651984D01*
X11385420Y-10651984D02*
X11366372Y-10651984D01*
X11366372Y-10651984D02*
X11347324Y-10642460D01*
X11347324Y-10642460D02*
X11337801Y-10632936D01*
X11337801Y-10632936D02*
X11328277Y-10613889D01*
X11328277Y-10613889D02*
X11318753Y-10575793D01*
X11318753Y-10575793D02*
X11318753Y-10528174D01*
X11318753Y-10528174D02*
X11328277Y-10490079D01*
X11328277Y-10490079D02*
X11337801Y-10471031D01*
X11337801Y-10471031D02*
X11347324Y-10461508D01*
X11347324Y-10461508D02*
X11366372Y-10451984D01*
X11518753Y-10632936D02*
X11528277Y-10642460D01*
X11528277Y-10642460D02*
X11518753Y-10651984D01*
X11518753Y-10651984D02*
X11509229Y-10642460D01*
X11509229Y-10642460D02*
X11518753Y-10632936D01*
X11518753Y-10632936D02*
X11518753Y-10651984D01*
X11623515Y-10651984D02*
X11661610Y-10651984D01*
X11661610Y-10651984D02*
X11680658Y-10642460D01*
X11680658Y-10642460D02*
X11690182Y-10632936D01*
X11690182Y-10632936D02*
X11709229Y-10604365D01*
X11709229Y-10604365D02*
X11718753Y-10566270D01*
X11718753Y-10566270D02*
X11718753Y-10490079D01*
X11718753Y-10490079D02*
X11709229Y-10471031D01*
X11709229Y-10471031D02*
X11699705Y-10461508D01*
X11699705Y-10461508D02*
X11680658Y-10451984D01*
X11680658Y-10451984D02*
X11642562Y-10451984D01*
X11642562Y-10451984D02*
X11623515Y-10461508D01*
X11623515Y-10461508D02*
X11613991Y-10471031D01*
X11613991Y-10471031D02*
X11604467Y-10490079D01*
X11604467Y-10490079D02*
X11604467Y-10537698D01*
X11604467Y-10537698D02*
X11613991Y-10556746D01*
X11613991Y-10556746D02*
X11623515Y-10566270D01*
X11623515Y-10566270D02*
X11642562Y-10575793D01*
X11642562Y-10575793D02*
X11680658Y-10575793D01*
X11680658Y-10575793D02*
X11699705Y-10566270D01*
X11699705Y-10566270D02*
X11709229Y-10556746D01*
X11709229Y-10556746D02*
X11718753Y-10537698D01*
X11842562Y-10451984D02*
X11861610Y-10451984D01*
X11861610Y-10451984D02*
X11880658Y-10461508D01*
X11880658Y-10461508D02*
X11890182Y-10471031D01*
X11890182Y-10471031D02*
X11899705Y-10490079D01*
X11899705Y-10490079D02*
X11909229Y-10528174D01*
X11909229Y-10528174D02*
X11909229Y-10575793D01*
X11909229Y-10575793D02*
X11899705Y-10613889D01*
X11899705Y-10613889D02*
X11890182Y-10632936D01*
X11890182Y-10632936D02*
X11880658Y-10642460D01*
X11880658Y-10642460D02*
X11861610Y-10651984D01*
X11861610Y-10651984D02*
X11842562Y-10651984D01*
X11842562Y-10651984D02*
X11823515Y-10642460D01*
X11823515Y-10642460D02*
X11813991Y-10632936D01*
X11813991Y-10632936D02*
X11804467Y-10613889D01*
X11804467Y-10613889D02*
X11794943Y-10575793D01*
X11794943Y-10575793D02*
X11794943Y-10528174D01*
X11794943Y-10528174D02*
X11804467Y-10490079D01*
X11804467Y-10490079D02*
X11813991Y-10471031D01*
X11813991Y-10471031D02*
X11823515Y-10461508D01*
X11823515Y-10461508D02*
X11842562Y-10451984D01*
X12033039Y-10451984D02*
X12052086Y-10451984D01*
X12052086Y-10451984D02*
X12071134Y-10461508D01*
X12071134Y-10461508D02*
X12080658Y-10471031D01*
X12080658Y-10471031D02*
X12090182Y-10490079D01*
X12090182Y-10490079D02*
X12099705Y-10528174D01*
X12099705Y-10528174D02*
X12099705Y-10575793D01*
X12099705Y-10575793D02*
X12090182Y-10613889D01*
X12090182Y-10613889D02*
X12080658Y-10632936D01*
X12080658Y-10632936D02*
X12071134Y-10642460D01*
X12071134Y-10642460D02*
X12052086Y-10651984D01*
X12052086Y-10651984D02*
X12033039Y-10651984D01*
X12033039Y-10651984D02*
X12013991Y-10642460D01*
X12013991Y-10642460D02*
X12004467Y-10632936D01*
X12004467Y-10632936D02*
X11994943Y-10613889D01*
X11994943Y-10613889D02*
X11985420Y-10575793D01*
X11985420Y-10575793D02*
X11985420Y-10528174D01*
X11985420Y-10528174D02*
X11994943Y-10490079D01*
X11994943Y-10490079D02*
X12004467Y-10471031D01*
X12004467Y-10471031D02*
X12013991Y-10461508D01*
X12013991Y-10461508D02*
X12033039Y-10451984D01*
X12185420Y-10651984D02*
X12185420Y-10518650D01*
X12185420Y-10537698D02*
X12194943Y-10528174D01*
X12194943Y-10528174D02*
X12213991Y-10518650D01*
X12213991Y-10518650D02*
X12242563Y-10518650D01*
X12242563Y-10518650D02*
X12261610Y-10528174D01*
X12261610Y-10528174D02*
X12271134Y-10547222D01*
X12271134Y-10547222D02*
X12271134Y-10651984D01*
X12271134Y-10547222D02*
X12280658Y-10528174D01*
X12280658Y-10528174D02*
X12299705Y-10518650D01*
X12299705Y-10518650D02*
X12328277Y-10518650D01*
X12328277Y-10518650D02*
X12347324Y-10528174D01*
X12347324Y-10528174D02*
X12356848Y-10547222D01*
X12356848Y-10547222D02*
X12356848Y-10651984D01*
X12452086Y-10651984D02*
X12452086Y-10518650D01*
X12452086Y-10537698D02*
X12461610Y-10528174D01*
X12461610Y-10528174D02*
X12480658Y-10518650D01*
X12480658Y-10518650D02*
X12509229Y-10518650D01*
X12509229Y-10518650D02*
X12528277Y-10528174D01*
X12528277Y-10528174D02*
X12537801Y-10547222D01*
X12537801Y-10547222D02*
X12537801Y-10651984D01*
X12537801Y-10547222D02*
X12547324Y-10528174D01*
X12547324Y-10528174D02*
X12566372Y-10518650D01*
X12566372Y-10518650D02*
X12594943Y-10518650D01*
X12594943Y-10518650D02*
X12613991Y-10528174D01*
X12613991Y-10528174D02*
X12623515Y-10547222D01*
X12623515Y-10547222D02*
X12623515Y-10651984D01*
X13013991Y-10442460D02*
X12842563Y-10699603D01*
X13271134Y-10451984D02*
X13290182Y-10451984D01*
X13290182Y-10451984D02*
X13309229Y-10461508D01*
X13309229Y-10461508D02*
X13318753Y-10471031D01*
X13318753Y-10471031D02*
X13328277Y-10490079D01*
X13328277Y-10490079D02*
X13337801Y-10528174D01*
X13337801Y-10528174D02*
X13337801Y-10575793D01*
X13337801Y-10575793D02*
X13328277Y-10613889D01*
X13328277Y-10613889D02*
X13318753Y-10632936D01*
X13318753Y-10632936D02*
X13309229Y-10642460D01*
X13309229Y-10642460D02*
X13290182Y-10651984D01*
X13290182Y-10651984D02*
X13271134Y-10651984D01*
X13271134Y-10651984D02*
X13252086Y-10642460D01*
X13252086Y-10642460D02*
X13242563Y-10632936D01*
X13242563Y-10632936D02*
X13233039Y-10613889D01*
X13233039Y-10613889D02*
X13223515Y-10575793D01*
X13223515Y-10575793D02*
X13223515Y-10528174D01*
X13223515Y-10528174D02*
X13233039Y-10490079D01*
X13233039Y-10490079D02*
X13242563Y-10471031D01*
X13242563Y-10471031D02*
X13252086Y-10461508D01*
X13252086Y-10461508D02*
X13271134Y-10451984D01*
X13423515Y-10632936D02*
X13433039Y-10642460D01*
X13433039Y-10642460D02*
X13423515Y-10651984D01*
X13423515Y-10651984D02*
X13413991Y-10642460D01*
X13413991Y-10642460D02*
X13423515Y-10632936D01*
X13423515Y-10632936D02*
X13423515Y-10651984D01*
X13556848Y-10451984D02*
X13575896Y-10451984D01*
X13575896Y-10451984D02*
X13594944Y-10461508D01*
X13594944Y-10461508D02*
X13604467Y-10471031D01*
X13604467Y-10471031D02*
X13613991Y-10490079D01*
X13613991Y-10490079D02*
X13623515Y-10528174D01*
X13623515Y-10528174D02*
X13623515Y-10575793D01*
X13623515Y-10575793D02*
X13613991Y-10613889D01*
X13613991Y-10613889D02*
X13604467Y-10632936D01*
X13604467Y-10632936D02*
X13594944Y-10642460D01*
X13594944Y-10642460D02*
X13575896Y-10651984D01*
X13575896Y-10651984D02*
X13556848Y-10651984D01*
X13556848Y-10651984D02*
X13537801Y-10642460D01*
X13537801Y-10642460D02*
X13528277Y-10632936D01*
X13528277Y-10632936D02*
X13518753Y-10613889D01*
X13518753Y-10613889D02*
X13509229Y-10575793D01*
X13509229Y-10575793D02*
X13509229Y-10528174D01*
X13509229Y-10528174D02*
X13518753Y-10490079D01*
X13518753Y-10490079D02*
X13528277Y-10471031D01*
X13528277Y-10471031D02*
X13537801Y-10461508D01*
X13537801Y-10461508D02*
X13556848Y-10451984D01*
X13690182Y-10451984D02*
X13813991Y-10451984D01*
X13813991Y-10451984D02*
X13747325Y-10528174D01*
X13747325Y-10528174D02*
X13775896Y-10528174D01*
X13775896Y-10528174D02*
X13794944Y-10537698D01*
X13794944Y-10537698D02*
X13804467Y-10547222D01*
X13804467Y-10547222D02*
X13813991Y-10566270D01*
X13813991Y-10566270D02*
X13813991Y-10613889D01*
X13813991Y-10613889D02*
X13804467Y-10632936D01*
X13804467Y-10632936D02*
X13794944Y-10642460D01*
X13794944Y-10642460D02*
X13775896Y-10651984D01*
X13775896Y-10651984D02*
X13718753Y-10651984D01*
X13718753Y-10651984D02*
X13699706Y-10642460D01*
X13699706Y-10642460D02*
X13690182Y-10632936D01*
X13994944Y-10451984D02*
X13899706Y-10451984D01*
X13899706Y-10451984D02*
X13890182Y-10547222D01*
X13890182Y-10547222D02*
X13899706Y-10537698D01*
X13899706Y-10537698D02*
X13918753Y-10528174D01*
X13918753Y-10528174D02*
X13966372Y-10528174D01*
X13966372Y-10528174D02*
X13985420Y-10537698D01*
X13985420Y-10537698D02*
X13994944Y-10547222D01*
X13994944Y-10547222D02*
X14004467Y-10566270D01*
X14004467Y-10566270D02*
X14004467Y-10613889D01*
X14004467Y-10613889D02*
X13994944Y-10632936D01*
X13994944Y-10632936D02*
X13985420Y-10642460D01*
X13985420Y-10642460D02*
X13966372Y-10651984D01*
X13966372Y-10651984D02*
X13918753Y-10651984D01*
X13918753Y-10651984D02*
X13899706Y-10642460D01*
X13899706Y-10642460D02*
X13890182Y-10632936D01*
X14175896Y-10518650D02*
X14175896Y-10651984D01*
X14128277Y-10442460D02*
X14080658Y-10585317D01*
X14080658Y-10585317D02*
X14204467Y-10585317D01*
X14271134Y-10451984D02*
X14271134Y-10490079D01*
X14347325Y-10451984D02*
X14347325Y-10490079D01*
X14642563Y-10728174D02*
X14633039Y-10718650D01*
X14633039Y-10718650D02*
X14613991Y-10690079D01*
X14613991Y-10690079D02*
X14604468Y-10671031D01*
X14604468Y-10671031D02*
X14594944Y-10642460D01*
X14594944Y-10642460D02*
X14585420Y-10594841D01*
X14585420Y-10594841D02*
X14585420Y-10556746D01*
X14585420Y-10556746D02*
X14594944Y-10509127D01*
X14594944Y-10509127D02*
X14604468Y-10480555D01*
X14604468Y-10480555D02*
X14613991Y-10461508D01*
X14613991Y-10461508D02*
X14633039Y-10432936D01*
X14633039Y-10432936D02*
X14642563Y-10423412D01*
X14699706Y-10451984D02*
X14823515Y-10451984D01*
X14823515Y-10451984D02*
X14756848Y-10528174D01*
X14756848Y-10528174D02*
X14785420Y-10528174D01*
X14785420Y-10528174D02*
X14804468Y-10537698D01*
X14804468Y-10537698D02*
X14813991Y-10547222D01*
X14813991Y-10547222D02*
X14823515Y-10566270D01*
X14823515Y-10566270D02*
X14823515Y-10613889D01*
X14823515Y-10613889D02*
X14813991Y-10632936D01*
X14813991Y-10632936D02*
X14804468Y-10642460D01*
X14804468Y-10642460D02*
X14785420Y-10651984D01*
X14785420Y-10651984D02*
X14728277Y-10651984D01*
X14728277Y-10651984D02*
X14709229Y-10642460D01*
X14709229Y-10642460D02*
X14699706Y-10632936D01*
X14899706Y-10471031D02*
X14909229Y-10461508D01*
X14909229Y-10461508D02*
X14928277Y-10451984D01*
X14928277Y-10451984D02*
X14975896Y-10451984D01*
X14975896Y-10451984D02*
X14994944Y-10461508D01*
X14994944Y-10461508D02*
X15004468Y-10471031D01*
X15004468Y-10471031D02*
X15013991Y-10490079D01*
X15013991Y-10490079D02*
X15013991Y-10509127D01*
X15013991Y-10509127D02*
X15004468Y-10537698D01*
X15004468Y-10537698D02*
X14890182Y-10651984D01*
X14890182Y-10651984D02*
X15013991Y-10651984D01*
X15252087Y-10651984D02*
X15252087Y-10451984D01*
X15337801Y-10651984D02*
X15337801Y-10547222D01*
X15337801Y-10547222D02*
X15328277Y-10528174D01*
X15328277Y-10528174D02*
X15309230Y-10518650D01*
X15309230Y-10518650D02*
X15280658Y-10518650D01*
X15280658Y-10518650D02*
X15261610Y-10528174D01*
X15261610Y-10528174D02*
X15252087Y-10537698D01*
X15461610Y-10651984D02*
X15442563Y-10642460D01*
X15442563Y-10642460D02*
X15433039Y-10632936D01*
X15433039Y-10632936D02*
X15423515Y-10613889D01*
X15423515Y-10613889D02*
X15423515Y-10556746D01*
X15423515Y-10556746D02*
X15433039Y-10537698D01*
X15433039Y-10537698D02*
X15442563Y-10528174D01*
X15442563Y-10528174D02*
X15461610Y-10518650D01*
X15461610Y-10518650D02*
X15490182Y-10518650D01*
X15490182Y-10518650D02*
X15509230Y-10528174D01*
X15509230Y-10528174D02*
X15518753Y-10537698D01*
X15518753Y-10537698D02*
X15528277Y-10556746D01*
X15528277Y-10556746D02*
X15528277Y-10613889D01*
X15528277Y-10613889D02*
X15518753Y-10632936D01*
X15518753Y-10632936D02*
X15509230Y-10642460D01*
X15509230Y-10642460D02*
X15490182Y-10651984D01*
X15490182Y-10651984D02*
X15461610Y-10651984D01*
X15642563Y-10651984D02*
X15623515Y-10642460D01*
X15623515Y-10642460D02*
X15613991Y-10623412D01*
X15613991Y-10623412D02*
X15613991Y-10451984D01*
X15794944Y-10642460D02*
X15775896Y-10651984D01*
X15775896Y-10651984D02*
X15737801Y-10651984D01*
X15737801Y-10651984D02*
X15718753Y-10642460D01*
X15718753Y-10642460D02*
X15709230Y-10623412D01*
X15709230Y-10623412D02*
X15709230Y-10547222D01*
X15709230Y-10547222D02*
X15718753Y-10528174D01*
X15718753Y-10528174D02*
X15737801Y-10518650D01*
X15737801Y-10518650D02*
X15775896Y-10518650D01*
X15775896Y-10518650D02*
X15794944Y-10528174D01*
X15794944Y-10528174D02*
X15804468Y-10547222D01*
X15804468Y-10547222D02*
X15804468Y-10566270D01*
X15804468Y-10566270D02*
X15709230Y-10585317D01*
X15880658Y-10642460D02*
X15899706Y-10651984D01*
X15899706Y-10651984D02*
X15937801Y-10651984D01*
X15937801Y-10651984D02*
X15956849Y-10642460D01*
X15956849Y-10642460D02*
X15966372Y-10623412D01*
X15966372Y-10623412D02*
X15966372Y-10613889D01*
X15966372Y-10613889D02*
X15956849Y-10594841D01*
X15956849Y-10594841D02*
X15937801Y-10585317D01*
X15937801Y-10585317D02*
X15909230Y-10585317D01*
X15909230Y-10585317D02*
X15890182Y-10575793D01*
X15890182Y-10575793D02*
X15880658Y-10556746D01*
X15880658Y-10556746D02*
X15880658Y-10547222D01*
X15880658Y-10547222D02*
X15890182Y-10528174D01*
X15890182Y-10528174D02*
X15909230Y-10518650D01*
X15909230Y-10518650D02*
X15937801Y-10518650D01*
X15937801Y-10518650D02*
X15956849Y-10528174D01*
X16033039Y-10728174D02*
X16042563Y-10718650D01*
X16042563Y-10718650D02*
X16061611Y-10690079D01*
X16061611Y-10690079D02*
X16071134Y-10671031D01*
X16071134Y-10671031D02*
X16080658Y-10642460D01*
X16080658Y-10642460D02*
X16090182Y-10594841D01*
X16090182Y-10594841D02*
X16090182Y-10556746D01*
X16090182Y-10556746D02*
X16080658Y-10509127D01*
X16080658Y-10509127D02*
X16071134Y-10480555D01*
X16071134Y-10480555D02*
X16061611Y-10461508D01*
X16061611Y-10461508D02*
X16042563Y-10432936D01*
X16042563Y-10432936D02*
X16033039Y-10423412D01*
X11038211Y-10895211D02*
X11038211Y-10753789D01*
X10896789Y-10753789D01*
X10896789Y-10895211D01*
X11038211Y-10895211D01*
X11318753Y-10735031D02*
X11328277Y-10725508D01*
X11328277Y-10725508D02*
X11347324Y-10715984D01*
X11347324Y-10715984D02*
X11394943Y-10715984D01*
X11394943Y-10715984D02*
X11413991Y-10725508D01*
X11413991Y-10725508D02*
X11423515Y-10735031D01*
X11423515Y-10735031D02*
X11433039Y-10754079D01*
X11433039Y-10754079D02*
X11433039Y-10773127D01*
X11433039Y-10773127D02*
X11423515Y-10801698D01*
X11423515Y-10801698D02*
X11309229Y-10915984D01*
X11309229Y-10915984D02*
X11433039Y-10915984D01*
X11518753Y-10896936D02*
X11528277Y-10906460D01*
X11528277Y-10906460D02*
X11518753Y-10915984D01*
X11518753Y-10915984D02*
X11509229Y-10906460D01*
X11509229Y-10906460D02*
X11518753Y-10896936D01*
X11518753Y-10896936D02*
X11518753Y-10915984D01*
X11594943Y-10715984D02*
X11728277Y-10715984D01*
X11728277Y-10715984D02*
X11642562Y-10915984D01*
X11842562Y-10715984D02*
X11861610Y-10715984D01*
X11861610Y-10715984D02*
X11880658Y-10725508D01*
X11880658Y-10725508D02*
X11890182Y-10735031D01*
X11890182Y-10735031D02*
X11899705Y-10754079D01*
X11899705Y-10754079D02*
X11909229Y-10792174D01*
X11909229Y-10792174D02*
X11909229Y-10839793D01*
X11909229Y-10839793D02*
X11899705Y-10877889D01*
X11899705Y-10877889D02*
X11890182Y-10896936D01*
X11890182Y-10896936D02*
X11880658Y-10906460D01*
X11880658Y-10906460D02*
X11861610Y-10915984D01*
X11861610Y-10915984D02*
X11842562Y-10915984D01*
X11842562Y-10915984D02*
X11823515Y-10906460D01*
X11823515Y-10906460D02*
X11813991Y-10896936D01*
X11813991Y-10896936D02*
X11804467Y-10877889D01*
X11804467Y-10877889D02*
X11794943Y-10839793D01*
X11794943Y-10839793D02*
X11794943Y-10792174D01*
X11794943Y-10792174D02*
X11804467Y-10754079D01*
X11804467Y-10754079D02*
X11813991Y-10735031D01*
X11813991Y-10735031D02*
X11823515Y-10725508D01*
X11823515Y-10725508D02*
X11842562Y-10715984D01*
X12033039Y-10715984D02*
X12052086Y-10715984D01*
X12052086Y-10715984D02*
X12071134Y-10725508D01*
X12071134Y-10725508D02*
X12080658Y-10735031D01*
X12080658Y-10735031D02*
X12090182Y-10754079D01*
X12090182Y-10754079D02*
X12099705Y-10792174D01*
X12099705Y-10792174D02*
X12099705Y-10839793D01*
X12099705Y-10839793D02*
X12090182Y-10877889D01*
X12090182Y-10877889D02*
X12080658Y-10896936D01*
X12080658Y-10896936D02*
X12071134Y-10906460D01*
X12071134Y-10906460D02*
X12052086Y-10915984D01*
X12052086Y-10915984D02*
X12033039Y-10915984D01*
X12033039Y-10915984D02*
X12013991Y-10906460D01*
X12013991Y-10906460D02*
X12004467Y-10896936D01*
X12004467Y-10896936D02*
X11994943Y-10877889D01*
X11994943Y-10877889D02*
X11985420Y-10839793D01*
X11985420Y-10839793D02*
X11985420Y-10792174D01*
X11985420Y-10792174D02*
X11994943Y-10754079D01*
X11994943Y-10754079D02*
X12004467Y-10735031D01*
X12004467Y-10735031D02*
X12013991Y-10725508D01*
X12013991Y-10725508D02*
X12033039Y-10715984D01*
X12185420Y-10915984D02*
X12185420Y-10782650D01*
X12185420Y-10801698D02*
X12194943Y-10792174D01*
X12194943Y-10792174D02*
X12213991Y-10782650D01*
X12213991Y-10782650D02*
X12242563Y-10782650D01*
X12242563Y-10782650D02*
X12261610Y-10792174D01*
X12261610Y-10792174D02*
X12271134Y-10811222D01*
X12271134Y-10811222D02*
X12271134Y-10915984D01*
X12271134Y-10811222D02*
X12280658Y-10792174D01*
X12280658Y-10792174D02*
X12299705Y-10782650D01*
X12299705Y-10782650D02*
X12328277Y-10782650D01*
X12328277Y-10782650D02*
X12347324Y-10792174D01*
X12347324Y-10792174D02*
X12356848Y-10811222D01*
X12356848Y-10811222D02*
X12356848Y-10915984D01*
X12452086Y-10915984D02*
X12452086Y-10782650D01*
X12452086Y-10801698D02*
X12461610Y-10792174D01*
X12461610Y-10792174D02*
X12480658Y-10782650D01*
X12480658Y-10782650D02*
X12509229Y-10782650D01*
X12509229Y-10782650D02*
X12528277Y-10792174D01*
X12528277Y-10792174D02*
X12537801Y-10811222D01*
X12537801Y-10811222D02*
X12537801Y-10915984D01*
X12537801Y-10811222D02*
X12547324Y-10792174D01*
X12547324Y-10792174D02*
X12566372Y-10782650D01*
X12566372Y-10782650D02*
X12594943Y-10782650D01*
X12594943Y-10782650D02*
X12613991Y-10792174D01*
X12613991Y-10792174D02*
X12623515Y-10811222D01*
X12623515Y-10811222D02*
X12623515Y-10915984D01*
X13013991Y-10706460D02*
X12842563Y-10963603D01*
X13271134Y-10715984D02*
X13290182Y-10715984D01*
X13290182Y-10715984D02*
X13309229Y-10725508D01*
X13309229Y-10725508D02*
X13318753Y-10735031D01*
X13318753Y-10735031D02*
X13328277Y-10754079D01*
X13328277Y-10754079D02*
X13337801Y-10792174D01*
X13337801Y-10792174D02*
X13337801Y-10839793D01*
X13337801Y-10839793D02*
X13328277Y-10877889D01*
X13328277Y-10877889D02*
X13318753Y-10896936D01*
X13318753Y-10896936D02*
X13309229Y-10906460D01*
X13309229Y-10906460D02*
X13290182Y-10915984D01*
X13290182Y-10915984D02*
X13271134Y-10915984D01*
X13271134Y-10915984D02*
X13252086Y-10906460D01*
X13252086Y-10906460D02*
X13242563Y-10896936D01*
X13242563Y-10896936D02*
X13233039Y-10877889D01*
X13233039Y-10877889D02*
X13223515Y-10839793D01*
X13223515Y-10839793D02*
X13223515Y-10792174D01*
X13223515Y-10792174D02*
X13233039Y-10754079D01*
X13233039Y-10754079D02*
X13242563Y-10735031D01*
X13242563Y-10735031D02*
X13252086Y-10725508D01*
X13252086Y-10725508D02*
X13271134Y-10715984D01*
X13423515Y-10896936D02*
X13433039Y-10906460D01*
X13433039Y-10906460D02*
X13423515Y-10915984D01*
X13423515Y-10915984D02*
X13413991Y-10906460D01*
X13413991Y-10906460D02*
X13423515Y-10896936D01*
X13423515Y-10896936D02*
X13423515Y-10915984D01*
X13623515Y-10915984D02*
X13509229Y-10915984D01*
X13566372Y-10915984D02*
X13566372Y-10715984D01*
X13566372Y-10715984D02*
X13547325Y-10744555D01*
X13547325Y-10744555D02*
X13528277Y-10763603D01*
X13528277Y-10763603D02*
X13509229Y-10773127D01*
X13747325Y-10715984D02*
X13766372Y-10715984D01*
X13766372Y-10715984D02*
X13785420Y-10725508D01*
X13785420Y-10725508D02*
X13794944Y-10735031D01*
X13794944Y-10735031D02*
X13804467Y-10754079D01*
X13804467Y-10754079D02*
X13813991Y-10792174D01*
X13813991Y-10792174D02*
X13813991Y-10839793D01*
X13813991Y-10839793D02*
X13804467Y-10877889D01*
X13804467Y-10877889D02*
X13794944Y-10896936D01*
X13794944Y-10896936D02*
X13785420Y-10906460D01*
X13785420Y-10906460D02*
X13766372Y-10915984D01*
X13766372Y-10915984D02*
X13747325Y-10915984D01*
X13747325Y-10915984D02*
X13728277Y-10906460D01*
X13728277Y-10906460D02*
X13718753Y-10896936D01*
X13718753Y-10896936D02*
X13709229Y-10877889D01*
X13709229Y-10877889D02*
X13699706Y-10839793D01*
X13699706Y-10839793D02*
X13699706Y-10792174D01*
X13699706Y-10792174D02*
X13709229Y-10754079D01*
X13709229Y-10754079D02*
X13718753Y-10735031D01*
X13718753Y-10735031D02*
X13728277Y-10725508D01*
X13728277Y-10725508D02*
X13747325Y-10715984D01*
X13985420Y-10715984D02*
X13947325Y-10715984D01*
X13947325Y-10715984D02*
X13928277Y-10725508D01*
X13928277Y-10725508D02*
X13918753Y-10735031D01*
X13918753Y-10735031D02*
X13899706Y-10763603D01*
X13899706Y-10763603D02*
X13890182Y-10801698D01*
X13890182Y-10801698D02*
X13890182Y-10877889D01*
X13890182Y-10877889D02*
X13899706Y-10896936D01*
X13899706Y-10896936D02*
X13909229Y-10906460D01*
X13909229Y-10906460D02*
X13928277Y-10915984D01*
X13928277Y-10915984D02*
X13966372Y-10915984D01*
X13966372Y-10915984D02*
X13985420Y-10906460D01*
X13985420Y-10906460D02*
X13994944Y-10896936D01*
X13994944Y-10896936D02*
X14004467Y-10877889D01*
X14004467Y-10877889D02*
X14004467Y-10830270D01*
X14004467Y-10830270D02*
X13994944Y-10811222D01*
X13994944Y-10811222D02*
X13985420Y-10801698D01*
X13985420Y-10801698D02*
X13966372Y-10792174D01*
X13966372Y-10792174D02*
X13928277Y-10792174D01*
X13928277Y-10792174D02*
X13909229Y-10801698D01*
X13909229Y-10801698D02*
X13899706Y-10811222D01*
X13899706Y-10811222D02*
X13890182Y-10830270D01*
X14071134Y-10715984D02*
X14194944Y-10715984D01*
X14194944Y-10715984D02*
X14128277Y-10792174D01*
X14128277Y-10792174D02*
X14156848Y-10792174D01*
X14156848Y-10792174D02*
X14175896Y-10801698D01*
X14175896Y-10801698D02*
X14185420Y-10811222D01*
X14185420Y-10811222D02*
X14194944Y-10830270D01*
X14194944Y-10830270D02*
X14194944Y-10877889D01*
X14194944Y-10877889D02*
X14185420Y-10896936D01*
X14185420Y-10896936D02*
X14175896Y-10906460D01*
X14175896Y-10906460D02*
X14156848Y-10915984D01*
X14156848Y-10915984D02*
X14099706Y-10915984D01*
X14099706Y-10915984D02*
X14080658Y-10906460D01*
X14080658Y-10906460D02*
X14071134Y-10896936D01*
X14271134Y-10715984D02*
X14271134Y-10754079D01*
X14347325Y-10715984D02*
X14347325Y-10754079D01*
X14642563Y-10992174D02*
X14633039Y-10982650D01*
X14633039Y-10982650D02*
X14613991Y-10954079D01*
X14613991Y-10954079D02*
X14604468Y-10935031D01*
X14604468Y-10935031D02*
X14594944Y-10906460D01*
X14594944Y-10906460D02*
X14585420Y-10858841D01*
X14585420Y-10858841D02*
X14585420Y-10820746D01*
X14585420Y-10820746D02*
X14594944Y-10773127D01*
X14594944Y-10773127D02*
X14604468Y-10744555D01*
X14604468Y-10744555D02*
X14613991Y-10725508D01*
X14613991Y-10725508D02*
X14633039Y-10696936D01*
X14633039Y-10696936D02*
X14642563Y-10687412D01*
X14804468Y-10782650D02*
X14804468Y-10915984D01*
X14756848Y-10706460D02*
X14709229Y-10849317D01*
X14709229Y-10849317D02*
X14833039Y-10849317D01*
X15061610Y-10915984D02*
X15061610Y-10715984D01*
X15147325Y-10915984D02*
X15147325Y-10811222D01*
X15147325Y-10811222D02*
X15137801Y-10792174D01*
X15137801Y-10792174D02*
X15118753Y-10782650D01*
X15118753Y-10782650D02*
X15090182Y-10782650D01*
X15090182Y-10782650D02*
X15071134Y-10792174D01*
X15071134Y-10792174D02*
X15061610Y-10801698D01*
X15271134Y-10915984D02*
X15252087Y-10906460D01*
X15252087Y-10906460D02*
X15242563Y-10896936D01*
X15242563Y-10896936D02*
X15233039Y-10877889D01*
X15233039Y-10877889D02*
X15233039Y-10820746D01*
X15233039Y-10820746D02*
X15242563Y-10801698D01*
X15242563Y-10801698D02*
X15252087Y-10792174D01*
X15252087Y-10792174D02*
X15271134Y-10782650D01*
X15271134Y-10782650D02*
X15299706Y-10782650D01*
X15299706Y-10782650D02*
X15318753Y-10792174D01*
X15318753Y-10792174D02*
X15328277Y-10801698D01*
X15328277Y-10801698D02*
X15337801Y-10820746D01*
X15337801Y-10820746D02*
X15337801Y-10877889D01*
X15337801Y-10877889D02*
X15328277Y-10896936D01*
X15328277Y-10896936D02*
X15318753Y-10906460D01*
X15318753Y-10906460D02*
X15299706Y-10915984D01*
X15299706Y-10915984D02*
X15271134Y-10915984D01*
X15452087Y-10915984D02*
X15433039Y-10906460D01*
X15433039Y-10906460D02*
X15423515Y-10887412D01*
X15423515Y-10887412D02*
X15423515Y-10715984D01*
X15604468Y-10906460D02*
X15585420Y-10915984D01*
X15585420Y-10915984D02*
X15547325Y-10915984D01*
X15547325Y-10915984D02*
X15528277Y-10906460D01*
X15528277Y-10906460D02*
X15518753Y-10887412D01*
X15518753Y-10887412D02*
X15518753Y-10811222D01*
X15518753Y-10811222D02*
X15528277Y-10792174D01*
X15528277Y-10792174D02*
X15547325Y-10782650D01*
X15547325Y-10782650D02*
X15585420Y-10782650D01*
X15585420Y-10782650D02*
X15604468Y-10792174D01*
X15604468Y-10792174D02*
X15613991Y-10811222D01*
X15613991Y-10811222D02*
X15613991Y-10830270D01*
X15613991Y-10830270D02*
X15518753Y-10849317D01*
X15690182Y-10906460D02*
X15709230Y-10915984D01*
X15709230Y-10915984D02*
X15747325Y-10915984D01*
X15747325Y-10915984D02*
X15766372Y-10906460D01*
X15766372Y-10906460D02*
X15775896Y-10887412D01*
X15775896Y-10887412D02*
X15775896Y-10877889D01*
X15775896Y-10877889D02*
X15766372Y-10858841D01*
X15766372Y-10858841D02*
X15747325Y-10849317D01*
X15747325Y-10849317D02*
X15718753Y-10849317D01*
X15718753Y-10849317D02*
X15699706Y-10839793D01*
X15699706Y-10839793D02*
X15690182Y-10820746D01*
X15690182Y-10820746D02*
X15690182Y-10811222D01*
X15690182Y-10811222D02*
X15699706Y-10792174D01*
X15699706Y-10792174D02*
X15718753Y-10782650D01*
X15718753Y-10782650D02*
X15747325Y-10782650D01*
X15747325Y-10782650D02*
X15766372Y-10792174D01*
X15842563Y-10992174D02*
X15852087Y-10982650D01*
X15852087Y-10982650D02*
X15871134Y-10954079D01*
X15871134Y-10954079D02*
X15880658Y-10935031D01*
X15880658Y-10935031D02*
X15890182Y-10906460D01*
X15890182Y-10906460D02*
X15899706Y-10858841D01*
X15899706Y-10858841D02*
X15899706Y-10820746D01*
X15899706Y-10820746D02*
X15890182Y-10773127D01*
X15890182Y-10773127D02*
X15880658Y-10744555D01*
X15880658Y-10744555D02*
X15871134Y-10725508D01*
X15871134Y-10725508D02*
X15852087Y-10696936D01*
X15852087Y-10696936D02*
X15842563Y-10687412D01*
M02*
