%TF.GenerationSoftware,KiCad,Pcbnew,8.0.0*%
%TF.CreationDate,2024-03-26T18:15:11+09:00*%
%TF.ProjectId,led-board,6c65642d-626f-4617-9264-2e6b69636164,rev?*%
%TF.SameCoordinates,Original*%
%TF.FileFunction,Soldermask,Bot*%
%TF.FilePolarity,Negative*%
%FSLAX46Y46*%
G04 Gerber Fmt 4.6, Leading zero omitted, Abs format (unit mm)*
G04 Created by KiCad (PCBNEW 8.0.0) date 2024-03-26 18:15:11*
%MOMM*%
%LPD*%
G01*
G04 APERTURE LIST*
G04 Aperture macros list*
%AMRoundRect*
0 Rectangle with rounded corners*
0 $1 Rounding radius*
0 $2 $3 $4 $5 $6 $7 $8 $9 X,Y pos of 4 corners*
0 Add a 4 corners polygon primitive as box body*
4,1,4,$2,$3,$4,$5,$6,$7,$8,$9,$2,$3,0*
0 Add four circle primitives for the rounded corners*
1,1,$1+$1,$2,$3*
1,1,$1+$1,$4,$5*
1,1,$1+$1,$6,$7*
1,1,$1+$1,$8,$9*
0 Add four rect primitives between the rounded corners*
20,1,$1+$1,$2,$3,$4,$5,0*
20,1,$1+$1,$4,$5,$6,$7,0*
20,1,$1+$1,$6,$7,$8,$9,0*
20,1,$1+$1,$8,$9,$2,$3,0*%
G04 Aperture macros list end*
%ADD10C,1.600000*%
%ADD11O,1.600000X1.600000*%
%ADD12R,1.800000X1.800000*%
%ADD13C,1.800000*%
%ADD14R,2.000000X0.900000*%
%ADD15RoundRect,1.025000X1.025000X-1.025000X1.025000X1.025000X-1.025000X1.025000X-1.025000X-1.025000X0*%
%ADD16C,4.100000*%
%ADD17RoundRect,1.025000X-1.025000X1.025000X-1.025000X-1.025000X1.025000X-1.025000X1.025000X1.025000X0*%
G04 APERTURE END LIST*
D10*
%TO.C,R15*%
X139700000Y-91440000D03*
D11*
X149860000Y-91440000D03*
%TD*%
D12*
%TO.C,D5*%
X157480000Y-76210000D03*
D13*
X157480000Y-73670000D03*
%TD*%
D12*
%TO.C,D16*%
X157480000Y-81280000D03*
D13*
X157480000Y-83820000D03*
%TD*%
D10*
%TO.C,R16*%
X147320000Y-87630000D03*
D11*
X157480000Y-87630000D03*
%TD*%
D12*
%TO.C,D2*%
X180340000Y-76210000D03*
D13*
X180340000Y-73670000D03*
%TD*%
D10*
%TO.C,R12*%
X154940000Y-91440000D03*
D11*
X165100000Y-91440000D03*
%TD*%
D10*
%TO.C,R7*%
X132080000Y-69850000D03*
D11*
X142240000Y-69850000D03*
%TD*%
D14*
%TO.C,J1*%
X120665000Y-85490000D03*
X120665000Y-71990000D03*
D15*
X126665000Y-75140000D03*
D16*
X126665000Y-82340000D03*
%TD*%
D12*
%TO.C,D11*%
X172720000Y-81280000D03*
D13*
X172720000Y-83820000D03*
%TD*%
D12*
%TO.C,D15*%
X149860000Y-81280000D03*
D13*
X149860000Y-83820000D03*
%TD*%
D10*
%TO.C,R2*%
X170180000Y-66040000D03*
D11*
X180340000Y-66040000D03*
%TD*%
D10*
%TO.C,R13*%
X124460000Y-91440000D03*
D11*
X134620000Y-91440000D03*
%TD*%
D12*
%TO.C,D7*%
X142240000Y-76210000D03*
D13*
X142240000Y-73670000D03*
%TD*%
D12*
%TO.C,D6*%
X149860000Y-76210000D03*
D13*
X149860000Y-73670000D03*
%TD*%
D10*
%TO.C,R11*%
X162560000Y-87630000D03*
D11*
X172720000Y-87630000D03*
%TD*%
D10*
%TO.C,R14*%
X132080000Y-87630000D03*
D11*
X142240000Y-87630000D03*
%TD*%
D10*
%TO.C,R1*%
X177800000Y-69850000D03*
D11*
X187960000Y-69850000D03*
%TD*%
D12*
%TO.C,D3*%
X172720000Y-76210000D03*
D13*
X172720000Y-73670000D03*
%TD*%
D12*
%TO.C,D13*%
X134620000Y-81280000D03*
D13*
X134620000Y-83820000D03*
%TD*%
D10*
%TO.C,R8*%
X124460000Y-66040000D03*
D11*
X134620000Y-66040000D03*
%TD*%
D12*
%TO.C,D12*%
X165100000Y-81280000D03*
D13*
X165100000Y-83820000D03*
%TD*%
D12*
%TO.C,D8*%
X134620000Y-76210000D03*
D13*
X134620000Y-73670000D03*
%TD*%
D14*
%TO.C,J2*%
X201026000Y-71990000D03*
X201026000Y-85490000D03*
D17*
X195026000Y-82340000D03*
D16*
X195026000Y-75140000D03*
%TD*%
D12*
%TO.C,D9*%
X187960000Y-81280000D03*
D13*
X187960000Y-83820000D03*
%TD*%
D12*
%TO.C,D14*%
X142240000Y-81280000D03*
D13*
X142240000Y-83820000D03*
%TD*%
D10*
%TO.C,R9*%
X177800000Y-87630000D03*
D11*
X187960000Y-87630000D03*
%TD*%
D10*
%TO.C,R10*%
X170180000Y-91440000D03*
D11*
X180340000Y-91440000D03*
%TD*%
D10*
%TO.C,R3*%
X162560000Y-69850000D03*
D11*
X172720000Y-69850000D03*
%TD*%
D12*
%TO.C,D1*%
X187960000Y-76210000D03*
D13*
X187960000Y-73670000D03*
%TD*%
D12*
%TO.C,D10*%
X180340000Y-81280000D03*
D13*
X180340000Y-83820000D03*
%TD*%
D10*
%TO.C,R5*%
X147320000Y-69850000D03*
D11*
X157480000Y-69850000D03*
%TD*%
D12*
%TO.C,D4*%
X165100000Y-76210000D03*
D13*
X165100000Y-73670000D03*
%TD*%
D10*
%TO.C,R4*%
X154940000Y-66040000D03*
D11*
X165100000Y-66040000D03*
%TD*%
D10*
%TO.C,R6*%
X139700000Y-66040000D03*
D11*
X149860000Y-66040000D03*
%TD*%
M02*
