M48
; DRILL file {KiCad 8.0.0} date 2024-03-26T18:15:12+0900
; FORMAT={-:-/ absolute / inch / decimal}
; #@! TF.CreationDate,2024-03-26T18:15:12+09:00
; #@! TF.GenerationSoftware,Kicad,Pcbnew,8.0.0
; #@! TF.FileFunction,Plated,1,2,PTH
FMAT,2
INCH
; #@! TA.AperFunction,Plated,PTH,ComponentDrill
T1C0.0236
; #@! TA.AperFunction,Plated,PTH,ComponentDrill
T2C0.0315
; #@! TA.AperFunction,Plated,PTH,ComponentDrill
T3C0.0354
; #@! TA.AperFunction,Plated,PTH,ComponentDrill
T4C0.1063
%
G90
G05
T2
X4.9Y-2.6
X4.9Y-3.6
X5.2Y-2.75
X5.2Y-3.45
X5.3Y-2.6
X5.3Y-3.6
X5.5Y-2.6
X5.5Y-3.6
X5.6Y-2.75
X5.6Y-3.45
X5.8Y-2.75
X5.8Y-3.45
X5.9Y-2.6
X5.9Y-3.6
X6.1Y-2.6
X6.1Y-3.6
X6.2Y-2.75
X6.2Y-3.45
X6.4Y-2.75
X6.4Y-3.45
X6.5Y-2.6
X6.5Y-3.6
X6.7Y-2.6
X6.7Y-3.6
X6.8Y-2.75
X6.8Y-3.45
X7.0Y-2.75
X7.0Y-3.45
X7.1Y-2.6
X7.1Y-3.6
X7.4Y-2.75
X7.4Y-3.45
T3
X5.3Y-2.9004
X5.3Y-3.0004
X5.3Y-3.2
X5.3Y-3.3
X5.6Y-2.9004
X5.6Y-3.0004
X5.6Y-3.2
X5.6Y-3.3
X5.9Y-2.9004
X5.9Y-3.0004
X5.9Y-3.2
X5.9Y-3.3
X6.2Y-2.9004
X6.2Y-3.0004
X6.2Y-3.2
X6.2Y-3.3
X6.5Y-2.9004
X6.5Y-3.0004
X6.5Y-3.2
X6.5Y-3.3
X6.8Y-2.9004
X6.8Y-3.0004
X6.8Y-3.2
X6.8Y-3.3
X7.1Y-2.9004
X7.1Y-3.0004
X7.1Y-3.2
X7.1Y-3.3
X7.4Y-2.9004
X7.4Y-3.0004
X7.4Y-3.2
X7.4Y-3.3
T4
X4.9868Y-2.9583
X4.9868Y-3.2417
X7.6782Y-2.9583
X7.6782Y-3.2417
T1
G00X4.7289Y-2.8343
M15
G01X4.7722Y-2.8343
M16
G05
G00X4.7289Y-3.3657
M15
G01X4.7722Y-3.3657
M16
G05
G00X7.9361Y-2.8343
M15
G01X7.8928Y-2.8343
M16
G05
G00X7.9361Y-3.3657
M15
G01X7.8928Y-3.3657
M16
G05
M30
