%TF.GenerationSoftware,KiCad,Pcbnew,8.0.0*%
%TF.CreationDate,2024-03-26T18:15:13+09:00*%
%TF.ProjectId,led-board,6c65642d-626f-4617-9264-2e6b69636164,rev?*%
%TF.SameCoordinates,Original*%
%TF.FileFunction,Drillmap*%
%TF.FilePolarity,Positive*%
%FSLAX45Y45*%
G04 Gerber Fmt 4.5, Leading zero omitted, Abs format (unit mm)*
G04 Created by KiCad (PCBNEW 8.0.0) date 2024-03-26 18:15:13*
%MOMM*%
%LPD*%
G01*
G04 APERTURE LIST*
%ADD10C,0.050000*%
%ADD11C,0.200000*%
G04 APERTURE END LIST*
D10*
X20920000Y-9090000D02*
G75*
G02*
X20620000Y-9090000I-150000J0D01*
G01*
X20620000Y-9090000D02*
G75*
G02*
X20920000Y-9090000I150000J0D01*
G01*
X11070000Y-6390000D02*
X21070000Y-6390000D01*
X21070000Y-9390000D01*
X11070000Y-9390000D01*
X11070000Y-6390000D01*
X11520000Y-9090000D02*
G75*
G02*
X11220000Y-9090000I-150000J0D01*
G01*
X11220000Y-9090000D02*
G75*
G02*
X11520000Y-9090000I150000J0D01*
G01*
X11520000Y-6690000D02*
G75*
G02*
X11220000Y-6690000I-150000J0D01*
G01*
X11220000Y-6690000D02*
G75*
G02*
X11520000Y-6690000I150000J0D01*
G01*
X20920000Y-6690000D02*
G75*
G02*
X20620000Y-6690000I-150000J0D01*
G01*
X20620000Y-6690000D02*
G75*
G02*
X20920000Y-6690000I150000J0D01*
G01*
D11*
X11328277Y-9703984D02*
X11328277Y-9503984D01*
X11328277Y-9503984D02*
X11375896Y-9503984D01*
X11375896Y-9503984D02*
X11404467Y-9513508D01*
X11404467Y-9513508D02*
X11423515Y-9532555D01*
X11423515Y-9532555D02*
X11433039Y-9551603D01*
X11433039Y-9551603D02*
X11442562Y-9589698D01*
X11442562Y-9589698D02*
X11442562Y-9618270D01*
X11442562Y-9618270D02*
X11433039Y-9656365D01*
X11433039Y-9656365D02*
X11423515Y-9675412D01*
X11423515Y-9675412D02*
X11404467Y-9694460D01*
X11404467Y-9694460D02*
X11375896Y-9703984D01*
X11375896Y-9703984D02*
X11328277Y-9703984D01*
X11528277Y-9703984D02*
X11528277Y-9570650D01*
X11528277Y-9608746D02*
X11537801Y-9589698D01*
X11537801Y-9589698D02*
X11547324Y-9580174D01*
X11547324Y-9580174D02*
X11566372Y-9570650D01*
X11566372Y-9570650D02*
X11585420Y-9570650D01*
X11652086Y-9703984D02*
X11652086Y-9570650D01*
X11652086Y-9503984D02*
X11642562Y-9513508D01*
X11642562Y-9513508D02*
X11652086Y-9523031D01*
X11652086Y-9523031D02*
X11661610Y-9513508D01*
X11661610Y-9513508D02*
X11652086Y-9503984D01*
X11652086Y-9503984D02*
X11652086Y-9523031D01*
X11775896Y-9703984D02*
X11756848Y-9694460D01*
X11756848Y-9694460D02*
X11747324Y-9675412D01*
X11747324Y-9675412D02*
X11747324Y-9503984D01*
X11880658Y-9703984D02*
X11861610Y-9694460D01*
X11861610Y-9694460D02*
X11852086Y-9675412D01*
X11852086Y-9675412D02*
X11852086Y-9503984D01*
X12109229Y-9703984D02*
X12109229Y-9503984D01*
X12109229Y-9503984D02*
X12175896Y-9646841D01*
X12175896Y-9646841D02*
X12242562Y-9503984D01*
X12242562Y-9503984D02*
X12242562Y-9703984D01*
X12423515Y-9703984D02*
X12423515Y-9599222D01*
X12423515Y-9599222D02*
X12413991Y-9580174D01*
X12413991Y-9580174D02*
X12394943Y-9570650D01*
X12394943Y-9570650D02*
X12356848Y-9570650D01*
X12356848Y-9570650D02*
X12337801Y-9580174D01*
X12423515Y-9694460D02*
X12404467Y-9703984D01*
X12404467Y-9703984D02*
X12356848Y-9703984D01*
X12356848Y-9703984D02*
X12337801Y-9694460D01*
X12337801Y-9694460D02*
X12328277Y-9675412D01*
X12328277Y-9675412D02*
X12328277Y-9656365D01*
X12328277Y-9656365D02*
X12337801Y-9637317D01*
X12337801Y-9637317D02*
X12356848Y-9627793D01*
X12356848Y-9627793D02*
X12404467Y-9627793D01*
X12404467Y-9627793D02*
X12423515Y-9618270D01*
X12518753Y-9570650D02*
X12518753Y-9770650D01*
X12518753Y-9580174D02*
X12537801Y-9570650D01*
X12537801Y-9570650D02*
X12575896Y-9570650D01*
X12575896Y-9570650D02*
X12594943Y-9580174D01*
X12594943Y-9580174D02*
X12604467Y-9589698D01*
X12604467Y-9589698D02*
X12613991Y-9608746D01*
X12613991Y-9608746D02*
X12613991Y-9665889D01*
X12613991Y-9665889D02*
X12604467Y-9684936D01*
X12604467Y-9684936D02*
X12594943Y-9694460D01*
X12594943Y-9694460D02*
X12575896Y-9703984D01*
X12575896Y-9703984D02*
X12537801Y-9703984D01*
X12537801Y-9703984D02*
X12518753Y-9694460D01*
X12699705Y-9684936D02*
X12709229Y-9694460D01*
X12709229Y-9694460D02*
X12699705Y-9703984D01*
X12699705Y-9703984D02*
X12690182Y-9694460D01*
X12690182Y-9694460D02*
X12699705Y-9684936D01*
X12699705Y-9684936D02*
X12699705Y-9703984D01*
X12699705Y-9580174D02*
X12709229Y-9589698D01*
X12709229Y-9589698D02*
X12699705Y-9599222D01*
X12699705Y-9599222D02*
X12690182Y-9589698D01*
X12690182Y-9589698D02*
X12699705Y-9580174D01*
X12699705Y-9580174D02*
X12699705Y-9599222D01*
M02*
