%TF.GenerationSoftware,KiCad,Pcbnew,8.0.0*%
%TF.CreationDate,2024-03-26T18:15:11+09:00*%
%TF.ProjectId,led-board,6c65642d-626f-4617-9264-2e6b69636164,rev?*%
%TF.SameCoordinates,Original*%
%TF.FileFunction,Copper,L2,Bot*%
%TF.FilePolarity,Positive*%
%FSLAX46Y46*%
G04 Gerber Fmt 4.6, Leading zero omitted, Abs format (unit mm)*
G04 Created by KiCad (PCBNEW 8.0.0) date 2024-03-26 18:15:11*
%MOMM*%
%LPD*%
G01*
G04 APERTURE LIST*
G04 Aperture macros list*
%AMRoundRect*
0 Rectangle with rounded corners*
0 $1 Rounding radius*
0 $2 $3 $4 $5 $6 $7 $8 $9 X,Y pos of 4 corners*
0 Add a 4 corners polygon primitive as box body*
4,1,4,$2,$3,$4,$5,$6,$7,$8,$9,$2,$3,0*
0 Add four circle primitives for the rounded corners*
1,1,$1+$1,$2,$3*
1,1,$1+$1,$4,$5*
1,1,$1+$1,$6,$7*
1,1,$1+$1,$8,$9*
0 Add four rect primitives between the rounded corners*
20,1,$1+$1,$2,$3,$4,$5,0*
20,1,$1+$1,$4,$5,$6,$7,0*
20,1,$1+$1,$6,$7,$8,$9,0*
20,1,$1+$1,$8,$9,$2,$3,0*%
G04 Aperture macros list end*
%TA.AperFunction,ComponentPad*%
%ADD10C,1.600000*%
%TD*%
%TA.AperFunction,ComponentPad*%
%ADD11O,1.600000X1.600000*%
%TD*%
%TA.AperFunction,ComponentPad*%
%ADD12R,1.800000X1.800000*%
%TD*%
%TA.AperFunction,ComponentPad*%
%ADD13C,1.800000*%
%TD*%
%TA.AperFunction,ComponentPad*%
%ADD14R,2.000000X0.900000*%
%TD*%
%TA.AperFunction,ComponentPad*%
%ADD15RoundRect,1.025000X1.025000X-1.025000X1.025000X1.025000X-1.025000X1.025000X-1.025000X-1.025000X0*%
%TD*%
%TA.AperFunction,ComponentPad*%
%ADD16C,4.100000*%
%TD*%
%TA.AperFunction,ComponentPad*%
%ADD17RoundRect,1.025000X-1.025000X1.025000X-1.025000X-1.025000X1.025000X-1.025000X1.025000X1.025000X0*%
%TD*%
%TA.AperFunction,Conductor*%
%ADD18C,1.000000*%
%TD*%
G04 APERTURE END LIST*
D10*
%TO.P,R15,1*%
%TO.N,VCC*%
X139700000Y-91440000D03*
D11*
%TO.P,R15,2*%
%TO.N,Net-(D15-A)*%
X149860000Y-91440000D03*
%TD*%
D12*
%TO.P,D5,1,K*%
%TO.N,GND*%
X157480000Y-76210000D03*
D13*
%TO.P,D5,2,A*%
%TO.N,Net-(D5-A)*%
X157480000Y-73670000D03*
%TD*%
D12*
%TO.P,D16,1,K*%
%TO.N,GND*%
X157480000Y-81280000D03*
D13*
%TO.P,D16,2,A*%
%TO.N,Net-(D16-A)*%
X157480000Y-83820000D03*
%TD*%
D10*
%TO.P,R16,1*%
%TO.N,VCC*%
X147320000Y-87630000D03*
D11*
%TO.P,R16,2*%
%TO.N,Net-(D16-A)*%
X157480000Y-87630000D03*
%TD*%
D12*
%TO.P,D2,1,K*%
%TO.N,GND*%
X180340000Y-76210000D03*
D13*
%TO.P,D2,2,A*%
%TO.N,Net-(D2-A)*%
X180340000Y-73670000D03*
%TD*%
D10*
%TO.P,R12,1*%
%TO.N,VCC*%
X154940000Y-91440000D03*
D11*
%TO.P,R12,2*%
%TO.N,Net-(D12-A)*%
X165100000Y-91440000D03*
%TD*%
D10*
%TO.P,R7,1*%
%TO.N,VCC*%
X132080000Y-69850000D03*
D11*
%TO.P,R7,2*%
%TO.N,Net-(D7-A)*%
X142240000Y-69850000D03*
%TD*%
D14*
%TO.P,J1,*%
%TO.N,*%
X120665000Y-85490000D03*
X120665000Y-71990000D03*
D15*
%TO.P,J1,1,Pin_1*%
%TO.N,GND*%
X126665000Y-75140000D03*
D16*
%TO.P,J1,2,Pin_2*%
%TO.N,VCC*%
X126665000Y-82340000D03*
%TD*%
D12*
%TO.P,D11,1,K*%
%TO.N,GND*%
X172720000Y-81280000D03*
D13*
%TO.P,D11,2,A*%
%TO.N,Net-(D11-A)*%
X172720000Y-83820000D03*
%TD*%
D12*
%TO.P,D15,1,K*%
%TO.N,GND*%
X149860000Y-81280000D03*
D13*
%TO.P,D15,2,A*%
%TO.N,Net-(D15-A)*%
X149860000Y-83820000D03*
%TD*%
D10*
%TO.P,R2,1*%
%TO.N,VCC*%
X170180000Y-66040000D03*
D11*
%TO.P,R2,2*%
%TO.N,Net-(D2-A)*%
X180340000Y-66040000D03*
%TD*%
D10*
%TO.P,R13,1*%
%TO.N,VCC*%
X124460000Y-91440000D03*
D11*
%TO.P,R13,2*%
%TO.N,Net-(D13-A)*%
X134620000Y-91440000D03*
%TD*%
D12*
%TO.P,D7,1,K*%
%TO.N,GND*%
X142240000Y-76210000D03*
D13*
%TO.P,D7,2,A*%
%TO.N,Net-(D7-A)*%
X142240000Y-73670000D03*
%TD*%
D12*
%TO.P,D6,1,K*%
%TO.N,GND*%
X149860000Y-76210000D03*
D13*
%TO.P,D6,2,A*%
%TO.N,Net-(D6-A)*%
X149860000Y-73670000D03*
%TD*%
D10*
%TO.P,R11,1*%
%TO.N,VCC*%
X162560000Y-87630000D03*
D11*
%TO.P,R11,2*%
%TO.N,Net-(D11-A)*%
X172720000Y-87630000D03*
%TD*%
D10*
%TO.P,R14,1*%
%TO.N,VCC*%
X132080000Y-87630000D03*
D11*
%TO.P,R14,2*%
%TO.N,Net-(D14-A)*%
X142240000Y-87630000D03*
%TD*%
D10*
%TO.P,R1,1*%
%TO.N,VCC*%
X177800000Y-69850000D03*
D11*
%TO.P,R1,2*%
%TO.N,Net-(D1-A)*%
X187960000Y-69850000D03*
%TD*%
D12*
%TO.P,D3,1,K*%
%TO.N,GND*%
X172720000Y-76210000D03*
D13*
%TO.P,D3,2,A*%
%TO.N,Net-(D3-A)*%
X172720000Y-73670000D03*
%TD*%
D12*
%TO.P,D13,1,K*%
%TO.N,GND*%
X134620000Y-81280000D03*
D13*
%TO.P,D13,2,A*%
%TO.N,Net-(D13-A)*%
X134620000Y-83820000D03*
%TD*%
D10*
%TO.P,R8,1*%
%TO.N,VCC*%
X124460000Y-66040000D03*
D11*
%TO.P,R8,2*%
%TO.N,Net-(D8-A)*%
X134620000Y-66040000D03*
%TD*%
D12*
%TO.P,D12,1,K*%
%TO.N,GND*%
X165100000Y-81280000D03*
D13*
%TO.P,D12,2,A*%
%TO.N,Net-(D12-A)*%
X165100000Y-83820000D03*
%TD*%
D12*
%TO.P,D8,1,K*%
%TO.N,GND*%
X134620000Y-76210000D03*
D13*
%TO.P,D8,2,A*%
%TO.N,Net-(D8-A)*%
X134620000Y-73670000D03*
%TD*%
D14*
%TO.P,J2,*%
%TO.N,*%
X201026000Y-71990000D03*
X201026000Y-85490000D03*
D17*
%TO.P,J2,1,Pin_1*%
%TO.N,GND*%
X195026000Y-82340000D03*
D16*
%TO.P,J2,2,Pin_2*%
%TO.N,VCC*%
X195026000Y-75140000D03*
%TD*%
D12*
%TO.P,D9,1,K*%
%TO.N,GND*%
X187960000Y-81280000D03*
D13*
%TO.P,D9,2,A*%
%TO.N,Net-(D9-A)*%
X187960000Y-83820000D03*
%TD*%
D12*
%TO.P,D14,1,K*%
%TO.N,GND*%
X142240000Y-81280000D03*
D13*
%TO.P,D14,2,A*%
%TO.N,Net-(D14-A)*%
X142240000Y-83820000D03*
%TD*%
D10*
%TO.P,R9,1*%
%TO.N,VCC*%
X177800000Y-87630000D03*
D11*
%TO.P,R9,2*%
%TO.N,Net-(D9-A)*%
X187960000Y-87630000D03*
%TD*%
D10*
%TO.P,R10,1*%
%TO.N,VCC*%
X170180000Y-91440000D03*
D11*
%TO.P,R10,2*%
%TO.N,Net-(D10-A)*%
X180340000Y-91440000D03*
%TD*%
D10*
%TO.P,R3,1*%
%TO.N,VCC*%
X162560000Y-69850000D03*
D11*
%TO.P,R3,2*%
%TO.N,Net-(D3-A)*%
X172720000Y-69850000D03*
%TD*%
D12*
%TO.P,D1,1,K*%
%TO.N,GND*%
X187960000Y-76210000D03*
D13*
%TO.P,D1,2,A*%
%TO.N,Net-(D1-A)*%
X187960000Y-73670000D03*
%TD*%
D12*
%TO.P,D10,1,K*%
%TO.N,GND*%
X180340000Y-81280000D03*
D13*
%TO.P,D10,2,A*%
%TO.N,Net-(D10-A)*%
X180340000Y-83820000D03*
%TD*%
D10*
%TO.P,R5,1*%
%TO.N,VCC*%
X147320000Y-69850000D03*
D11*
%TO.P,R5,2*%
%TO.N,Net-(D5-A)*%
X157480000Y-69850000D03*
%TD*%
D12*
%TO.P,D4,1,K*%
%TO.N,GND*%
X165100000Y-76210000D03*
D13*
%TO.P,D4,2,A*%
%TO.N,Net-(D4-A)*%
X165100000Y-73670000D03*
%TD*%
D10*
%TO.P,R4,1*%
%TO.N,VCC*%
X154940000Y-66040000D03*
D11*
%TO.P,R4,2*%
%TO.N,Net-(D4-A)*%
X165100000Y-66040000D03*
%TD*%
D10*
%TO.P,R6,1*%
%TO.N,VCC*%
X139700000Y-66040000D03*
D11*
%TO.P,R6,2*%
%TO.N,Net-(D6-A)*%
X149860000Y-66040000D03*
%TD*%
D18*
%TO.N,Net-(D2-A)*%
X180340000Y-66040000D02*
X180340000Y-73670000D01*
%TO.N,Net-(D4-A)*%
X165100000Y-66040000D02*
X165100000Y-73670000D01*
%TO.N,Net-(D6-A)*%
X149860000Y-73670000D02*
X149860000Y-66040000D01*
%TO.N,Net-(D8-A)*%
X134620000Y-73670000D02*
X134620000Y-66040000D01*
%TO.N,Net-(D9-A)*%
X187960000Y-87630000D02*
X187960000Y-83820000D01*
%TO.N,Net-(D11-A)*%
X172720000Y-87630000D02*
X172720000Y-83820000D01*
%TO.N,Net-(D14-A)*%
X142240000Y-87630000D02*
X142240000Y-83820000D01*
%TO.N,Net-(D16-A)*%
X157480000Y-87630000D02*
X157480000Y-83820000D01*
%TD*%
%TA.AperFunction,Conductor*%
%TO.N,GND*%
G36*
X123429615Y-65019685D02*
G01*
X123475370Y-65072489D01*
X123485314Y-65141647D01*
X123461357Y-65195235D01*
X123463058Y-65196426D01*
X123329432Y-65387265D01*
X123329431Y-65387267D01*
X123233261Y-65593502D01*
X123233258Y-65593511D01*
X123174366Y-65813302D01*
X123174364Y-65813313D01*
X123154532Y-66039998D01*
X123154532Y-66040001D01*
X123174364Y-66266686D01*
X123174366Y-66266697D01*
X123233258Y-66486488D01*
X123233261Y-66486497D01*
X123329431Y-66692732D01*
X123329432Y-66692734D01*
X123459954Y-66879141D01*
X123620858Y-67040045D01*
X123620861Y-67040047D01*
X123807266Y-67170568D01*
X124013504Y-67266739D01*
X124233308Y-67325635D01*
X124395230Y-67339801D01*
X124459998Y-67345468D01*
X124460000Y-67345468D01*
X124460002Y-67345468D01*
X124516673Y-67340509D01*
X124686692Y-67325635D01*
X124906496Y-67266739D01*
X125112734Y-67170568D01*
X125299139Y-67040047D01*
X125460047Y-66879139D01*
X125590568Y-66692734D01*
X125686739Y-66486496D01*
X125745635Y-66266692D01*
X125765468Y-66040000D01*
X125745635Y-65813308D01*
X125686739Y-65593504D01*
X125590568Y-65387266D01*
X125460047Y-65200861D01*
X125456942Y-65196426D01*
X125458704Y-65195192D01*
X125434419Y-65139678D01*
X125445469Y-65070688D01*
X125492065Y-65018624D01*
X125557424Y-65000000D01*
X133522576Y-65000000D01*
X133589615Y-65019685D01*
X133635370Y-65072489D01*
X133645314Y-65141647D01*
X133621357Y-65195235D01*
X133623058Y-65196426D01*
X133489432Y-65387265D01*
X133489431Y-65387267D01*
X133393261Y-65593502D01*
X133393258Y-65593511D01*
X133334366Y-65813302D01*
X133334364Y-65813313D01*
X133314532Y-66039998D01*
X133314532Y-66040001D01*
X133334364Y-66266686D01*
X133334366Y-66266697D01*
X133393258Y-66486488D01*
X133393261Y-66486497D01*
X133489431Y-66692732D01*
X133489432Y-66692734D01*
X133597075Y-66846465D01*
X133619402Y-66912671D01*
X133619500Y-66917588D01*
X133619500Y-69684933D01*
X133599815Y-69751972D01*
X133547011Y-69797727D01*
X133477853Y-69807671D01*
X133414297Y-69778646D01*
X133376523Y-69719868D01*
X133371972Y-69695740D01*
X133365635Y-69623313D01*
X133365635Y-69623308D01*
X133306739Y-69403504D01*
X133210568Y-69197266D01*
X133080047Y-69010861D01*
X133080045Y-69010858D01*
X132919141Y-68849954D01*
X132732734Y-68719432D01*
X132732732Y-68719431D01*
X132526497Y-68623261D01*
X132526488Y-68623258D01*
X132306697Y-68564366D01*
X132306693Y-68564365D01*
X132306692Y-68564365D01*
X132306691Y-68564364D01*
X132306686Y-68564364D01*
X132080002Y-68544532D01*
X132079998Y-68544532D01*
X131853313Y-68564364D01*
X131853302Y-68564366D01*
X131633511Y-68623258D01*
X131633502Y-68623261D01*
X131427267Y-68719431D01*
X131427265Y-68719432D01*
X131240858Y-68849954D01*
X131079954Y-69010858D01*
X130949432Y-69197265D01*
X130949431Y-69197267D01*
X130853261Y-69403502D01*
X130853258Y-69403511D01*
X130794366Y-69623302D01*
X130794364Y-69623313D01*
X130774532Y-69849998D01*
X130774532Y-69850001D01*
X130794364Y-70076686D01*
X130794366Y-70076697D01*
X130853258Y-70296488D01*
X130853261Y-70296497D01*
X130949431Y-70502732D01*
X130949432Y-70502734D01*
X131079954Y-70689141D01*
X131240858Y-70850045D01*
X131240861Y-70850047D01*
X131427266Y-70980568D01*
X131633504Y-71076739D01*
X131853308Y-71135635D01*
X132015230Y-71149801D01*
X132079998Y-71155468D01*
X132080000Y-71155468D01*
X132080002Y-71155468D01*
X132136673Y-71150509D01*
X132306692Y-71135635D01*
X132526496Y-71076739D01*
X132732734Y-70980568D01*
X132919139Y-70850047D01*
X133080047Y-70689139D01*
X133210568Y-70502734D01*
X133306739Y-70296496D01*
X133365635Y-70076692D01*
X133371972Y-70004258D01*
X133397424Y-69939190D01*
X133454015Y-69898211D01*
X133523777Y-69894333D01*
X133584561Y-69928787D01*
X133617069Y-69990634D01*
X133619500Y-70015066D01*
X133619500Y-72640621D01*
X133599815Y-72707660D01*
X133586730Y-72724603D01*
X133511022Y-72806844D01*
X133511020Y-72806846D01*
X133384075Y-73001151D01*
X133290842Y-73213699D01*
X133233866Y-73438691D01*
X133233864Y-73438702D01*
X133214700Y-73669993D01*
X133214700Y-73670006D01*
X133233864Y-73901297D01*
X133233866Y-73901308D01*
X133290842Y-74126300D01*
X133384075Y-74338848D01*
X133511018Y-74533150D01*
X133606167Y-74636510D01*
X133637089Y-74699164D01*
X133629228Y-74768590D01*
X133585081Y-74822746D01*
X133558271Y-74836674D01*
X133477911Y-74866646D01*
X133477906Y-74866649D01*
X133362812Y-74952809D01*
X133362809Y-74952812D01*
X133276649Y-75067906D01*
X133276645Y-75067913D01*
X133226403Y-75202620D01*
X133226401Y-75202627D01*
X133220000Y-75262155D01*
X133220000Y-75710000D01*
X136020000Y-75710000D01*
X136020000Y-75262172D01*
X136019999Y-75262155D01*
X136013598Y-75202627D01*
X136013596Y-75202620D01*
X135963354Y-75067913D01*
X135963350Y-75067906D01*
X135877190Y-74952812D01*
X135877187Y-74952809D01*
X135762093Y-74866649D01*
X135762086Y-74866645D01*
X135681729Y-74836674D01*
X135625795Y-74794803D01*
X135601378Y-74729338D01*
X135616230Y-74661065D01*
X135633826Y-74636516D01*
X135728979Y-74533153D01*
X135855924Y-74338849D01*
X135949157Y-74126300D01*
X136006134Y-73901305D01*
X136006240Y-73900031D01*
X136025300Y-73670006D01*
X140834700Y-73670006D01*
X140853864Y-73901297D01*
X140853866Y-73901308D01*
X140910842Y-74126300D01*
X141004075Y-74338848D01*
X141131018Y-74533150D01*
X141226167Y-74636510D01*
X141257089Y-74699164D01*
X141249228Y-74768590D01*
X141205081Y-74822746D01*
X141178271Y-74836674D01*
X141097911Y-74866646D01*
X141097906Y-74866649D01*
X140982812Y-74952809D01*
X140982809Y-74952812D01*
X140896649Y-75067906D01*
X140896645Y-75067913D01*
X140846403Y-75202620D01*
X140846401Y-75202627D01*
X140840000Y-75262155D01*
X140840000Y-75710000D01*
X143640000Y-75710000D01*
X143640000Y-75262172D01*
X143639999Y-75262155D01*
X143633598Y-75202627D01*
X143633596Y-75202620D01*
X143583354Y-75067913D01*
X143583350Y-75067906D01*
X143497190Y-74952812D01*
X143497187Y-74952809D01*
X143382093Y-74866649D01*
X143382086Y-74866645D01*
X143301729Y-74836674D01*
X143245795Y-74794803D01*
X143221378Y-74729338D01*
X143236230Y-74661065D01*
X143253826Y-74636516D01*
X143348979Y-74533153D01*
X143475924Y-74338849D01*
X143569157Y-74126300D01*
X143626134Y-73901305D01*
X143626240Y-73900031D01*
X143645300Y-73670006D01*
X143645300Y-73669993D01*
X143626135Y-73438702D01*
X143626133Y-73438691D01*
X143569157Y-73213699D01*
X143475924Y-73001151D01*
X143348983Y-72806852D01*
X143348980Y-72806849D01*
X143348979Y-72806847D01*
X143191784Y-72636087D01*
X143191779Y-72636083D01*
X143191777Y-72636081D01*
X143008634Y-72493535D01*
X143008628Y-72493531D01*
X142804504Y-72383064D01*
X142804495Y-72383061D01*
X142584984Y-72307702D01*
X142413282Y-72279050D01*
X142356049Y-72269500D01*
X142123951Y-72269500D01*
X142078164Y-72277140D01*
X141895015Y-72307702D01*
X141675504Y-72383061D01*
X141675495Y-72383064D01*
X141471371Y-72493531D01*
X141471365Y-72493535D01*
X141288222Y-72636081D01*
X141288219Y-72636084D01*
X141288216Y-72636086D01*
X141288216Y-72636087D01*
X141245648Y-72682328D01*
X141131016Y-72806852D01*
X141004075Y-73001151D01*
X140910842Y-73213699D01*
X140853866Y-73438691D01*
X140853864Y-73438702D01*
X140834700Y-73669993D01*
X140834700Y-73670006D01*
X136025300Y-73670006D01*
X136025300Y-73669993D01*
X136006135Y-73438702D01*
X136006133Y-73438691D01*
X135949157Y-73213699D01*
X135855924Y-73001151D01*
X135728979Y-72806846D01*
X135728977Y-72806844D01*
X135653270Y-72724603D01*
X135622348Y-72661948D01*
X135620500Y-72640621D01*
X135620500Y-69850001D01*
X140934532Y-69850001D01*
X140954364Y-70076686D01*
X140954366Y-70076697D01*
X141013258Y-70296488D01*
X141013261Y-70296497D01*
X141109431Y-70502732D01*
X141109432Y-70502734D01*
X141239954Y-70689141D01*
X141400858Y-70850045D01*
X141400861Y-70850047D01*
X141587266Y-70980568D01*
X141793504Y-71076739D01*
X142013308Y-71135635D01*
X142175230Y-71149801D01*
X142239998Y-71155468D01*
X142240000Y-71155468D01*
X142240002Y-71155468D01*
X142296673Y-71150509D01*
X142466692Y-71135635D01*
X142686496Y-71076739D01*
X142892734Y-70980568D01*
X143079139Y-70850047D01*
X143240047Y-70689139D01*
X143370568Y-70502734D01*
X143466739Y-70296496D01*
X143525635Y-70076692D01*
X143545468Y-69850000D01*
X143525635Y-69623308D01*
X143466739Y-69403504D01*
X143370568Y-69197266D01*
X143240047Y-69010861D01*
X143240045Y-69010858D01*
X143079141Y-68849954D01*
X142892734Y-68719432D01*
X142892732Y-68719431D01*
X142686497Y-68623261D01*
X142686488Y-68623258D01*
X142466697Y-68564366D01*
X142466693Y-68564365D01*
X142466692Y-68564365D01*
X142466691Y-68564364D01*
X142466686Y-68564364D01*
X142240002Y-68544532D01*
X142239998Y-68544532D01*
X142013313Y-68564364D01*
X142013302Y-68564366D01*
X141793511Y-68623258D01*
X141793502Y-68623261D01*
X141587267Y-68719431D01*
X141587265Y-68719432D01*
X141400858Y-68849954D01*
X141239954Y-69010858D01*
X141109432Y-69197265D01*
X141109431Y-69197267D01*
X141013261Y-69403502D01*
X141013258Y-69403511D01*
X140954366Y-69623302D01*
X140954364Y-69623313D01*
X140934532Y-69849998D01*
X140934532Y-69850001D01*
X135620500Y-69850001D01*
X135620500Y-66917588D01*
X135640185Y-66850549D01*
X135642925Y-66846465D01*
X135750568Y-66692734D01*
X135846739Y-66486496D01*
X135905635Y-66266692D01*
X135925468Y-66040000D01*
X135905635Y-65813308D01*
X135846739Y-65593504D01*
X135750568Y-65387266D01*
X135620047Y-65200861D01*
X135616942Y-65196426D01*
X135618704Y-65195192D01*
X135594419Y-65139678D01*
X135605469Y-65070688D01*
X135652065Y-65018624D01*
X135717424Y-65000000D01*
X138602576Y-65000000D01*
X138669615Y-65019685D01*
X138715370Y-65072489D01*
X138725314Y-65141647D01*
X138701357Y-65195235D01*
X138703058Y-65196426D01*
X138569432Y-65387265D01*
X138569431Y-65387267D01*
X138473261Y-65593502D01*
X138473258Y-65593511D01*
X138414366Y-65813302D01*
X138414364Y-65813313D01*
X138394532Y-66039998D01*
X138394532Y-66040001D01*
X138414364Y-66266686D01*
X138414366Y-66266697D01*
X138473258Y-66486488D01*
X138473261Y-66486497D01*
X138569431Y-66692732D01*
X138569432Y-66692734D01*
X138699954Y-66879141D01*
X138860858Y-67040045D01*
X138860861Y-67040047D01*
X139047266Y-67170568D01*
X139253504Y-67266739D01*
X139473308Y-67325635D01*
X139635230Y-67339801D01*
X139699998Y-67345468D01*
X139700000Y-67345468D01*
X139700002Y-67345468D01*
X139756673Y-67340509D01*
X139926692Y-67325635D01*
X140146496Y-67266739D01*
X140352734Y-67170568D01*
X140539139Y-67040047D01*
X140700047Y-66879139D01*
X140830568Y-66692734D01*
X140926739Y-66486496D01*
X140985635Y-66266692D01*
X141005468Y-66040000D01*
X140985635Y-65813308D01*
X140926739Y-65593504D01*
X140830568Y-65387266D01*
X140700047Y-65200861D01*
X140696942Y-65196426D01*
X140698704Y-65195192D01*
X140674419Y-65139678D01*
X140685469Y-65070688D01*
X140732065Y-65018624D01*
X140797424Y-65000000D01*
X148762576Y-65000000D01*
X148829615Y-65019685D01*
X148875370Y-65072489D01*
X148885314Y-65141647D01*
X148861357Y-65195235D01*
X148863058Y-65196426D01*
X148729432Y-65387265D01*
X148729431Y-65387267D01*
X148633261Y-65593502D01*
X148633258Y-65593511D01*
X148574366Y-65813302D01*
X148574364Y-65813313D01*
X148554532Y-66039998D01*
X148554532Y-66040001D01*
X148574364Y-66266686D01*
X148574366Y-66266697D01*
X148633258Y-66486488D01*
X148633261Y-66486497D01*
X148729431Y-66692732D01*
X148729432Y-66692734D01*
X148837075Y-66846465D01*
X148859402Y-66912671D01*
X148859500Y-66917588D01*
X148859500Y-69684933D01*
X148839815Y-69751972D01*
X148787011Y-69797727D01*
X148717853Y-69807671D01*
X148654297Y-69778646D01*
X148616523Y-69719868D01*
X148611972Y-69695740D01*
X148605635Y-69623313D01*
X148605635Y-69623308D01*
X148546739Y-69403504D01*
X148450568Y-69197266D01*
X148320047Y-69010861D01*
X148320045Y-69010858D01*
X148159141Y-68849954D01*
X147972734Y-68719432D01*
X147972732Y-68719431D01*
X147766497Y-68623261D01*
X147766488Y-68623258D01*
X147546697Y-68564366D01*
X147546693Y-68564365D01*
X147546692Y-68564365D01*
X147546691Y-68564364D01*
X147546686Y-68564364D01*
X147320002Y-68544532D01*
X147319998Y-68544532D01*
X147093313Y-68564364D01*
X147093302Y-68564366D01*
X146873511Y-68623258D01*
X146873502Y-68623261D01*
X146667267Y-68719431D01*
X146667265Y-68719432D01*
X146480858Y-68849954D01*
X146319954Y-69010858D01*
X146189432Y-69197265D01*
X146189431Y-69197267D01*
X146093261Y-69403502D01*
X146093258Y-69403511D01*
X146034366Y-69623302D01*
X146034364Y-69623313D01*
X146014532Y-69849998D01*
X146014532Y-69850001D01*
X146034364Y-70076686D01*
X146034366Y-70076697D01*
X146093258Y-70296488D01*
X146093261Y-70296497D01*
X146189431Y-70502732D01*
X146189432Y-70502734D01*
X146319954Y-70689141D01*
X146480858Y-70850045D01*
X146480861Y-70850047D01*
X146667266Y-70980568D01*
X146873504Y-71076739D01*
X147093308Y-71135635D01*
X147255230Y-71149801D01*
X147319998Y-71155468D01*
X147320000Y-71155468D01*
X147320002Y-71155468D01*
X147376673Y-71150509D01*
X147546692Y-71135635D01*
X147766496Y-71076739D01*
X147972734Y-70980568D01*
X148159139Y-70850047D01*
X148320047Y-70689139D01*
X148450568Y-70502734D01*
X148546739Y-70296496D01*
X148605635Y-70076692D01*
X148611972Y-70004258D01*
X148637424Y-69939190D01*
X148694015Y-69898211D01*
X148763777Y-69894333D01*
X148824561Y-69928787D01*
X148857069Y-69990634D01*
X148859500Y-70015066D01*
X148859500Y-72640621D01*
X148839815Y-72707660D01*
X148826730Y-72724603D01*
X148751022Y-72806844D01*
X148751020Y-72806846D01*
X148624075Y-73001151D01*
X148530842Y-73213699D01*
X148473866Y-73438691D01*
X148473864Y-73438702D01*
X148454700Y-73669993D01*
X148454700Y-73670006D01*
X148473864Y-73901297D01*
X148473866Y-73901308D01*
X148530842Y-74126300D01*
X148624075Y-74338848D01*
X148751018Y-74533150D01*
X148846167Y-74636510D01*
X148877089Y-74699164D01*
X148869228Y-74768590D01*
X148825081Y-74822746D01*
X148798271Y-74836674D01*
X148717911Y-74866646D01*
X148717906Y-74866649D01*
X148602812Y-74952809D01*
X148602809Y-74952812D01*
X148516649Y-75067906D01*
X148516645Y-75067913D01*
X148466403Y-75202620D01*
X148466401Y-75202627D01*
X148460000Y-75262155D01*
X148460000Y-75710000D01*
X151260000Y-75710000D01*
X151260000Y-75262172D01*
X151259999Y-75262155D01*
X151253598Y-75202627D01*
X151253596Y-75202620D01*
X151203354Y-75067913D01*
X151203350Y-75067906D01*
X151117190Y-74952812D01*
X151117187Y-74952809D01*
X151002093Y-74866649D01*
X151002086Y-74866645D01*
X150921729Y-74836674D01*
X150865795Y-74794803D01*
X150841378Y-74729338D01*
X150856230Y-74661065D01*
X150873826Y-74636516D01*
X150968979Y-74533153D01*
X151095924Y-74338849D01*
X151189157Y-74126300D01*
X151246134Y-73901305D01*
X151246240Y-73900031D01*
X151265300Y-73670006D01*
X156074700Y-73670006D01*
X156093864Y-73901297D01*
X156093866Y-73901308D01*
X156150842Y-74126300D01*
X156244075Y-74338848D01*
X156371018Y-74533150D01*
X156466167Y-74636510D01*
X156497089Y-74699164D01*
X156489228Y-74768590D01*
X156445081Y-74822746D01*
X156418271Y-74836674D01*
X156337911Y-74866646D01*
X156337906Y-74866649D01*
X156222812Y-74952809D01*
X156222809Y-74952812D01*
X156136649Y-75067906D01*
X156136645Y-75067913D01*
X156086403Y-75202620D01*
X156086401Y-75202627D01*
X156080000Y-75262155D01*
X156080000Y-75710000D01*
X158880000Y-75710000D01*
X158880000Y-75262172D01*
X158879999Y-75262155D01*
X158873598Y-75202627D01*
X158873596Y-75202620D01*
X158823354Y-75067913D01*
X158823350Y-75067906D01*
X158737190Y-74952812D01*
X158737187Y-74952809D01*
X158622093Y-74866649D01*
X158622086Y-74866645D01*
X158541729Y-74836674D01*
X158485795Y-74794803D01*
X158461378Y-74729338D01*
X158476230Y-74661065D01*
X158493826Y-74636516D01*
X158588979Y-74533153D01*
X158715924Y-74338849D01*
X158809157Y-74126300D01*
X158866134Y-73901305D01*
X158866240Y-73900031D01*
X158885300Y-73670006D01*
X158885300Y-73669993D01*
X158866135Y-73438702D01*
X158866133Y-73438691D01*
X158809157Y-73213699D01*
X158715924Y-73001151D01*
X158588983Y-72806852D01*
X158588980Y-72806849D01*
X158588979Y-72806847D01*
X158431784Y-72636087D01*
X158431779Y-72636083D01*
X158431777Y-72636081D01*
X158248634Y-72493535D01*
X158248628Y-72493531D01*
X158044504Y-72383064D01*
X158044495Y-72383061D01*
X157824984Y-72307702D01*
X157653282Y-72279050D01*
X157596049Y-72269500D01*
X157363951Y-72269500D01*
X157318164Y-72277140D01*
X157135015Y-72307702D01*
X156915504Y-72383061D01*
X156915495Y-72383064D01*
X156711371Y-72493531D01*
X156711365Y-72493535D01*
X156528222Y-72636081D01*
X156528219Y-72636084D01*
X156528216Y-72636086D01*
X156528216Y-72636087D01*
X156485648Y-72682328D01*
X156371016Y-72806852D01*
X156244075Y-73001151D01*
X156150842Y-73213699D01*
X156093866Y-73438691D01*
X156093864Y-73438702D01*
X156074700Y-73669993D01*
X156074700Y-73670006D01*
X151265300Y-73670006D01*
X151265300Y-73669993D01*
X151246135Y-73438702D01*
X151246133Y-73438691D01*
X151189157Y-73213699D01*
X151095924Y-73001151D01*
X150968979Y-72806846D01*
X150968977Y-72806844D01*
X150893270Y-72724603D01*
X150862348Y-72661948D01*
X150860500Y-72640621D01*
X150860500Y-69850001D01*
X156174532Y-69850001D01*
X156194364Y-70076686D01*
X156194366Y-70076697D01*
X156253258Y-70296488D01*
X156253261Y-70296497D01*
X156349431Y-70502732D01*
X156349432Y-70502734D01*
X156479954Y-70689141D01*
X156640858Y-70850045D01*
X156640861Y-70850047D01*
X156827266Y-70980568D01*
X157033504Y-71076739D01*
X157253308Y-71135635D01*
X157415230Y-71149801D01*
X157479998Y-71155468D01*
X157480000Y-71155468D01*
X157480002Y-71155468D01*
X157536673Y-71150509D01*
X157706692Y-71135635D01*
X157926496Y-71076739D01*
X158132734Y-70980568D01*
X158319139Y-70850047D01*
X158480047Y-70689139D01*
X158610568Y-70502734D01*
X158706739Y-70296496D01*
X158765635Y-70076692D01*
X158785468Y-69850000D01*
X158765635Y-69623308D01*
X158706739Y-69403504D01*
X158610568Y-69197266D01*
X158480047Y-69010861D01*
X158480045Y-69010858D01*
X158319141Y-68849954D01*
X158132734Y-68719432D01*
X158132732Y-68719431D01*
X157926497Y-68623261D01*
X157926488Y-68623258D01*
X157706697Y-68564366D01*
X157706693Y-68564365D01*
X157706692Y-68564365D01*
X157706691Y-68564364D01*
X157706686Y-68564364D01*
X157480002Y-68544532D01*
X157479998Y-68544532D01*
X157253313Y-68564364D01*
X157253302Y-68564366D01*
X157033511Y-68623258D01*
X157033502Y-68623261D01*
X156827267Y-68719431D01*
X156827265Y-68719432D01*
X156640858Y-68849954D01*
X156479954Y-69010858D01*
X156349432Y-69197265D01*
X156349431Y-69197267D01*
X156253261Y-69403502D01*
X156253258Y-69403511D01*
X156194366Y-69623302D01*
X156194364Y-69623313D01*
X156174532Y-69849998D01*
X156174532Y-69850001D01*
X150860500Y-69850001D01*
X150860500Y-66917588D01*
X150880185Y-66850549D01*
X150882925Y-66846465D01*
X150990568Y-66692734D01*
X151086739Y-66486496D01*
X151145635Y-66266692D01*
X151165468Y-66040000D01*
X151145635Y-65813308D01*
X151086739Y-65593504D01*
X150990568Y-65387266D01*
X150860047Y-65200861D01*
X150856942Y-65196426D01*
X150858704Y-65195192D01*
X150834419Y-65139678D01*
X150845469Y-65070688D01*
X150892065Y-65018624D01*
X150957424Y-65000000D01*
X153842576Y-65000000D01*
X153909615Y-65019685D01*
X153955370Y-65072489D01*
X153965314Y-65141647D01*
X153941357Y-65195235D01*
X153943058Y-65196426D01*
X153809432Y-65387265D01*
X153809431Y-65387267D01*
X153713261Y-65593502D01*
X153713258Y-65593511D01*
X153654366Y-65813302D01*
X153654364Y-65813313D01*
X153634532Y-66039998D01*
X153634532Y-66040001D01*
X153654364Y-66266686D01*
X153654366Y-66266697D01*
X153713258Y-66486488D01*
X153713261Y-66486497D01*
X153809431Y-66692732D01*
X153809432Y-66692734D01*
X153939954Y-66879141D01*
X154100858Y-67040045D01*
X154100861Y-67040047D01*
X154287266Y-67170568D01*
X154493504Y-67266739D01*
X154713308Y-67325635D01*
X154875230Y-67339801D01*
X154939998Y-67345468D01*
X154940000Y-67345468D01*
X154940002Y-67345468D01*
X154996673Y-67340509D01*
X155166692Y-67325635D01*
X155386496Y-67266739D01*
X155592734Y-67170568D01*
X155779139Y-67040047D01*
X155940047Y-66879139D01*
X156070568Y-66692734D01*
X156166739Y-66486496D01*
X156225635Y-66266692D01*
X156245468Y-66040000D01*
X156225635Y-65813308D01*
X156166739Y-65593504D01*
X156070568Y-65387266D01*
X155940047Y-65200861D01*
X155936942Y-65196426D01*
X155938704Y-65195192D01*
X155914419Y-65139678D01*
X155925469Y-65070688D01*
X155972065Y-65018624D01*
X156037424Y-65000000D01*
X164002576Y-65000000D01*
X164069615Y-65019685D01*
X164115370Y-65072489D01*
X164125314Y-65141647D01*
X164101357Y-65195235D01*
X164103058Y-65196426D01*
X163969432Y-65387265D01*
X163969431Y-65387267D01*
X163873261Y-65593502D01*
X163873258Y-65593511D01*
X163814366Y-65813302D01*
X163814364Y-65813313D01*
X163794532Y-66039998D01*
X163794532Y-66040001D01*
X163814364Y-66266686D01*
X163814366Y-66266697D01*
X163873258Y-66486488D01*
X163873261Y-66486497D01*
X163969431Y-66692732D01*
X163969432Y-66692734D01*
X164077075Y-66846465D01*
X164099402Y-66912671D01*
X164099500Y-66917588D01*
X164099500Y-69684933D01*
X164079815Y-69751972D01*
X164027011Y-69797727D01*
X163957853Y-69807671D01*
X163894297Y-69778646D01*
X163856523Y-69719868D01*
X163851972Y-69695740D01*
X163845635Y-69623313D01*
X163845635Y-69623308D01*
X163786739Y-69403504D01*
X163690568Y-69197266D01*
X163560047Y-69010861D01*
X163560045Y-69010858D01*
X163399141Y-68849954D01*
X163212734Y-68719432D01*
X163212732Y-68719431D01*
X163006497Y-68623261D01*
X163006488Y-68623258D01*
X162786697Y-68564366D01*
X162786693Y-68564365D01*
X162786692Y-68564365D01*
X162786691Y-68564364D01*
X162786686Y-68564364D01*
X162560002Y-68544532D01*
X162559998Y-68544532D01*
X162333313Y-68564364D01*
X162333302Y-68564366D01*
X162113511Y-68623258D01*
X162113502Y-68623261D01*
X161907267Y-68719431D01*
X161907265Y-68719432D01*
X161720858Y-68849954D01*
X161559954Y-69010858D01*
X161429432Y-69197265D01*
X161429431Y-69197267D01*
X161333261Y-69403502D01*
X161333258Y-69403511D01*
X161274366Y-69623302D01*
X161274364Y-69623313D01*
X161254532Y-69849998D01*
X161254532Y-69850001D01*
X161274364Y-70076686D01*
X161274366Y-70076697D01*
X161333258Y-70296488D01*
X161333261Y-70296497D01*
X161429431Y-70502732D01*
X161429432Y-70502734D01*
X161559954Y-70689141D01*
X161720858Y-70850045D01*
X161720861Y-70850047D01*
X161907266Y-70980568D01*
X162113504Y-71076739D01*
X162333308Y-71135635D01*
X162495230Y-71149801D01*
X162559998Y-71155468D01*
X162560000Y-71155468D01*
X162560002Y-71155468D01*
X162616673Y-71150509D01*
X162786692Y-71135635D01*
X163006496Y-71076739D01*
X163212734Y-70980568D01*
X163399139Y-70850047D01*
X163560047Y-70689139D01*
X163690568Y-70502734D01*
X163786739Y-70296496D01*
X163845635Y-70076692D01*
X163851972Y-70004258D01*
X163877424Y-69939190D01*
X163934015Y-69898211D01*
X164003777Y-69894333D01*
X164064561Y-69928787D01*
X164097069Y-69990634D01*
X164099500Y-70015066D01*
X164099500Y-72640621D01*
X164079815Y-72707660D01*
X164066730Y-72724603D01*
X163991022Y-72806844D01*
X163991020Y-72806846D01*
X163864075Y-73001151D01*
X163770842Y-73213699D01*
X163713866Y-73438691D01*
X163713864Y-73438702D01*
X163694700Y-73669993D01*
X163694700Y-73670006D01*
X163713864Y-73901297D01*
X163713866Y-73901308D01*
X163770842Y-74126300D01*
X163864075Y-74338848D01*
X163991018Y-74533150D01*
X164086167Y-74636510D01*
X164117089Y-74699164D01*
X164109228Y-74768590D01*
X164065081Y-74822746D01*
X164038271Y-74836674D01*
X163957911Y-74866646D01*
X163957906Y-74866649D01*
X163842812Y-74952809D01*
X163842809Y-74952812D01*
X163756649Y-75067906D01*
X163756645Y-75067913D01*
X163706403Y-75202620D01*
X163706401Y-75202627D01*
X163700000Y-75262155D01*
X163700000Y-75710000D01*
X166500000Y-75710000D01*
X166500000Y-75262172D01*
X166499999Y-75262155D01*
X166493598Y-75202627D01*
X166493596Y-75202620D01*
X166443354Y-75067913D01*
X166443350Y-75067906D01*
X166357190Y-74952812D01*
X166357187Y-74952809D01*
X166242093Y-74866649D01*
X166242086Y-74866645D01*
X166161729Y-74836674D01*
X166105795Y-74794803D01*
X166081378Y-74729338D01*
X166096230Y-74661065D01*
X166113826Y-74636516D01*
X166208979Y-74533153D01*
X166335924Y-74338849D01*
X166429157Y-74126300D01*
X166486134Y-73901305D01*
X166486240Y-73900031D01*
X166505300Y-73670006D01*
X171314700Y-73670006D01*
X171333864Y-73901297D01*
X171333866Y-73901308D01*
X171390842Y-74126300D01*
X171484075Y-74338848D01*
X171611018Y-74533150D01*
X171706167Y-74636510D01*
X171737089Y-74699164D01*
X171729228Y-74768590D01*
X171685081Y-74822746D01*
X171658271Y-74836674D01*
X171577911Y-74866646D01*
X171577906Y-74866649D01*
X171462812Y-74952809D01*
X171462809Y-74952812D01*
X171376649Y-75067906D01*
X171376645Y-75067913D01*
X171326403Y-75202620D01*
X171326401Y-75202627D01*
X171320000Y-75262155D01*
X171320000Y-75710000D01*
X174120000Y-75710000D01*
X174120000Y-75262172D01*
X174119999Y-75262155D01*
X174113598Y-75202627D01*
X174113596Y-75202620D01*
X174063354Y-75067913D01*
X174063350Y-75067906D01*
X173977190Y-74952812D01*
X173977187Y-74952809D01*
X173862093Y-74866649D01*
X173862086Y-74866645D01*
X173781729Y-74836674D01*
X173725795Y-74794803D01*
X173701378Y-74729338D01*
X173716230Y-74661065D01*
X173733826Y-74636516D01*
X173828979Y-74533153D01*
X173955924Y-74338849D01*
X174049157Y-74126300D01*
X174106134Y-73901305D01*
X174106240Y-73900031D01*
X174125300Y-73670006D01*
X174125300Y-73669993D01*
X174106135Y-73438702D01*
X174106133Y-73438691D01*
X174049157Y-73213699D01*
X173955924Y-73001151D01*
X173828983Y-72806852D01*
X173828980Y-72806849D01*
X173828979Y-72806847D01*
X173671784Y-72636087D01*
X173671779Y-72636083D01*
X173671777Y-72636081D01*
X173488634Y-72493535D01*
X173488628Y-72493531D01*
X173284504Y-72383064D01*
X173284495Y-72383061D01*
X173064984Y-72307702D01*
X172893282Y-72279050D01*
X172836049Y-72269500D01*
X172603951Y-72269500D01*
X172558164Y-72277140D01*
X172375015Y-72307702D01*
X172155504Y-72383061D01*
X172155495Y-72383064D01*
X171951371Y-72493531D01*
X171951365Y-72493535D01*
X171768222Y-72636081D01*
X171768219Y-72636084D01*
X171768216Y-72636086D01*
X171768216Y-72636087D01*
X171725648Y-72682328D01*
X171611016Y-72806852D01*
X171484075Y-73001151D01*
X171390842Y-73213699D01*
X171333866Y-73438691D01*
X171333864Y-73438702D01*
X171314700Y-73669993D01*
X171314700Y-73670006D01*
X166505300Y-73670006D01*
X166505300Y-73669993D01*
X166486135Y-73438702D01*
X166486133Y-73438691D01*
X166429157Y-73213699D01*
X166335924Y-73001151D01*
X166208979Y-72806846D01*
X166208977Y-72806844D01*
X166133270Y-72724603D01*
X166102348Y-72661948D01*
X166100500Y-72640621D01*
X166100500Y-69850001D01*
X171414532Y-69850001D01*
X171434364Y-70076686D01*
X171434366Y-70076697D01*
X171493258Y-70296488D01*
X171493261Y-70296497D01*
X171589431Y-70502732D01*
X171589432Y-70502734D01*
X171719954Y-70689141D01*
X171880858Y-70850045D01*
X171880861Y-70850047D01*
X172067266Y-70980568D01*
X172273504Y-71076739D01*
X172493308Y-71135635D01*
X172655230Y-71149801D01*
X172719998Y-71155468D01*
X172720000Y-71155468D01*
X172720002Y-71155468D01*
X172776673Y-71150509D01*
X172946692Y-71135635D01*
X173166496Y-71076739D01*
X173372734Y-70980568D01*
X173559139Y-70850047D01*
X173720047Y-70689139D01*
X173850568Y-70502734D01*
X173946739Y-70296496D01*
X174005635Y-70076692D01*
X174025468Y-69850000D01*
X174005635Y-69623308D01*
X173946739Y-69403504D01*
X173850568Y-69197266D01*
X173720047Y-69010861D01*
X173720045Y-69010858D01*
X173559141Y-68849954D01*
X173372734Y-68719432D01*
X173372732Y-68719431D01*
X173166497Y-68623261D01*
X173166488Y-68623258D01*
X172946697Y-68564366D01*
X172946693Y-68564365D01*
X172946692Y-68564365D01*
X172946691Y-68564364D01*
X172946686Y-68564364D01*
X172720002Y-68544532D01*
X172719998Y-68544532D01*
X172493313Y-68564364D01*
X172493302Y-68564366D01*
X172273511Y-68623258D01*
X172273502Y-68623261D01*
X172067267Y-68719431D01*
X172067265Y-68719432D01*
X171880858Y-68849954D01*
X171719954Y-69010858D01*
X171589432Y-69197265D01*
X171589431Y-69197267D01*
X171493261Y-69403502D01*
X171493258Y-69403511D01*
X171434366Y-69623302D01*
X171434364Y-69623313D01*
X171414532Y-69849998D01*
X171414532Y-69850001D01*
X166100500Y-69850001D01*
X166100500Y-66917588D01*
X166120185Y-66850549D01*
X166122925Y-66846465D01*
X166230568Y-66692734D01*
X166326739Y-66486496D01*
X166385635Y-66266692D01*
X166405468Y-66040000D01*
X166385635Y-65813308D01*
X166326739Y-65593504D01*
X166230568Y-65387266D01*
X166100047Y-65200861D01*
X166096942Y-65196426D01*
X166098704Y-65195192D01*
X166074419Y-65139678D01*
X166085469Y-65070688D01*
X166132065Y-65018624D01*
X166197424Y-65000000D01*
X169082576Y-65000000D01*
X169149615Y-65019685D01*
X169195370Y-65072489D01*
X169205314Y-65141647D01*
X169181357Y-65195235D01*
X169183058Y-65196426D01*
X169049432Y-65387265D01*
X169049431Y-65387267D01*
X168953261Y-65593502D01*
X168953258Y-65593511D01*
X168894366Y-65813302D01*
X168894364Y-65813313D01*
X168874532Y-66039998D01*
X168874532Y-66040001D01*
X168894364Y-66266686D01*
X168894366Y-66266697D01*
X168953258Y-66486488D01*
X168953261Y-66486497D01*
X169049431Y-66692732D01*
X169049432Y-66692734D01*
X169179954Y-66879141D01*
X169340858Y-67040045D01*
X169340861Y-67040047D01*
X169527266Y-67170568D01*
X169733504Y-67266739D01*
X169953308Y-67325635D01*
X170115230Y-67339801D01*
X170179998Y-67345468D01*
X170180000Y-67345468D01*
X170180002Y-67345468D01*
X170236673Y-67340509D01*
X170406692Y-67325635D01*
X170626496Y-67266739D01*
X170832734Y-67170568D01*
X171019139Y-67040047D01*
X171180047Y-66879139D01*
X171310568Y-66692734D01*
X171406739Y-66486496D01*
X171465635Y-66266692D01*
X171485468Y-66040000D01*
X171465635Y-65813308D01*
X171406739Y-65593504D01*
X171310568Y-65387266D01*
X171180047Y-65200861D01*
X171176942Y-65196426D01*
X171178704Y-65195192D01*
X171154419Y-65139678D01*
X171165469Y-65070688D01*
X171212065Y-65018624D01*
X171277424Y-65000000D01*
X179242576Y-65000000D01*
X179309615Y-65019685D01*
X179355370Y-65072489D01*
X179365314Y-65141647D01*
X179341357Y-65195235D01*
X179343058Y-65196426D01*
X179209432Y-65387265D01*
X179209431Y-65387267D01*
X179113261Y-65593502D01*
X179113258Y-65593511D01*
X179054366Y-65813302D01*
X179054364Y-65813313D01*
X179034532Y-66039998D01*
X179034532Y-66040001D01*
X179054364Y-66266686D01*
X179054366Y-66266697D01*
X179113258Y-66486488D01*
X179113261Y-66486497D01*
X179209431Y-66692732D01*
X179209432Y-66692734D01*
X179317075Y-66846465D01*
X179339402Y-66912671D01*
X179339500Y-66917588D01*
X179339500Y-69684933D01*
X179319815Y-69751972D01*
X179267011Y-69797727D01*
X179197853Y-69807671D01*
X179134297Y-69778646D01*
X179096523Y-69719868D01*
X179091972Y-69695740D01*
X179085635Y-69623313D01*
X179085635Y-69623308D01*
X179026739Y-69403504D01*
X178930568Y-69197266D01*
X178800047Y-69010861D01*
X178800045Y-69010858D01*
X178639141Y-68849954D01*
X178452734Y-68719432D01*
X178452732Y-68719431D01*
X178246497Y-68623261D01*
X178246488Y-68623258D01*
X178026697Y-68564366D01*
X178026693Y-68564365D01*
X178026692Y-68564365D01*
X178026691Y-68564364D01*
X178026686Y-68564364D01*
X177800002Y-68544532D01*
X177799998Y-68544532D01*
X177573313Y-68564364D01*
X177573302Y-68564366D01*
X177353511Y-68623258D01*
X177353502Y-68623261D01*
X177147267Y-68719431D01*
X177147265Y-68719432D01*
X176960858Y-68849954D01*
X176799954Y-69010858D01*
X176669432Y-69197265D01*
X176669431Y-69197267D01*
X176573261Y-69403502D01*
X176573258Y-69403511D01*
X176514366Y-69623302D01*
X176514364Y-69623313D01*
X176494532Y-69849998D01*
X176494532Y-69850001D01*
X176514364Y-70076686D01*
X176514366Y-70076697D01*
X176573258Y-70296488D01*
X176573261Y-70296497D01*
X176669431Y-70502732D01*
X176669432Y-70502734D01*
X176799954Y-70689141D01*
X176960858Y-70850045D01*
X176960861Y-70850047D01*
X177147266Y-70980568D01*
X177353504Y-71076739D01*
X177573308Y-71135635D01*
X177735230Y-71149801D01*
X177799998Y-71155468D01*
X177800000Y-71155468D01*
X177800002Y-71155468D01*
X177856673Y-71150509D01*
X178026692Y-71135635D01*
X178246496Y-71076739D01*
X178452734Y-70980568D01*
X178639139Y-70850047D01*
X178800047Y-70689139D01*
X178930568Y-70502734D01*
X179026739Y-70296496D01*
X179085635Y-70076692D01*
X179091972Y-70004258D01*
X179117424Y-69939190D01*
X179174015Y-69898211D01*
X179243777Y-69894333D01*
X179304561Y-69928787D01*
X179337069Y-69990634D01*
X179339500Y-70015066D01*
X179339500Y-72640621D01*
X179319815Y-72707660D01*
X179306730Y-72724603D01*
X179231022Y-72806844D01*
X179231020Y-72806846D01*
X179104075Y-73001151D01*
X179010842Y-73213699D01*
X178953866Y-73438691D01*
X178953864Y-73438702D01*
X178934700Y-73669993D01*
X178934700Y-73670006D01*
X178953864Y-73901297D01*
X178953866Y-73901308D01*
X179010842Y-74126300D01*
X179104075Y-74338848D01*
X179231018Y-74533150D01*
X179326167Y-74636510D01*
X179357089Y-74699164D01*
X179349228Y-74768590D01*
X179305081Y-74822746D01*
X179278271Y-74836674D01*
X179197911Y-74866646D01*
X179197906Y-74866649D01*
X179082812Y-74952809D01*
X179082809Y-74952812D01*
X178996649Y-75067906D01*
X178996645Y-75067913D01*
X178946403Y-75202620D01*
X178946401Y-75202627D01*
X178940000Y-75262155D01*
X178940000Y-75710000D01*
X181740000Y-75710000D01*
X181740000Y-75262172D01*
X181739999Y-75262155D01*
X181733598Y-75202627D01*
X181733596Y-75202620D01*
X181683354Y-75067913D01*
X181683350Y-75067906D01*
X181597190Y-74952812D01*
X181597187Y-74952809D01*
X181482093Y-74866649D01*
X181482086Y-74866645D01*
X181401729Y-74836674D01*
X181345795Y-74794803D01*
X181321378Y-74729338D01*
X181336230Y-74661065D01*
X181353826Y-74636516D01*
X181448979Y-74533153D01*
X181575924Y-74338849D01*
X181669157Y-74126300D01*
X181726134Y-73901305D01*
X181726240Y-73900031D01*
X181745300Y-73670006D01*
X186554700Y-73670006D01*
X186573864Y-73901297D01*
X186573866Y-73901308D01*
X186630842Y-74126300D01*
X186724075Y-74338848D01*
X186851018Y-74533150D01*
X186946167Y-74636510D01*
X186977089Y-74699164D01*
X186969228Y-74768590D01*
X186925081Y-74822746D01*
X186898271Y-74836674D01*
X186817911Y-74866646D01*
X186817906Y-74866649D01*
X186702812Y-74952809D01*
X186702809Y-74952812D01*
X186616649Y-75067906D01*
X186616645Y-75067913D01*
X186566403Y-75202620D01*
X186566401Y-75202627D01*
X186560000Y-75262155D01*
X186560000Y-75710000D01*
X189360000Y-75710000D01*
X189360000Y-75262172D01*
X189359999Y-75262155D01*
X189353598Y-75202627D01*
X189353596Y-75202620D01*
X189330242Y-75140005D01*
X192470457Y-75140005D01*
X192490606Y-75460283D01*
X192490607Y-75460290D01*
X192550745Y-75775542D01*
X192649916Y-76080759D01*
X192649918Y-76080764D01*
X192786558Y-76371138D01*
X192786562Y-76371144D01*
X192958520Y-76642108D01*
X192958522Y-76642111D01*
X193014685Y-76710000D01*
X193163089Y-76889390D01*
X193344025Y-77059299D01*
X193397034Y-77109078D01*
X193397044Y-77109086D01*
X193656660Y-77297708D01*
X193656666Y-77297711D01*
X193656672Y-77297716D01*
X193937903Y-77452324D01*
X194236294Y-77570466D01*
X194236293Y-77570466D01*
X194547135Y-77650276D01*
X194547139Y-77650277D01*
X194613935Y-77658715D01*
X194865524Y-77690499D01*
X194865533Y-77690499D01*
X194865536Y-77690500D01*
X194865538Y-77690500D01*
X195186462Y-77690500D01*
X195186464Y-77690500D01*
X195186467Y-77690499D01*
X195186475Y-77690499D01*
X195376463Y-77666497D01*
X195504861Y-77650277D01*
X195815706Y-77570466D01*
X196114097Y-77452324D01*
X196395328Y-77297716D01*
X196654964Y-77109080D01*
X196888911Y-76889390D01*
X197093478Y-76642110D01*
X197265439Y-76371142D01*
X197402084Y-76080758D01*
X197501256Y-75775538D01*
X197561392Y-75460294D01*
X197561393Y-75460283D01*
X197581543Y-75140005D01*
X197581543Y-75139994D01*
X197561393Y-74819716D01*
X197561392Y-74819709D01*
X197561392Y-74819706D01*
X197501256Y-74504462D01*
X197402084Y-74199242D01*
X197329378Y-74044734D01*
X197265441Y-73908861D01*
X197265437Y-73908855D01*
X197259843Y-73900041D01*
X197190010Y-73790000D01*
X197093479Y-73637891D01*
X197093477Y-73637888D01*
X196888912Y-73390611D01*
X196707975Y-73220700D01*
X196654964Y-73170920D01*
X196654961Y-73170918D01*
X196654955Y-73170913D01*
X196395339Y-72982291D01*
X196395321Y-72982280D01*
X196114096Y-72827675D01*
X196114093Y-72827674D01*
X195908424Y-72746244D01*
X195815706Y-72709534D01*
X195815704Y-72709533D01*
X195815706Y-72709533D01*
X195504864Y-72629723D01*
X195504851Y-72629721D01*
X195186475Y-72589500D01*
X195186464Y-72589500D01*
X194865536Y-72589500D01*
X194865524Y-72589500D01*
X194547148Y-72629721D01*
X194547135Y-72629723D01*
X194236294Y-72709533D01*
X193937906Y-72827674D01*
X193937903Y-72827675D01*
X193656678Y-72982280D01*
X193656660Y-72982291D01*
X193397044Y-73170913D01*
X193397034Y-73170921D01*
X193163087Y-73390611D01*
X192958522Y-73637888D01*
X192958520Y-73637891D01*
X192786562Y-73908855D01*
X192786558Y-73908861D01*
X192649918Y-74199235D01*
X192649916Y-74199240D01*
X192550745Y-74504457D01*
X192490607Y-74819709D01*
X192490606Y-74819716D01*
X192470457Y-75139994D01*
X192470457Y-75140005D01*
X189330242Y-75140005D01*
X189303354Y-75067913D01*
X189303350Y-75067906D01*
X189217190Y-74952812D01*
X189217187Y-74952809D01*
X189102093Y-74866649D01*
X189102086Y-74866645D01*
X189021729Y-74836674D01*
X188965795Y-74794803D01*
X188941378Y-74729338D01*
X188956230Y-74661065D01*
X188973826Y-74636516D01*
X189068979Y-74533153D01*
X189195924Y-74338849D01*
X189289157Y-74126300D01*
X189346134Y-73901305D01*
X189346240Y-73900031D01*
X189365300Y-73670006D01*
X189365300Y-73669993D01*
X189346135Y-73438702D01*
X189346133Y-73438691D01*
X189289157Y-73213699D01*
X189195924Y-73001151D01*
X189068983Y-72806852D01*
X189068980Y-72806849D01*
X189068979Y-72806847D01*
X188911784Y-72636087D01*
X188911779Y-72636083D01*
X188911777Y-72636081D01*
X188728634Y-72493535D01*
X188728628Y-72493531D01*
X188718167Y-72487870D01*
X199525500Y-72487870D01*
X199525501Y-72487876D01*
X199531908Y-72547483D01*
X199582202Y-72682328D01*
X199582206Y-72682335D01*
X199668452Y-72797544D01*
X199668455Y-72797547D01*
X199783664Y-72883793D01*
X199783671Y-72883797D01*
X199918517Y-72934091D01*
X199918516Y-72934091D01*
X199925444Y-72934835D01*
X199978127Y-72940500D01*
X202073872Y-72940499D01*
X202133483Y-72934091D01*
X202268331Y-72883796D01*
X202383546Y-72797546D01*
X202469796Y-72682331D01*
X202520091Y-72547483D01*
X202526500Y-72487873D01*
X202526499Y-71492128D01*
X202520091Y-71432517D01*
X202469796Y-71297669D01*
X202469795Y-71297668D01*
X202469793Y-71297664D01*
X202383547Y-71182455D01*
X202383544Y-71182452D01*
X202268335Y-71096206D01*
X202268328Y-71096202D01*
X202133482Y-71045908D01*
X202133483Y-71045908D01*
X202073883Y-71039501D01*
X202073881Y-71039500D01*
X202073873Y-71039500D01*
X202073864Y-71039500D01*
X199978129Y-71039500D01*
X199978123Y-71039501D01*
X199918516Y-71045908D01*
X199783671Y-71096202D01*
X199783664Y-71096206D01*
X199668455Y-71182452D01*
X199668452Y-71182455D01*
X199582206Y-71297664D01*
X199582202Y-71297671D01*
X199531908Y-71432517D01*
X199525501Y-71492116D01*
X199525501Y-71492123D01*
X199525500Y-71492135D01*
X199525500Y-72487870D01*
X188718167Y-72487870D01*
X188524504Y-72383064D01*
X188524495Y-72383061D01*
X188304984Y-72307702D01*
X188133282Y-72279050D01*
X188076049Y-72269500D01*
X187843951Y-72269500D01*
X187798164Y-72277140D01*
X187615015Y-72307702D01*
X187395504Y-72383061D01*
X187395495Y-72383064D01*
X187191371Y-72493531D01*
X187191365Y-72493535D01*
X187008222Y-72636081D01*
X187008219Y-72636084D01*
X187008216Y-72636086D01*
X187008216Y-72636087D01*
X186965648Y-72682328D01*
X186851016Y-72806852D01*
X186724075Y-73001151D01*
X186630842Y-73213699D01*
X186573866Y-73438691D01*
X186573864Y-73438702D01*
X186554700Y-73669993D01*
X186554700Y-73670006D01*
X181745300Y-73670006D01*
X181745300Y-73669993D01*
X181726135Y-73438702D01*
X181726133Y-73438691D01*
X181669157Y-73213699D01*
X181575924Y-73001151D01*
X181448979Y-72806846D01*
X181448977Y-72806844D01*
X181373270Y-72724603D01*
X181342348Y-72661948D01*
X181340500Y-72640621D01*
X181340500Y-69850001D01*
X186654532Y-69850001D01*
X186674364Y-70076686D01*
X186674366Y-70076697D01*
X186733258Y-70296488D01*
X186733261Y-70296497D01*
X186829431Y-70502732D01*
X186829432Y-70502734D01*
X186959954Y-70689141D01*
X187120858Y-70850045D01*
X187120861Y-70850047D01*
X187307266Y-70980568D01*
X187513504Y-71076739D01*
X187733308Y-71135635D01*
X187895230Y-71149801D01*
X187959998Y-71155468D01*
X187960000Y-71155468D01*
X187960002Y-71155468D01*
X188016673Y-71150509D01*
X188186692Y-71135635D01*
X188406496Y-71076739D01*
X188612734Y-70980568D01*
X188799139Y-70850047D01*
X188960047Y-70689139D01*
X189090568Y-70502734D01*
X189186739Y-70296496D01*
X189245635Y-70076692D01*
X189265468Y-69850000D01*
X189245635Y-69623308D01*
X189186739Y-69403504D01*
X189090568Y-69197266D01*
X188960047Y-69010861D01*
X188960045Y-69010858D01*
X188799141Y-68849954D01*
X188612734Y-68719432D01*
X188612732Y-68719431D01*
X188406497Y-68623261D01*
X188406488Y-68623258D01*
X188186697Y-68564366D01*
X188186693Y-68564365D01*
X188186692Y-68564365D01*
X188186691Y-68564364D01*
X188186686Y-68564364D01*
X187960002Y-68544532D01*
X187959998Y-68544532D01*
X187733313Y-68564364D01*
X187733302Y-68564366D01*
X187513511Y-68623258D01*
X187513502Y-68623261D01*
X187307267Y-68719431D01*
X187307265Y-68719432D01*
X187120858Y-68849954D01*
X186959954Y-69010858D01*
X186829432Y-69197265D01*
X186829431Y-69197267D01*
X186733261Y-69403502D01*
X186733258Y-69403511D01*
X186674366Y-69623302D01*
X186674364Y-69623313D01*
X186654532Y-69849998D01*
X186654532Y-69850001D01*
X181340500Y-69850001D01*
X181340500Y-66917588D01*
X181360185Y-66850549D01*
X181362925Y-66846465D01*
X181470568Y-66692734D01*
X181566739Y-66486496D01*
X181625635Y-66266692D01*
X181645468Y-66040000D01*
X181625635Y-65813308D01*
X181566739Y-65593504D01*
X181470568Y-65387266D01*
X181340047Y-65200861D01*
X181336942Y-65196426D01*
X181338704Y-65195192D01*
X181314419Y-65139678D01*
X181325469Y-65070688D01*
X181372065Y-65018624D01*
X181437424Y-65000000D01*
X203876000Y-65000000D01*
X203943039Y-65019685D01*
X203988794Y-65072489D01*
X204000000Y-65124000D01*
X204000000Y-92876000D01*
X203980315Y-92943039D01*
X203927511Y-92988794D01*
X203876000Y-93000000D01*
X117124000Y-93000000D01*
X117056961Y-92980315D01*
X117011206Y-92927511D01*
X117000000Y-92876000D01*
X117000000Y-91440001D01*
X123154532Y-91440001D01*
X123174364Y-91666686D01*
X123174366Y-91666697D01*
X123233258Y-91886488D01*
X123233261Y-91886497D01*
X123329431Y-92092732D01*
X123329432Y-92092734D01*
X123459954Y-92279141D01*
X123620858Y-92440045D01*
X123620861Y-92440047D01*
X123807266Y-92570568D01*
X124013504Y-92666739D01*
X124233308Y-92725635D01*
X124395230Y-92739801D01*
X124459998Y-92745468D01*
X124460000Y-92745468D01*
X124460002Y-92745468D01*
X124516673Y-92740509D01*
X124686692Y-92725635D01*
X124906496Y-92666739D01*
X125112734Y-92570568D01*
X125299139Y-92440047D01*
X125460047Y-92279139D01*
X125590568Y-92092734D01*
X125686739Y-91886496D01*
X125745635Y-91666692D01*
X125765468Y-91440001D01*
X133314532Y-91440001D01*
X133334364Y-91666686D01*
X133334366Y-91666697D01*
X133393258Y-91886488D01*
X133393261Y-91886497D01*
X133489431Y-92092732D01*
X133489432Y-92092734D01*
X133619954Y-92279141D01*
X133780858Y-92440045D01*
X133780861Y-92440047D01*
X133967266Y-92570568D01*
X134173504Y-92666739D01*
X134393308Y-92725635D01*
X134555230Y-92739801D01*
X134619998Y-92745468D01*
X134620000Y-92745468D01*
X134620002Y-92745468D01*
X134676673Y-92740509D01*
X134846692Y-92725635D01*
X135066496Y-92666739D01*
X135272734Y-92570568D01*
X135459139Y-92440047D01*
X135620047Y-92279139D01*
X135750568Y-92092734D01*
X135846739Y-91886496D01*
X135905635Y-91666692D01*
X135925468Y-91440001D01*
X138394532Y-91440001D01*
X138414364Y-91666686D01*
X138414366Y-91666697D01*
X138473258Y-91886488D01*
X138473261Y-91886497D01*
X138569431Y-92092732D01*
X138569432Y-92092734D01*
X138699954Y-92279141D01*
X138860858Y-92440045D01*
X138860861Y-92440047D01*
X139047266Y-92570568D01*
X139253504Y-92666739D01*
X139473308Y-92725635D01*
X139635230Y-92739801D01*
X139699998Y-92745468D01*
X139700000Y-92745468D01*
X139700002Y-92745468D01*
X139756673Y-92740509D01*
X139926692Y-92725635D01*
X140146496Y-92666739D01*
X140352734Y-92570568D01*
X140539139Y-92440047D01*
X140700047Y-92279139D01*
X140830568Y-92092734D01*
X140926739Y-91886496D01*
X140985635Y-91666692D01*
X141005468Y-91440001D01*
X148554532Y-91440001D01*
X148574364Y-91666686D01*
X148574366Y-91666697D01*
X148633258Y-91886488D01*
X148633261Y-91886497D01*
X148729431Y-92092732D01*
X148729432Y-92092734D01*
X148859954Y-92279141D01*
X149020858Y-92440045D01*
X149020861Y-92440047D01*
X149207266Y-92570568D01*
X149413504Y-92666739D01*
X149633308Y-92725635D01*
X149795230Y-92739801D01*
X149859998Y-92745468D01*
X149860000Y-92745468D01*
X149860002Y-92745468D01*
X149916673Y-92740509D01*
X150086692Y-92725635D01*
X150306496Y-92666739D01*
X150512734Y-92570568D01*
X150699139Y-92440047D01*
X150860047Y-92279139D01*
X150990568Y-92092734D01*
X151086739Y-91886496D01*
X151145635Y-91666692D01*
X151165468Y-91440001D01*
X153634532Y-91440001D01*
X153654364Y-91666686D01*
X153654366Y-91666697D01*
X153713258Y-91886488D01*
X153713261Y-91886497D01*
X153809431Y-92092732D01*
X153809432Y-92092734D01*
X153939954Y-92279141D01*
X154100858Y-92440045D01*
X154100861Y-92440047D01*
X154287266Y-92570568D01*
X154493504Y-92666739D01*
X154713308Y-92725635D01*
X154875230Y-92739801D01*
X154939998Y-92745468D01*
X154940000Y-92745468D01*
X154940002Y-92745468D01*
X154996673Y-92740509D01*
X155166692Y-92725635D01*
X155386496Y-92666739D01*
X155592734Y-92570568D01*
X155779139Y-92440047D01*
X155940047Y-92279139D01*
X156070568Y-92092734D01*
X156166739Y-91886496D01*
X156225635Y-91666692D01*
X156245468Y-91440001D01*
X163794532Y-91440001D01*
X163814364Y-91666686D01*
X163814366Y-91666697D01*
X163873258Y-91886488D01*
X163873261Y-91886497D01*
X163969431Y-92092732D01*
X163969432Y-92092734D01*
X164099954Y-92279141D01*
X164260858Y-92440045D01*
X164260861Y-92440047D01*
X164447266Y-92570568D01*
X164653504Y-92666739D01*
X164873308Y-92725635D01*
X165035230Y-92739801D01*
X165099998Y-92745468D01*
X165100000Y-92745468D01*
X165100002Y-92745468D01*
X165156673Y-92740509D01*
X165326692Y-92725635D01*
X165546496Y-92666739D01*
X165752734Y-92570568D01*
X165939139Y-92440047D01*
X166100047Y-92279139D01*
X166230568Y-92092734D01*
X166326739Y-91886496D01*
X166385635Y-91666692D01*
X166405468Y-91440001D01*
X168874532Y-91440001D01*
X168894364Y-91666686D01*
X168894366Y-91666697D01*
X168953258Y-91886488D01*
X168953261Y-91886497D01*
X169049431Y-92092732D01*
X169049432Y-92092734D01*
X169179954Y-92279141D01*
X169340858Y-92440045D01*
X169340861Y-92440047D01*
X169527266Y-92570568D01*
X169733504Y-92666739D01*
X169953308Y-92725635D01*
X170115230Y-92739801D01*
X170179998Y-92745468D01*
X170180000Y-92745468D01*
X170180002Y-92745468D01*
X170236673Y-92740509D01*
X170406692Y-92725635D01*
X170626496Y-92666739D01*
X170832734Y-92570568D01*
X171019139Y-92440047D01*
X171180047Y-92279139D01*
X171310568Y-92092734D01*
X171406739Y-91886496D01*
X171465635Y-91666692D01*
X171485468Y-91440001D01*
X179034532Y-91440001D01*
X179054364Y-91666686D01*
X179054366Y-91666697D01*
X179113258Y-91886488D01*
X179113261Y-91886497D01*
X179209431Y-92092732D01*
X179209432Y-92092734D01*
X179339954Y-92279141D01*
X179500858Y-92440045D01*
X179500861Y-92440047D01*
X179687266Y-92570568D01*
X179893504Y-92666739D01*
X180113308Y-92725635D01*
X180275230Y-92739801D01*
X180339998Y-92745468D01*
X180340000Y-92745468D01*
X180340002Y-92745468D01*
X180396673Y-92740509D01*
X180566692Y-92725635D01*
X180786496Y-92666739D01*
X180992734Y-92570568D01*
X181179139Y-92440047D01*
X181340047Y-92279139D01*
X181470568Y-92092734D01*
X181566739Y-91886496D01*
X181625635Y-91666692D01*
X181645468Y-91440000D01*
X181625635Y-91213308D01*
X181566739Y-90993504D01*
X181470568Y-90787266D01*
X181340047Y-90600861D01*
X181340045Y-90600858D01*
X181179141Y-90439954D01*
X180992734Y-90309432D01*
X180992732Y-90309431D01*
X180786497Y-90213261D01*
X180786488Y-90213258D01*
X180566697Y-90154366D01*
X180566693Y-90154365D01*
X180566692Y-90154365D01*
X180566691Y-90154364D01*
X180566686Y-90154364D01*
X180340002Y-90134532D01*
X180339998Y-90134532D01*
X180113313Y-90154364D01*
X180113302Y-90154366D01*
X179893511Y-90213258D01*
X179893502Y-90213261D01*
X179687267Y-90309431D01*
X179687265Y-90309432D01*
X179500858Y-90439954D01*
X179339954Y-90600858D01*
X179209432Y-90787265D01*
X179209431Y-90787267D01*
X179113261Y-90993502D01*
X179113258Y-90993511D01*
X179054366Y-91213302D01*
X179054364Y-91213313D01*
X179034532Y-91439998D01*
X179034532Y-91440001D01*
X171485468Y-91440001D01*
X171485468Y-91440000D01*
X171465635Y-91213308D01*
X171406739Y-90993504D01*
X171310568Y-90787266D01*
X171180047Y-90600861D01*
X171180045Y-90600858D01*
X171019141Y-90439954D01*
X170832734Y-90309432D01*
X170832732Y-90309431D01*
X170626497Y-90213261D01*
X170626488Y-90213258D01*
X170406697Y-90154366D01*
X170406693Y-90154365D01*
X170406692Y-90154365D01*
X170406691Y-90154364D01*
X170406686Y-90154364D01*
X170180002Y-90134532D01*
X170179998Y-90134532D01*
X169953313Y-90154364D01*
X169953302Y-90154366D01*
X169733511Y-90213258D01*
X169733502Y-90213261D01*
X169527267Y-90309431D01*
X169527265Y-90309432D01*
X169340858Y-90439954D01*
X169179954Y-90600858D01*
X169049432Y-90787265D01*
X169049431Y-90787267D01*
X168953261Y-90993502D01*
X168953258Y-90993511D01*
X168894366Y-91213302D01*
X168894364Y-91213313D01*
X168874532Y-91439998D01*
X168874532Y-91440001D01*
X166405468Y-91440001D01*
X166405468Y-91440000D01*
X166385635Y-91213308D01*
X166326739Y-90993504D01*
X166230568Y-90787266D01*
X166100047Y-90600861D01*
X166100045Y-90600858D01*
X165939141Y-90439954D01*
X165752734Y-90309432D01*
X165752732Y-90309431D01*
X165546497Y-90213261D01*
X165546488Y-90213258D01*
X165326697Y-90154366D01*
X165326693Y-90154365D01*
X165326692Y-90154365D01*
X165326691Y-90154364D01*
X165326686Y-90154364D01*
X165100002Y-90134532D01*
X165099998Y-90134532D01*
X164873313Y-90154364D01*
X164873302Y-90154366D01*
X164653511Y-90213258D01*
X164653502Y-90213261D01*
X164447267Y-90309431D01*
X164447265Y-90309432D01*
X164260858Y-90439954D01*
X164099954Y-90600858D01*
X163969432Y-90787265D01*
X163969431Y-90787267D01*
X163873261Y-90993502D01*
X163873258Y-90993511D01*
X163814366Y-91213302D01*
X163814364Y-91213313D01*
X163794532Y-91439998D01*
X163794532Y-91440001D01*
X156245468Y-91440001D01*
X156245468Y-91440000D01*
X156225635Y-91213308D01*
X156166739Y-90993504D01*
X156070568Y-90787266D01*
X155940047Y-90600861D01*
X155940045Y-90600858D01*
X155779141Y-90439954D01*
X155592734Y-90309432D01*
X155592732Y-90309431D01*
X155386497Y-90213261D01*
X155386488Y-90213258D01*
X155166697Y-90154366D01*
X155166693Y-90154365D01*
X155166692Y-90154365D01*
X155166691Y-90154364D01*
X155166686Y-90154364D01*
X154940002Y-90134532D01*
X154939998Y-90134532D01*
X154713313Y-90154364D01*
X154713302Y-90154366D01*
X154493511Y-90213258D01*
X154493502Y-90213261D01*
X154287267Y-90309431D01*
X154287265Y-90309432D01*
X154100858Y-90439954D01*
X153939954Y-90600858D01*
X153809432Y-90787265D01*
X153809431Y-90787267D01*
X153713261Y-90993502D01*
X153713258Y-90993511D01*
X153654366Y-91213302D01*
X153654364Y-91213313D01*
X153634532Y-91439998D01*
X153634532Y-91440001D01*
X151165468Y-91440001D01*
X151165468Y-91440000D01*
X151145635Y-91213308D01*
X151086739Y-90993504D01*
X150990568Y-90787266D01*
X150860047Y-90600861D01*
X150860045Y-90600858D01*
X150699141Y-90439954D01*
X150512734Y-90309432D01*
X150512732Y-90309431D01*
X150306497Y-90213261D01*
X150306488Y-90213258D01*
X150086697Y-90154366D01*
X150086693Y-90154365D01*
X150086692Y-90154365D01*
X150086691Y-90154364D01*
X150086686Y-90154364D01*
X149860002Y-90134532D01*
X149859998Y-90134532D01*
X149633313Y-90154364D01*
X149633302Y-90154366D01*
X149413511Y-90213258D01*
X149413502Y-90213261D01*
X149207267Y-90309431D01*
X149207265Y-90309432D01*
X149020858Y-90439954D01*
X148859954Y-90600858D01*
X148729432Y-90787265D01*
X148729431Y-90787267D01*
X148633261Y-90993502D01*
X148633258Y-90993511D01*
X148574366Y-91213302D01*
X148574364Y-91213313D01*
X148554532Y-91439998D01*
X148554532Y-91440001D01*
X141005468Y-91440001D01*
X141005468Y-91440000D01*
X140985635Y-91213308D01*
X140926739Y-90993504D01*
X140830568Y-90787266D01*
X140700047Y-90600861D01*
X140700045Y-90600858D01*
X140539141Y-90439954D01*
X140352734Y-90309432D01*
X140352732Y-90309431D01*
X140146497Y-90213261D01*
X140146488Y-90213258D01*
X139926697Y-90154366D01*
X139926693Y-90154365D01*
X139926692Y-90154365D01*
X139926691Y-90154364D01*
X139926686Y-90154364D01*
X139700002Y-90134532D01*
X139699998Y-90134532D01*
X139473313Y-90154364D01*
X139473302Y-90154366D01*
X139253511Y-90213258D01*
X139253502Y-90213261D01*
X139047267Y-90309431D01*
X139047265Y-90309432D01*
X138860858Y-90439954D01*
X138699954Y-90600858D01*
X138569432Y-90787265D01*
X138569431Y-90787267D01*
X138473261Y-90993502D01*
X138473258Y-90993511D01*
X138414366Y-91213302D01*
X138414364Y-91213313D01*
X138394532Y-91439998D01*
X138394532Y-91440001D01*
X135925468Y-91440001D01*
X135925468Y-91440000D01*
X135905635Y-91213308D01*
X135846739Y-90993504D01*
X135750568Y-90787266D01*
X135620047Y-90600861D01*
X135620045Y-90600858D01*
X135459141Y-90439954D01*
X135272734Y-90309432D01*
X135272732Y-90309431D01*
X135066497Y-90213261D01*
X135066488Y-90213258D01*
X134846697Y-90154366D01*
X134846693Y-90154365D01*
X134846692Y-90154365D01*
X134846691Y-90154364D01*
X134846686Y-90154364D01*
X134620002Y-90134532D01*
X134619998Y-90134532D01*
X134393313Y-90154364D01*
X134393302Y-90154366D01*
X134173511Y-90213258D01*
X134173502Y-90213261D01*
X133967267Y-90309431D01*
X133967265Y-90309432D01*
X133780858Y-90439954D01*
X133619954Y-90600858D01*
X133489432Y-90787265D01*
X133489431Y-90787267D01*
X133393261Y-90993502D01*
X133393258Y-90993511D01*
X133334366Y-91213302D01*
X133334364Y-91213313D01*
X133314532Y-91439998D01*
X133314532Y-91440001D01*
X125765468Y-91440001D01*
X125765468Y-91440000D01*
X125745635Y-91213308D01*
X125686739Y-90993504D01*
X125590568Y-90787266D01*
X125460047Y-90600861D01*
X125460045Y-90600858D01*
X125299141Y-90439954D01*
X125112734Y-90309432D01*
X125112732Y-90309431D01*
X124906497Y-90213261D01*
X124906488Y-90213258D01*
X124686697Y-90154366D01*
X124686693Y-90154365D01*
X124686692Y-90154365D01*
X124686691Y-90154364D01*
X124686686Y-90154364D01*
X124460002Y-90134532D01*
X124459998Y-90134532D01*
X124233313Y-90154364D01*
X124233302Y-90154366D01*
X124013511Y-90213258D01*
X124013502Y-90213261D01*
X123807267Y-90309431D01*
X123807265Y-90309432D01*
X123620858Y-90439954D01*
X123459954Y-90600858D01*
X123329432Y-90787265D01*
X123329431Y-90787267D01*
X123233261Y-90993502D01*
X123233258Y-90993511D01*
X123174366Y-91213302D01*
X123174364Y-91213313D01*
X123154532Y-91439998D01*
X123154532Y-91440001D01*
X117000000Y-91440001D01*
X117000000Y-87630001D01*
X130774532Y-87630001D01*
X130794364Y-87856686D01*
X130794366Y-87856697D01*
X130853258Y-88076488D01*
X130853261Y-88076497D01*
X130949431Y-88282732D01*
X130949432Y-88282734D01*
X131079954Y-88469141D01*
X131240858Y-88630045D01*
X131240861Y-88630047D01*
X131427266Y-88760568D01*
X131633504Y-88856739D01*
X131853308Y-88915635D01*
X132015230Y-88929801D01*
X132079998Y-88935468D01*
X132080000Y-88935468D01*
X132080002Y-88935468D01*
X132136673Y-88930509D01*
X132306692Y-88915635D01*
X132526496Y-88856739D01*
X132732734Y-88760568D01*
X132919139Y-88630047D01*
X133080047Y-88469139D01*
X133210568Y-88282734D01*
X133306739Y-88076496D01*
X133365635Y-87856692D01*
X133385468Y-87630000D01*
X133365635Y-87403308D01*
X133306739Y-87183504D01*
X133210568Y-86977266D01*
X133080047Y-86790861D01*
X133080045Y-86790858D01*
X132919141Y-86629954D01*
X132732734Y-86499432D01*
X132732732Y-86499431D01*
X132526497Y-86403261D01*
X132526488Y-86403258D01*
X132306697Y-86344366D01*
X132306693Y-86344365D01*
X132306692Y-86344365D01*
X132306691Y-86344364D01*
X132306686Y-86344364D01*
X132080002Y-86324532D01*
X132079998Y-86324532D01*
X131853313Y-86344364D01*
X131853302Y-86344366D01*
X131633511Y-86403258D01*
X131633502Y-86403261D01*
X131427267Y-86499431D01*
X131427265Y-86499432D01*
X131240858Y-86629954D01*
X131079954Y-86790858D01*
X130949432Y-86977265D01*
X130949431Y-86977267D01*
X130853261Y-87183502D01*
X130853258Y-87183511D01*
X130794366Y-87403302D01*
X130794364Y-87403313D01*
X130774532Y-87629998D01*
X130774532Y-87630001D01*
X117000000Y-87630001D01*
X117000000Y-85987870D01*
X119164500Y-85987870D01*
X119164501Y-85987876D01*
X119170908Y-86047483D01*
X119221202Y-86182328D01*
X119221206Y-86182335D01*
X119307452Y-86297544D01*
X119307455Y-86297547D01*
X119422664Y-86383793D01*
X119422671Y-86383797D01*
X119557517Y-86434091D01*
X119557516Y-86434091D01*
X119564444Y-86434835D01*
X119617127Y-86440500D01*
X121712872Y-86440499D01*
X121772483Y-86434091D01*
X121907331Y-86383796D01*
X122022546Y-86297546D01*
X122108796Y-86182331D01*
X122159091Y-86047483D01*
X122165500Y-85987873D01*
X122165499Y-84992128D01*
X122159091Y-84932517D01*
X122143419Y-84890499D01*
X122108797Y-84797671D01*
X122108793Y-84797664D01*
X122022547Y-84682455D01*
X122022544Y-84682452D01*
X121907335Y-84596206D01*
X121907328Y-84596202D01*
X121772482Y-84545908D01*
X121772483Y-84545908D01*
X121712883Y-84539501D01*
X121712881Y-84539500D01*
X121712873Y-84539500D01*
X121712864Y-84539500D01*
X119617129Y-84539500D01*
X119617123Y-84539501D01*
X119557516Y-84545908D01*
X119422671Y-84596202D01*
X119422664Y-84596206D01*
X119307455Y-84682452D01*
X119307452Y-84682455D01*
X119221206Y-84797664D01*
X119221202Y-84797671D01*
X119170908Y-84932517D01*
X119164501Y-84992116D01*
X119164501Y-84992123D01*
X119164500Y-84992135D01*
X119164500Y-85987870D01*
X117000000Y-85987870D01*
X117000000Y-82340005D01*
X124109457Y-82340005D01*
X124129606Y-82660283D01*
X124129607Y-82660290D01*
X124189745Y-82975542D01*
X124288916Y-83280759D01*
X124288918Y-83280764D01*
X124425558Y-83571138D01*
X124425562Y-83571144D01*
X124597520Y-83842108D01*
X124597522Y-83842111D01*
X124770582Y-84051305D01*
X124802089Y-84089390D01*
X124983025Y-84259299D01*
X125036034Y-84309078D01*
X125036044Y-84309086D01*
X125295660Y-84497708D01*
X125295666Y-84497711D01*
X125295672Y-84497716D01*
X125576903Y-84652324D01*
X125875294Y-84770466D01*
X125875293Y-84770466D01*
X126099566Y-84828049D01*
X126186139Y-84850277D01*
X126252935Y-84858715D01*
X126504524Y-84890499D01*
X126504533Y-84890499D01*
X126504536Y-84890500D01*
X126504538Y-84890500D01*
X126825462Y-84890500D01*
X126825464Y-84890500D01*
X126825467Y-84890499D01*
X126825475Y-84890499D01*
X127015463Y-84866497D01*
X127143861Y-84850277D01*
X127454706Y-84770466D01*
X127753097Y-84652324D01*
X128034328Y-84497716D01*
X128293964Y-84309080D01*
X128527911Y-84089390D01*
X128732478Y-83842110D01*
X128746506Y-83820006D01*
X133214700Y-83820006D01*
X133233864Y-84051297D01*
X133233866Y-84051308D01*
X133290842Y-84276300D01*
X133384075Y-84488848D01*
X133511016Y-84683147D01*
X133511019Y-84683151D01*
X133511021Y-84683153D01*
X133668216Y-84853913D01*
X133668219Y-84853915D01*
X133668222Y-84853918D01*
X133851365Y-84996464D01*
X133851371Y-84996468D01*
X133851374Y-84996470D01*
X134055497Y-85106936D01*
X134169487Y-85146068D01*
X134275015Y-85182297D01*
X134275017Y-85182297D01*
X134275019Y-85182298D01*
X134503951Y-85220500D01*
X134503952Y-85220500D01*
X134736048Y-85220500D01*
X134736049Y-85220500D01*
X134964981Y-85182298D01*
X135184503Y-85106936D01*
X135388626Y-84996470D01*
X135394204Y-84992129D01*
X135470794Y-84932516D01*
X135571784Y-84853913D01*
X135728979Y-84683153D01*
X135855924Y-84488849D01*
X135949157Y-84276300D01*
X136006134Y-84051305D01*
X136006135Y-84051297D01*
X136025300Y-83820006D01*
X140834700Y-83820006D01*
X140853864Y-84051297D01*
X140853866Y-84051308D01*
X140910842Y-84276300D01*
X141004075Y-84488848D01*
X141131016Y-84683147D01*
X141131019Y-84683151D01*
X141131021Y-84683153D01*
X141206731Y-84765396D01*
X141237652Y-84828049D01*
X141239500Y-84849377D01*
X141239500Y-86752410D01*
X141219815Y-86819449D01*
X141217076Y-86823532D01*
X141109431Y-86977267D01*
X141013261Y-87183502D01*
X141013258Y-87183511D01*
X140954366Y-87403302D01*
X140954364Y-87403313D01*
X140934532Y-87629998D01*
X140934532Y-87630001D01*
X140954364Y-87856686D01*
X140954366Y-87856697D01*
X141013258Y-88076488D01*
X141013261Y-88076497D01*
X141109431Y-88282732D01*
X141109432Y-88282734D01*
X141239954Y-88469141D01*
X141400858Y-88630045D01*
X141400861Y-88630047D01*
X141587266Y-88760568D01*
X141793504Y-88856739D01*
X142013308Y-88915635D01*
X142175230Y-88929801D01*
X142239998Y-88935468D01*
X142240000Y-88935468D01*
X142240002Y-88935468D01*
X142296673Y-88930509D01*
X142466692Y-88915635D01*
X142686496Y-88856739D01*
X142892734Y-88760568D01*
X143079139Y-88630047D01*
X143240047Y-88469139D01*
X143370568Y-88282734D01*
X143466739Y-88076496D01*
X143525635Y-87856692D01*
X143545468Y-87630001D01*
X146014532Y-87630001D01*
X146034364Y-87856686D01*
X146034366Y-87856697D01*
X146093258Y-88076488D01*
X146093261Y-88076497D01*
X146189431Y-88282732D01*
X146189432Y-88282734D01*
X146319954Y-88469141D01*
X146480858Y-88630045D01*
X146480861Y-88630047D01*
X146667266Y-88760568D01*
X146873504Y-88856739D01*
X147093308Y-88915635D01*
X147255230Y-88929801D01*
X147319998Y-88935468D01*
X147320000Y-88935468D01*
X147320002Y-88935468D01*
X147376673Y-88930509D01*
X147546692Y-88915635D01*
X147766496Y-88856739D01*
X147972734Y-88760568D01*
X148159139Y-88630047D01*
X148320047Y-88469139D01*
X148450568Y-88282734D01*
X148546739Y-88076496D01*
X148605635Y-87856692D01*
X148625468Y-87630000D01*
X148605635Y-87403308D01*
X148546739Y-87183504D01*
X148450568Y-86977266D01*
X148320047Y-86790861D01*
X148320045Y-86790858D01*
X148159141Y-86629954D01*
X147972734Y-86499432D01*
X147972732Y-86499431D01*
X147766497Y-86403261D01*
X147766488Y-86403258D01*
X147546697Y-86344366D01*
X147546693Y-86344365D01*
X147546692Y-86344365D01*
X147546691Y-86344364D01*
X147546686Y-86344364D01*
X147320002Y-86324532D01*
X147319998Y-86324532D01*
X147093313Y-86344364D01*
X147093302Y-86344366D01*
X146873511Y-86403258D01*
X146873502Y-86403261D01*
X146667267Y-86499431D01*
X146667265Y-86499432D01*
X146480858Y-86629954D01*
X146319954Y-86790858D01*
X146189432Y-86977265D01*
X146189431Y-86977267D01*
X146093261Y-87183502D01*
X146093258Y-87183511D01*
X146034366Y-87403302D01*
X146034364Y-87403313D01*
X146014532Y-87629998D01*
X146014532Y-87630001D01*
X143545468Y-87630001D01*
X143545468Y-87630000D01*
X143525635Y-87403308D01*
X143466739Y-87183504D01*
X143370568Y-86977266D01*
X143262924Y-86823532D01*
X143240597Y-86757326D01*
X143240500Y-86752410D01*
X143240500Y-84849377D01*
X143260185Y-84782338D01*
X143273264Y-84765401D01*
X143348979Y-84683153D01*
X143475924Y-84488849D01*
X143569157Y-84276300D01*
X143626134Y-84051305D01*
X143626135Y-84051297D01*
X143645300Y-83820006D01*
X148454700Y-83820006D01*
X148473864Y-84051297D01*
X148473866Y-84051308D01*
X148530842Y-84276300D01*
X148624075Y-84488848D01*
X148751016Y-84683147D01*
X148751019Y-84683151D01*
X148751021Y-84683153D01*
X148908216Y-84853913D01*
X148908219Y-84853915D01*
X148908222Y-84853918D01*
X149091365Y-84996464D01*
X149091371Y-84996468D01*
X149091374Y-84996470D01*
X149295497Y-85106936D01*
X149409487Y-85146068D01*
X149515015Y-85182297D01*
X149515017Y-85182297D01*
X149515019Y-85182298D01*
X149743951Y-85220500D01*
X149743952Y-85220500D01*
X149976048Y-85220500D01*
X149976049Y-85220500D01*
X150204981Y-85182298D01*
X150424503Y-85106936D01*
X150628626Y-84996470D01*
X150634204Y-84992129D01*
X150710794Y-84932516D01*
X150811784Y-84853913D01*
X150968979Y-84683153D01*
X151095924Y-84488849D01*
X151189157Y-84276300D01*
X151246134Y-84051305D01*
X151246135Y-84051297D01*
X151265300Y-83820006D01*
X156074700Y-83820006D01*
X156093864Y-84051297D01*
X156093866Y-84051308D01*
X156150842Y-84276300D01*
X156244075Y-84488848D01*
X156371016Y-84683147D01*
X156371019Y-84683151D01*
X156371021Y-84683153D01*
X156446731Y-84765396D01*
X156477652Y-84828049D01*
X156479500Y-84849377D01*
X156479500Y-86752410D01*
X156459815Y-86819449D01*
X156457076Y-86823532D01*
X156349431Y-86977267D01*
X156253261Y-87183502D01*
X156253258Y-87183511D01*
X156194366Y-87403302D01*
X156194364Y-87403313D01*
X156174532Y-87629998D01*
X156174532Y-87630001D01*
X156194364Y-87856686D01*
X156194366Y-87856697D01*
X156253258Y-88076488D01*
X156253261Y-88076497D01*
X156349431Y-88282732D01*
X156349432Y-88282734D01*
X156479954Y-88469141D01*
X156640858Y-88630045D01*
X156640861Y-88630047D01*
X156827266Y-88760568D01*
X157033504Y-88856739D01*
X157253308Y-88915635D01*
X157415230Y-88929801D01*
X157479998Y-88935468D01*
X157480000Y-88935468D01*
X157480002Y-88935468D01*
X157536673Y-88930509D01*
X157706692Y-88915635D01*
X157926496Y-88856739D01*
X158132734Y-88760568D01*
X158319139Y-88630047D01*
X158480047Y-88469139D01*
X158610568Y-88282734D01*
X158706739Y-88076496D01*
X158765635Y-87856692D01*
X158785468Y-87630001D01*
X161254532Y-87630001D01*
X161274364Y-87856686D01*
X161274366Y-87856697D01*
X161333258Y-88076488D01*
X161333261Y-88076497D01*
X161429431Y-88282732D01*
X161429432Y-88282734D01*
X161559954Y-88469141D01*
X161720858Y-88630045D01*
X161720861Y-88630047D01*
X161907266Y-88760568D01*
X162113504Y-88856739D01*
X162333308Y-88915635D01*
X162495230Y-88929801D01*
X162559998Y-88935468D01*
X162560000Y-88935468D01*
X162560002Y-88935468D01*
X162616673Y-88930509D01*
X162786692Y-88915635D01*
X163006496Y-88856739D01*
X163212734Y-88760568D01*
X163399139Y-88630047D01*
X163560047Y-88469139D01*
X163690568Y-88282734D01*
X163786739Y-88076496D01*
X163845635Y-87856692D01*
X163865468Y-87630000D01*
X163845635Y-87403308D01*
X163786739Y-87183504D01*
X163690568Y-86977266D01*
X163560047Y-86790861D01*
X163560045Y-86790858D01*
X163399141Y-86629954D01*
X163212734Y-86499432D01*
X163212732Y-86499431D01*
X163006497Y-86403261D01*
X163006488Y-86403258D01*
X162786697Y-86344366D01*
X162786693Y-86344365D01*
X162786692Y-86344365D01*
X162786691Y-86344364D01*
X162786686Y-86344364D01*
X162560002Y-86324532D01*
X162559998Y-86324532D01*
X162333313Y-86344364D01*
X162333302Y-86344366D01*
X162113511Y-86403258D01*
X162113502Y-86403261D01*
X161907267Y-86499431D01*
X161907265Y-86499432D01*
X161720858Y-86629954D01*
X161559954Y-86790858D01*
X161429432Y-86977265D01*
X161429431Y-86977267D01*
X161333261Y-87183502D01*
X161333258Y-87183511D01*
X161274366Y-87403302D01*
X161274364Y-87403313D01*
X161254532Y-87629998D01*
X161254532Y-87630001D01*
X158785468Y-87630001D01*
X158785468Y-87630000D01*
X158765635Y-87403308D01*
X158706739Y-87183504D01*
X158610568Y-86977266D01*
X158502924Y-86823532D01*
X158480597Y-86757326D01*
X158480500Y-86752410D01*
X158480500Y-84849377D01*
X158500185Y-84782338D01*
X158513264Y-84765401D01*
X158588979Y-84683153D01*
X158715924Y-84488849D01*
X158809157Y-84276300D01*
X158866134Y-84051305D01*
X158866135Y-84051297D01*
X158885300Y-83820006D01*
X163694700Y-83820006D01*
X163713864Y-84051297D01*
X163713866Y-84051308D01*
X163770842Y-84276300D01*
X163864075Y-84488848D01*
X163991016Y-84683147D01*
X163991019Y-84683151D01*
X163991021Y-84683153D01*
X164148216Y-84853913D01*
X164148219Y-84853915D01*
X164148222Y-84853918D01*
X164331365Y-84996464D01*
X164331371Y-84996468D01*
X164331374Y-84996470D01*
X164535497Y-85106936D01*
X164649487Y-85146068D01*
X164755015Y-85182297D01*
X164755017Y-85182297D01*
X164755019Y-85182298D01*
X164983951Y-85220500D01*
X164983952Y-85220500D01*
X165216048Y-85220500D01*
X165216049Y-85220500D01*
X165444981Y-85182298D01*
X165664503Y-85106936D01*
X165868626Y-84996470D01*
X165874204Y-84992129D01*
X165950794Y-84932516D01*
X166051784Y-84853913D01*
X166208979Y-84683153D01*
X166335924Y-84488849D01*
X166429157Y-84276300D01*
X166486134Y-84051305D01*
X166486135Y-84051297D01*
X166505300Y-83820006D01*
X171314700Y-83820006D01*
X171333864Y-84051297D01*
X171333866Y-84051308D01*
X171390842Y-84276300D01*
X171484075Y-84488848D01*
X171611016Y-84683147D01*
X171611019Y-84683151D01*
X171611021Y-84683153D01*
X171686731Y-84765396D01*
X171717652Y-84828049D01*
X171719500Y-84849377D01*
X171719500Y-86752410D01*
X171699815Y-86819449D01*
X171697076Y-86823532D01*
X171589431Y-86977267D01*
X171493261Y-87183502D01*
X171493258Y-87183511D01*
X171434366Y-87403302D01*
X171434364Y-87403313D01*
X171414532Y-87629998D01*
X171414532Y-87630001D01*
X171434364Y-87856686D01*
X171434366Y-87856697D01*
X171493258Y-88076488D01*
X171493261Y-88076497D01*
X171589431Y-88282732D01*
X171589432Y-88282734D01*
X171719954Y-88469141D01*
X171880858Y-88630045D01*
X171880861Y-88630047D01*
X172067266Y-88760568D01*
X172273504Y-88856739D01*
X172493308Y-88915635D01*
X172655230Y-88929801D01*
X172719998Y-88935468D01*
X172720000Y-88935468D01*
X172720002Y-88935468D01*
X172776673Y-88930509D01*
X172946692Y-88915635D01*
X173166496Y-88856739D01*
X173372734Y-88760568D01*
X173559139Y-88630047D01*
X173720047Y-88469139D01*
X173850568Y-88282734D01*
X173946739Y-88076496D01*
X174005635Y-87856692D01*
X174025468Y-87630001D01*
X176494532Y-87630001D01*
X176514364Y-87856686D01*
X176514366Y-87856697D01*
X176573258Y-88076488D01*
X176573261Y-88076497D01*
X176669431Y-88282732D01*
X176669432Y-88282734D01*
X176799954Y-88469141D01*
X176960858Y-88630045D01*
X176960861Y-88630047D01*
X177147266Y-88760568D01*
X177353504Y-88856739D01*
X177573308Y-88915635D01*
X177735230Y-88929801D01*
X177799998Y-88935468D01*
X177800000Y-88935468D01*
X177800002Y-88935468D01*
X177856673Y-88930509D01*
X178026692Y-88915635D01*
X178246496Y-88856739D01*
X178452734Y-88760568D01*
X178639139Y-88630047D01*
X178800047Y-88469139D01*
X178930568Y-88282734D01*
X179026739Y-88076496D01*
X179085635Y-87856692D01*
X179105468Y-87630000D01*
X179085635Y-87403308D01*
X179026739Y-87183504D01*
X178930568Y-86977266D01*
X178800047Y-86790861D01*
X178800045Y-86790858D01*
X178639141Y-86629954D01*
X178452734Y-86499432D01*
X178452732Y-86499431D01*
X178246497Y-86403261D01*
X178246488Y-86403258D01*
X178026697Y-86344366D01*
X178026693Y-86344365D01*
X178026692Y-86344365D01*
X178026691Y-86344364D01*
X178026686Y-86344364D01*
X177800002Y-86324532D01*
X177799998Y-86324532D01*
X177573313Y-86344364D01*
X177573302Y-86344366D01*
X177353511Y-86403258D01*
X177353502Y-86403261D01*
X177147267Y-86499431D01*
X177147265Y-86499432D01*
X176960858Y-86629954D01*
X176799954Y-86790858D01*
X176669432Y-86977265D01*
X176669431Y-86977267D01*
X176573261Y-87183502D01*
X176573258Y-87183511D01*
X176514366Y-87403302D01*
X176514364Y-87403313D01*
X176494532Y-87629998D01*
X176494532Y-87630001D01*
X174025468Y-87630001D01*
X174025468Y-87630000D01*
X174005635Y-87403308D01*
X173946739Y-87183504D01*
X173850568Y-86977266D01*
X173742924Y-86823532D01*
X173720597Y-86757326D01*
X173720500Y-86752410D01*
X173720500Y-84849377D01*
X173740185Y-84782338D01*
X173753264Y-84765401D01*
X173828979Y-84683153D01*
X173955924Y-84488849D01*
X174049157Y-84276300D01*
X174106134Y-84051305D01*
X174106135Y-84051297D01*
X174125300Y-83820006D01*
X178934700Y-83820006D01*
X178953864Y-84051297D01*
X178953866Y-84051308D01*
X179010842Y-84276300D01*
X179104075Y-84488848D01*
X179231016Y-84683147D01*
X179231019Y-84683151D01*
X179231021Y-84683153D01*
X179388216Y-84853913D01*
X179388219Y-84853915D01*
X179388222Y-84853918D01*
X179571365Y-84996464D01*
X179571371Y-84996468D01*
X179571374Y-84996470D01*
X179775497Y-85106936D01*
X179889487Y-85146068D01*
X179995015Y-85182297D01*
X179995017Y-85182297D01*
X179995019Y-85182298D01*
X180223951Y-85220500D01*
X180223952Y-85220500D01*
X180456048Y-85220500D01*
X180456049Y-85220500D01*
X180684981Y-85182298D01*
X180904503Y-85106936D01*
X181108626Y-84996470D01*
X181114204Y-84992129D01*
X181190794Y-84932516D01*
X181291784Y-84853913D01*
X181448979Y-84683153D01*
X181575924Y-84488849D01*
X181669157Y-84276300D01*
X181726134Y-84051305D01*
X181726135Y-84051297D01*
X181745300Y-83820006D01*
X186554700Y-83820006D01*
X186573864Y-84051297D01*
X186573866Y-84051308D01*
X186630842Y-84276300D01*
X186724075Y-84488848D01*
X186851016Y-84683147D01*
X186851019Y-84683151D01*
X186851021Y-84683153D01*
X186926731Y-84765396D01*
X186957652Y-84828049D01*
X186959500Y-84849377D01*
X186959500Y-86752410D01*
X186939815Y-86819449D01*
X186937076Y-86823532D01*
X186829431Y-86977267D01*
X186733261Y-87183502D01*
X186733258Y-87183511D01*
X186674366Y-87403302D01*
X186674364Y-87403313D01*
X186654532Y-87629998D01*
X186654532Y-87630001D01*
X186674364Y-87856686D01*
X186674366Y-87856697D01*
X186733258Y-88076488D01*
X186733261Y-88076497D01*
X186829431Y-88282732D01*
X186829432Y-88282734D01*
X186959954Y-88469141D01*
X187120858Y-88630045D01*
X187120861Y-88630047D01*
X187307266Y-88760568D01*
X187513504Y-88856739D01*
X187733308Y-88915635D01*
X187895230Y-88929801D01*
X187959998Y-88935468D01*
X187960000Y-88935468D01*
X187960002Y-88935468D01*
X188016673Y-88930509D01*
X188186692Y-88915635D01*
X188406496Y-88856739D01*
X188612734Y-88760568D01*
X188799139Y-88630047D01*
X188960047Y-88469139D01*
X189090568Y-88282734D01*
X189186739Y-88076496D01*
X189245635Y-87856692D01*
X189265468Y-87630000D01*
X189245635Y-87403308D01*
X189186739Y-87183504D01*
X189090568Y-86977266D01*
X188982924Y-86823532D01*
X188960597Y-86757326D01*
X188960500Y-86752410D01*
X188960500Y-85987870D01*
X199525500Y-85987870D01*
X199525501Y-85987876D01*
X199531908Y-86047483D01*
X199582202Y-86182328D01*
X199582206Y-86182335D01*
X199668452Y-86297544D01*
X199668455Y-86297547D01*
X199783664Y-86383793D01*
X199783671Y-86383797D01*
X199918517Y-86434091D01*
X199918516Y-86434091D01*
X199925444Y-86434835D01*
X199978127Y-86440500D01*
X202073872Y-86440499D01*
X202133483Y-86434091D01*
X202268331Y-86383796D01*
X202383546Y-86297546D01*
X202469796Y-86182331D01*
X202520091Y-86047483D01*
X202526500Y-85987873D01*
X202526499Y-84992128D01*
X202520091Y-84932517D01*
X202504419Y-84890499D01*
X202469797Y-84797671D01*
X202469793Y-84797664D01*
X202383547Y-84682455D01*
X202383544Y-84682452D01*
X202268335Y-84596206D01*
X202268328Y-84596202D01*
X202133482Y-84545908D01*
X202133483Y-84545908D01*
X202073883Y-84539501D01*
X202073881Y-84539500D01*
X202073873Y-84539500D01*
X202073864Y-84539500D01*
X199978129Y-84539500D01*
X199978123Y-84539501D01*
X199918516Y-84545908D01*
X199783671Y-84596202D01*
X199783664Y-84596206D01*
X199668455Y-84682452D01*
X199668452Y-84682455D01*
X199582206Y-84797664D01*
X199582202Y-84797671D01*
X199531908Y-84932517D01*
X199525501Y-84992116D01*
X199525501Y-84992123D01*
X199525500Y-84992135D01*
X199525500Y-85987870D01*
X188960500Y-85987870D01*
X188960500Y-84849377D01*
X188980185Y-84782338D01*
X188993264Y-84765401D01*
X189068979Y-84683153D01*
X189195924Y-84488849D01*
X189289157Y-84276300D01*
X189346134Y-84051305D01*
X189346135Y-84051297D01*
X189365300Y-83820006D01*
X189365300Y-83819993D01*
X189346135Y-83588702D01*
X189346133Y-83588691D01*
X189307281Y-83435268D01*
X192476000Y-83435268D01*
X192486215Y-83579958D01*
X192486217Y-83579968D01*
X192540313Y-83820165D01*
X192540315Y-83820172D01*
X192632244Y-84048585D01*
X192759620Y-84259289D01*
X192759627Y-84259299D01*
X192919153Y-84446846D01*
X193106700Y-84606372D01*
X193106710Y-84606379D01*
X193317414Y-84733755D01*
X193545827Y-84825684D01*
X193545834Y-84825686D01*
X193786031Y-84879782D01*
X193786041Y-84879784D01*
X193930731Y-84889999D01*
X193930734Y-84890000D01*
X194526000Y-84890000D01*
X194526000Y-83597014D01*
X194709874Y-83656758D01*
X194919753Y-83690000D01*
X195132247Y-83690000D01*
X195342126Y-83656758D01*
X195526000Y-83597014D01*
X195526000Y-84890000D01*
X196121266Y-84890000D01*
X196121268Y-84889999D01*
X196265958Y-84879784D01*
X196265968Y-84879782D01*
X196506165Y-84825686D01*
X196506172Y-84825684D01*
X196734585Y-84733755D01*
X196945289Y-84606379D01*
X196945299Y-84606372D01*
X197132846Y-84446846D01*
X197292372Y-84259299D01*
X197292379Y-84259289D01*
X197419755Y-84048585D01*
X197511684Y-83820172D01*
X197511686Y-83820165D01*
X197565782Y-83579968D01*
X197565784Y-83579958D01*
X197575999Y-83435268D01*
X197576000Y-83435266D01*
X197576000Y-82840000D01*
X196283014Y-82840000D01*
X196342758Y-82656126D01*
X196376000Y-82446247D01*
X196376000Y-82233753D01*
X196342758Y-82023874D01*
X196283014Y-81840000D01*
X197576000Y-81840000D01*
X197576000Y-81244734D01*
X197575999Y-81244731D01*
X197565784Y-81100041D01*
X197565782Y-81100031D01*
X197511686Y-80859834D01*
X197511684Y-80859827D01*
X197419755Y-80631414D01*
X197292379Y-80420710D01*
X197292372Y-80420700D01*
X197132846Y-80233153D01*
X196945299Y-80073627D01*
X196945289Y-80073620D01*
X196734585Y-79946244D01*
X196506172Y-79854315D01*
X196506165Y-79854313D01*
X196265968Y-79800217D01*
X196265958Y-79800215D01*
X196121268Y-79790000D01*
X195526000Y-79790000D01*
X195526000Y-81082985D01*
X195342126Y-81023242D01*
X195132247Y-80990000D01*
X194919753Y-80990000D01*
X194709874Y-81023242D01*
X194526000Y-81082985D01*
X194526000Y-79790000D01*
X193930731Y-79790000D01*
X193786041Y-79800215D01*
X193786031Y-79800217D01*
X193545834Y-79854313D01*
X193545827Y-79854315D01*
X193317414Y-79946244D01*
X193106710Y-80073620D01*
X193106700Y-80073627D01*
X192919153Y-80233153D01*
X192759627Y-80420700D01*
X192759620Y-80420710D01*
X192632244Y-80631414D01*
X192540315Y-80859827D01*
X192540313Y-80859834D01*
X192486217Y-81100031D01*
X192486215Y-81100041D01*
X192476000Y-81244731D01*
X192476000Y-81840000D01*
X193768986Y-81840000D01*
X193709242Y-82023874D01*
X193676000Y-82233753D01*
X193676000Y-82446247D01*
X193709242Y-82656126D01*
X193768986Y-82840000D01*
X192476000Y-82840000D01*
X192476000Y-83435268D01*
X189307281Y-83435268D01*
X189289157Y-83363699D01*
X189195924Y-83151151D01*
X189068981Y-82956849D01*
X188973832Y-82853489D01*
X188942910Y-82790835D01*
X188950770Y-82721409D01*
X188994918Y-82667253D01*
X189021730Y-82653325D01*
X189102084Y-82623355D01*
X189102093Y-82623350D01*
X189217187Y-82537190D01*
X189217190Y-82537187D01*
X189303350Y-82422093D01*
X189303354Y-82422086D01*
X189353596Y-82287379D01*
X189353598Y-82287372D01*
X189359999Y-82227844D01*
X189360000Y-82227827D01*
X189360000Y-81780000D01*
X186560000Y-81780000D01*
X186560000Y-82227844D01*
X186566401Y-82287372D01*
X186566403Y-82287379D01*
X186616645Y-82422086D01*
X186616649Y-82422093D01*
X186702809Y-82537187D01*
X186702812Y-82537190D01*
X186817906Y-82623350D01*
X186817913Y-82623354D01*
X186898270Y-82653325D01*
X186954204Y-82695196D01*
X186978621Y-82760660D01*
X186963770Y-82828933D01*
X186946168Y-82853489D01*
X186851021Y-82956847D01*
X186851019Y-82956848D01*
X186851016Y-82956853D01*
X186724075Y-83151151D01*
X186630842Y-83363699D01*
X186573866Y-83588691D01*
X186573864Y-83588702D01*
X186554700Y-83819993D01*
X186554700Y-83820006D01*
X181745300Y-83820006D01*
X181745300Y-83819993D01*
X181726135Y-83588702D01*
X181726133Y-83588691D01*
X181669157Y-83363699D01*
X181575924Y-83151151D01*
X181448981Y-82956849D01*
X181353832Y-82853489D01*
X181322910Y-82790835D01*
X181330770Y-82721409D01*
X181374918Y-82667253D01*
X181401730Y-82653325D01*
X181482084Y-82623355D01*
X181482093Y-82623350D01*
X181597187Y-82537190D01*
X181597190Y-82537187D01*
X181683350Y-82422093D01*
X181683354Y-82422086D01*
X181733596Y-82287379D01*
X181733598Y-82287372D01*
X181739999Y-82227844D01*
X181740000Y-82227827D01*
X181740000Y-81780000D01*
X178940000Y-81780000D01*
X178940000Y-82227844D01*
X178946401Y-82287372D01*
X178946403Y-82287379D01*
X178996645Y-82422086D01*
X178996649Y-82422093D01*
X179082809Y-82537187D01*
X179082812Y-82537190D01*
X179197906Y-82623350D01*
X179197913Y-82623354D01*
X179278270Y-82653325D01*
X179334204Y-82695196D01*
X179358621Y-82760660D01*
X179343770Y-82828933D01*
X179326168Y-82853489D01*
X179231021Y-82956847D01*
X179231019Y-82956848D01*
X179231016Y-82956853D01*
X179104075Y-83151151D01*
X179010842Y-83363699D01*
X178953866Y-83588691D01*
X178953864Y-83588702D01*
X178934700Y-83819993D01*
X178934700Y-83820006D01*
X174125300Y-83820006D01*
X174125300Y-83819993D01*
X174106135Y-83588702D01*
X174106133Y-83588691D01*
X174049157Y-83363699D01*
X173955924Y-83151151D01*
X173828981Y-82956849D01*
X173733832Y-82853489D01*
X173702910Y-82790835D01*
X173710770Y-82721409D01*
X173754918Y-82667253D01*
X173781730Y-82653325D01*
X173862084Y-82623355D01*
X173862093Y-82623350D01*
X173977187Y-82537190D01*
X173977190Y-82537187D01*
X174063350Y-82422093D01*
X174063354Y-82422086D01*
X174113596Y-82287379D01*
X174113598Y-82287372D01*
X174119999Y-82227844D01*
X174120000Y-82227827D01*
X174120000Y-81780000D01*
X171320000Y-81780000D01*
X171320000Y-82227844D01*
X171326401Y-82287372D01*
X171326403Y-82287379D01*
X171376645Y-82422086D01*
X171376649Y-82422093D01*
X171462809Y-82537187D01*
X171462812Y-82537190D01*
X171577906Y-82623350D01*
X171577913Y-82623354D01*
X171658270Y-82653325D01*
X171714204Y-82695196D01*
X171738621Y-82760660D01*
X171723770Y-82828933D01*
X171706168Y-82853489D01*
X171611021Y-82956847D01*
X171611019Y-82956848D01*
X171611016Y-82956853D01*
X171484075Y-83151151D01*
X171390842Y-83363699D01*
X171333866Y-83588691D01*
X171333864Y-83588702D01*
X171314700Y-83819993D01*
X171314700Y-83820006D01*
X166505300Y-83820006D01*
X166505300Y-83819993D01*
X166486135Y-83588702D01*
X166486133Y-83588691D01*
X166429157Y-83363699D01*
X166335924Y-83151151D01*
X166208981Y-82956849D01*
X166113832Y-82853489D01*
X166082910Y-82790835D01*
X166090770Y-82721409D01*
X166134918Y-82667253D01*
X166161730Y-82653325D01*
X166242084Y-82623355D01*
X166242093Y-82623350D01*
X166357187Y-82537190D01*
X166357190Y-82537187D01*
X166443350Y-82422093D01*
X166443354Y-82422086D01*
X166493596Y-82287379D01*
X166493598Y-82287372D01*
X166499999Y-82227844D01*
X166500000Y-82227827D01*
X166500000Y-81780000D01*
X163700000Y-81780000D01*
X163700000Y-82227844D01*
X163706401Y-82287372D01*
X163706403Y-82287379D01*
X163756645Y-82422086D01*
X163756649Y-82422093D01*
X163842809Y-82537187D01*
X163842812Y-82537190D01*
X163957906Y-82623350D01*
X163957913Y-82623354D01*
X164038270Y-82653325D01*
X164094204Y-82695196D01*
X164118621Y-82760660D01*
X164103770Y-82828933D01*
X164086168Y-82853489D01*
X163991021Y-82956847D01*
X163991019Y-82956848D01*
X163991016Y-82956853D01*
X163864075Y-83151151D01*
X163770842Y-83363699D01*
X163713866Y-83588691D01*
X163713864Y-83588702D01*
X163694700Y-83819993D01*
X163694700Y-83820006D01*
X158885300Y-83820006D01*
X158885300Y-83819993D01*
X158866135Y-83588702D01*
X158866133Y-83588691D01*
X158809157Y-83363699D01*
X158715924Y-83151151D01*
X158588981Y-82956849D01*
X158493832Y-82853489D01*
X158462910Y-82790835D01*
X158470770Y-82721409D01*
X158514918Y-82667253D01*
X158541730Y-82653325D01*
X158622084Y-82623355D01*
X158622093Y-82623350D01*
X158737187Y-82537190D01*
X158737190Y-82537187D01*
X158823350Y-82422093D01*
X158823354Y-82422086D01*
X158873596Y-82287379D01*
X158873598Y-82287372D01*
X158879999Y-82227844D01*
X158880000Y-82227827D01*
X158880000Y-81780000D01*
X156080000Y-81780000D01*
X156080000Y-82227844D01*
X156086401Y-82287372D01*
X156086403Y-82287379D01*
X156136645Y-82422086D01*
X156136649Y-82422093D01*
X156222809Y-82537187D01*
X156222812Y-82537190D01*
X156337906Y-82623350D01*
X156337913Y-82623354D01*
X156418270Y-82653325D01*
X156474204Y-82695196D01*
X156498621Y-82760660D01*
X156483770Y-82828933D01*
X156466168Y-82853489D01*
X156371021Y-82956847D01*
X156371019Y-82956848D01*
X156371016Y-82956853D01*
X156244075Y-83151151D01*
X156150842Y-83363699D01*
X156093866Y-83588691D01*
X156093864Y-83588702D01*
X156074700Y-83819993D01*
X156074700Y-83820006D01*
X151265300Y-83820006D01*
X151265300Y-83819993D01*
X151246135Y-83588702D01*
X151246133Y-83588691D01*
X151189157Y-83363699D01*
X151095924Y-83151151D01*
X150968981Y-82956849D01*
X150873832Y-82853489D01*
X150842910Y-82790835D01*
X150850770Y-82721409D01*
X150894918Y-82667253D01*
X150921730Y-82653325D01*
X151002084Y-82623355D01*
X151002093Y-82623350D01*
X151117187Y-82537190D01*
X151117190Y-82537187D01*
X151203350Y-82422093D01*
X151203354Y-82422086D01*
X151253596Y-82287379D01*
X151253598Y-82287372D01*
X151259999Y-82227844D01*
X151260000Y-82227827D01*
X151260000Y-81780000D01*
X148460000Y-81780000D01*
X148460000Y-82227844D01*
X148466401Y-82287372D01*
X148466403Y-82287379D01*
X148516645Y-82422086D01*
X148516649Y-82422093D01*
X148602809Y-82537187D01*
X148602812Y-82537190D01*
X148717906Y-82623350D01*
X148717913Y-82623354D01*
X148798270Y-82653325D01*
X148854204Y-82695196D01*
X148878621Y-82760660D01*
X148863770Y-82828933D01*
X148846168Y-82853489D01*
X148751021Y-82956847D01*
X148751019Y-82956848D01*
X148751016Y-82956853D01*
X148624075Y-83151151D01*
X148530842Y-83363699D01*
X148473866Y-83588691D01*
X148473864Y-83588702D01*
X148454700Y-83819993D01*
X148454700Y-83820006D01*
X143645300Y-83820006D01*
X143645300Y-83819993D01*
X143626135Y-83588702D01*
X143626133Y-83588691D01*
X143569157Y-83363699D01*
X143475924Y-83151151D01*
X143348981Y-82956849D01*
X143253832Y-82853489D01*
X143222910Y-82790835D01*
X143230770Y-82721409D01*
X143274918Y-82667253D01*
X143301730Y-82653325D01*
X143382084Y-82623355D01*
X143382093Y-82623350D01*
X143497187Y-82537190D01*
X143497190Y-82537187D01*
X143583350Y-82422093D01*
X143583354Y-82422086D01*
X143633596Y-82287379D01*
X143633598Y-82287372D01*
X143639999Y-82227844D01*
X143640000Y-82227827D01*
X143640000Y-81780000D01*
X140840000Y-81780000D01*
X140840000Y-82227844D01*
X140846401Y-82287372D01*
X140846403Y-82287379D01*
X140896645Y-82422086D01*
X140896649Y-82422093D01*
X140982809Y-82537187D01*
X140982812Y-82537190D01*
X141097906Y-82623350D01*
X141097913Y-82623354D01*
X141178270Y-82653325D01*
X141234204Y-82695196D01*
X141258621Y-82760660D01*
X141243770Y-82828933D01*
X141226168Y-82853489D01*
X141131021Y-82956847D01*
X141131019Y-82956848D01*
X141131016Y-82956853D01*
X141004075Y-83151151D01*
X140910842Y-83363699D01*
X140853866Y-83588691D01*
X140853864Y-83588702D01*
X140834700Y-83819993D01*
X140834700Y-83820006D01*
X136025300Y-83820006D01*
X136025300Y-83819993D01*
X136006135Y-83588702D01*
X136006133Y-83588691D01*
X135949157Y-83363699D01*
X135855924Y-83151151D01*
X135728981Y-82956849D01*
X135633832Y-82853489D01*
X135602910Y-82790835D01*
X135610770Y-82721409D01*
X135654918Y-82667253D01*
X135681730Y-82653325D01*
X135762084Y-82623355D01*
X135762093Y-82623350D01*
X135877187Y-82537190D01*
X135877190Y-82537187D01*
X135963350Y-82422093D01*
X135963354Y-82422086D01*
X136013596Y-82287379D01*
X136013598Y-82287372D01*
X136019999Y-82227844D01*
X136020000Y-82227827D01*
X136020000Y-81780000D01*
X133220000Y-81780000D01*
X133220000Y-82227844D01*
X133226401Y-82287372D01*
X133226403Y-82287379D01*
X133276645Y-82422086D01*
X133276649Y-82422093D01*
X133362809Y-82537187D01*
X133362812Y-82537190D01*
X133477906Y-82623350D01*
X133477913Y-82623354D01*
X133558270Y-82653325D01*
X133614204Y-82695196D01*
X133638621Y-82760660D01*
X133623770Y-82828933D01*
X133606168Y-82853489D01*
X133511021Y-82956847D01*
X133511019Y-82956848D01*
X133511016Y-82956853D01*
X133384075Y-83151151D01*
X133290842Y-83363699D01*
X133233866Y-83588691D01*
X133233864Y-83588702D01*
X133214700Y-83819993D01*
X133214700Y-83820006D01*
X128746506Y-83820006D01*
X128904439Y-83571142D01*
X129041084Y-83280758D01*
X129140256Y-82975538D01*
X129200392Y-82660294D01*
X129200393Y-82660283D01*
X129220543Y-82340005D01*
X129220543Y-82339994D01*
X129200393Y-82019716D01*
X129200392Y-82019709D01*
X129200392Y-82019706D01*
X129140256Y-81704462D01*
X129041084Y-81399242D01*
X129012851Y-81339244D01*
X134170000Y-81339244D01*
X134200667Y-81453694D01*
X134259910Y-81556306D01*
X134343694Y-81640090D01*
X134446306Y-81699333D01*
X134560756Y-81730000D01*
X134679244Y-81730000D01*
X134793694Y-81699333D01*
X134896306Y-81640090D01*
X134980090Y-81556306D01*
X135039333Y-81453694D01*
X135070000Y-81339244D01*
X141790000Y-81339244D01*
X141820667Y-81453694D01*
X141879910Y-81556306D01*
X141963694Y-81640090D01*
X142066306Y-81699333D01*
X142180756Y-81730000D01*
X142299244Y-81730000D01*
X142413694Y-81699333D01*
X142516306Y-81640090D01*
X142600090Y-81556306D01*
X142659333Y-81453694D01*
X142690000Y-81339244D01*
X149410000Y-81339244D01*
X149440667Y-81453694D01*
X149499910Y-81556306D01*
X149583694Y-81640090D01*
X149686306Y-81699333D01*
X149800756Y-81730000D01*
X149919244Y-81730000D01*
X150033694Y-81699333D01*
X150136306Y-81640090D01*
X150220090Y-81556306D01*
X150279333Y-81453694D01*
X150310000Y-81339244D01*
X157030000Y-81339244D01*
X157060667Y-81453694D01*
X157119910Y-81556306D01*
X157203694Y-81640090D01*
X157306306Y-81699333D01*
X157420756Y-81730000D01*
X157539244Y-81730000D01*
X157653694Y-81699333D01*
X157756306Y-81640090D01*
X157840090Y-81556306D01*
X157899333Y-81453694D01*
X157930000Y-81339244D01*
X164650000Y-81339244D01*
X164680667Y-81453694D01*
X164739910Y-81556306D01*
X164823694Y-81640090D01*
X164926306Y-81699333D01*
X165040756Y-81730000D01*
X165159244Y-81730000D01*
X165273694Y-81699333D01*
X165376306Y-81640090D01*
X165460090Y-81556306D01*
X165519333Y-81453694D01*
X165550000Y-81339244D01*
X172270000Y-81339244D01*
X172300667Y-81453694D01*
X172359910Y-81556306D01*
X172443694Y-81640090D01*
X172546306Y-81699333D01*
X172660756Y-81730000D01*
X172779244Y-81730000D01*
X172893694Y-81699333D01*
X172996306Y-81640090D01*
X173080090Y-81556306D01*
X173139333Y-81453694D01*
X173170000Y-81339244D01*
X179890000Y-81339244D01*
X179920667Y-81453694D01*
X179979910Y-81556306D01*
X180063694Y-81640090D01*
X180166306Y-81699333D01*
X180280756Y-81730000D01*
X180399244Y-81730000D01*
X180513694Y-81699333D01*
X180616306Y-81640090D01*
X180700090Y-81556306D01*
X180759333Y-81453694D01*
X180790000Y-81339244D01*
X187510000Y-81339244D01*
X187540667Y-81453694D01*
X187599910Y-81556306D01*
X187683694Y-81640090D01*
X187786306Y-81699333D01*
X187900756Y-81730000D01*
X188019244Y-81730000D01*
X188133694Y-81699333D01*
X188236306Y-81640090D01*
X188320090Y-81556306D01*
X188379333Y-81453694D01*
X188410000Y-81339244D01*
X188410000Y-81220756D01*
X188379333Y-81106306D01*
X188320090Y-81003694D01*
X188236306Y-80919910D01*
X188133694Y-80860667D01*
X188019244Y-80830000D01*
X187900756Y-80830000D01*
X187786306Y-80860667D01*
X187683694Y-80919910D01*
X187599910Y-81003694D01*
X187540667Y-81106306D01*
X187510000Y-81220756D01*
X187510000Y-81339244D01*
X180790000Y-81339244D01*
X180790000Y-81220756D01*
X180759333Y-81106306D01*
X180700090Y-81003694D01*
X180616306Y-80919910D01*
X180513694Y-80860667D01*
X180399244Y-80830000D01*
X180280756Y-80830000D01*
X180166306Y-80860667D01*
X180063694Y-80919910D01*
X179979910Y-81003694D01*
X179920667Y-81106306D01*
X179890000Y-81220756D01*
X179890000Y-81339244D01*
X173170000Y-81339244D01*
X173170000Y-81220756D01*
X173139333Y-81106306D01*
X173080090Y-81003694D01*
X172996306Y-80919910D01*
X172893694Y-80860667D01*
X172779244Y-80830000D01*
X172660756Y-80830000D01*
X172546306Y-80860667D01*
X172443694Y-80919910D01*
X172359910Y-81003694D01*
X172300667Y-81106306D01*
X172270000Y-81220756D01*
X172270000Y-81339244D01*
X165550000Y-81339244D01*
X165550000Y-81220756D01*
X165519333Y-81106306D01*
X165460090Y-81003694D01*
X165376306Y-80919910D01*
X165273694Y-80860667D01*
X165159244Y-80830000D01*
X165040756Y-80830000D01*
X164926306Y-80860667D01*
X164823694Y-80919910D01*
X164739910Y-81003694D01*
X164680667Y-81106306D01*
X164650000Y-81220756D01*
X164650000Y-81339244D01*
X157930000Y-81339244D01*
X157930000Y-81220756D01*
X157899333Y-81106306D01*
X157840090Y-81003694D01*
X157756306Y-80919910D01*
X157653694Y-80860667D01*
X157539244Y-80830000D01*
X157420756Y-80830000D01*
X157306306Y-80860667D01*
X157203694Y-80919910D01*
X157119910Y-81003694D01*
X157060667Y-81106306D01*
X157030000Y-81220756D01*
X157030000Y-81339244D01*
X150310000Y-81339244D01*
X150310000Y-81220756D01*
X150279333Y-81106306D01*
X150220090Y-81003694D01*
X150136306Y-80919910D01*
X150033694Y-80860667D01*
X149919244Y-80830000D01*
X149800756Y-80830000D01*
X149686306Y-80860667D01*
X149583694Y-80919910D01*
X149499910Y-81003694D01*
X149440667Y-81106306D01*
X149410000Y-81220756D01*
X149410000Y-81339244D01*
X142690000Y-81339244D01*
X142690000Y-81220756D01*
X142659333Y-81106306D01*
X142600090Y-81003694D01*
X142516306Y-80919910D01*
X142413694Y-80860667D01*
X142299244Y-80830000D01*
X142180756Y-80830000D01*
X142066306Y-80860667D01*
X141963694Y-80919910D01*
X141879910Y-81003694D01*
X141820667Y-81106306D01*
X141790000Y-81220756D01*
X141790000Y-81339244D01*
X135070000Y-81339244D01*
X135070000Y-81220756D01*
X135039333Y-81106306D01*
X134980090Y-81003694D01*
X134896306Y-80919910D01*
X134793694Y-80860667D01*
X134679244Y-80830000D01*
X134560756Y-80830000D01*
X134446306Y-80860667D01*
X134343694Y-80919910D01*
X134259910Y-81003694D01*
X134200667Y-81106306D01*
X134170000Y-81220756D01*
X134170000Y-81339244D01*
X129012851Y-81339244D01*
X128968378Y-81244734D01*
X128904441Y-81108861D01*
X128904437Y-81108855D01*
X128898843Y-81100041D01*
X128829010Y-80990000D01*
X128732479Y-80837891D01*
X128732477Y-80837888D01*
X128684588Y-80780000D01*
X133220000Y-80780000D01*
X134120000Y-80780000D01*
X134120000Y-79880000D01*
X135120000Y-79880000D01*
X135120000Y-80780000D01*
X136020000Y-80780000D01*
X140840000Y-80780000D01*
X141740000Y-80780000D01*
X141740000Y-79880000D01*
X142740000Y-79880000D01*
X142740000Y-80780000D01*
X143640000Y-80780000D01*
X148460000Y-80780000D01*
X149360000Y-80780000D01*
X149360000Y-79880000D01*
X150360000Y-79880000D01*
X150360000Y-80780000D01*
X151260000Y-80780000D01*
X156080000Y-80780000D01*
X156980000Y-80780000D01*
X156980000Y-79880000D01*
X157980000Y-79880000D01*
X157980000Y-80780000D01*
X158880000Y-80780000D01*
X163700000Y-80780000D01*
X164600000Y-80780000D01*
X164600000Y-79880000D01*
X165600000Y-79880000D01*
X165600000Y-80780000D01*
X166500000Y-80780000D01*
X171320000Y-80780000D01*
X172220000Y-80780000D01*
X172220000Y-79880000D01*
X173220000Y-79880000D01*
X173220000Y-80780000D01*
X174120000Y-80780000D01*
X178940000Y-80780000D01*
X179840000Y-80780000D01*
X179840000Y-79880000D01*
X180840000Y-79880000D01*
X180840000Y-80780000D01*
X181740000Y-80780000D01*
X186560000Y-80780000D01*
X187460000Y-80780000D01*
X187460000Y-79880000D01*
X188460000Y-79880000D01*
X188460000Y-80780000D01*
X189360000Y-80780000D01*
X189360000Y-80332172D01*
X189359999Y-80332155D01*
X189353598Y-80272627D01*
X189353596Y-80272620D01*
X189303354Y-80137913D01*
X189303350Y-80137906D01*
X189217190Y-80022812D01*
X189217187Y-80022809D01*
X189102093Y-79936649D01*
X189102086Y-79936645D01*
X188967379Y-79886403D01*
X188967372Y-79886401D01*
X188907844Y-79880000D01*
X188460000Y-79880000D01*
X187460000Y-79880000D01*
X187012155Y-79880000D01*
X186952627Y-79886401D01*
X186952620Y-79886403D01*
X186817913Y-79936645D01*
X186817906Y-79936649D01*
X186702812Y-80022809D01*
X186702809Y-80022812D01*
X186616649Y-80137906D01*
X186616645Y-80137913D01*
X186566403Y-80272620D01*
X186566401Y-80272627D01*
X186560000Y-80332155D01*
X186560000Y-80780000D01*
X181740000Y-80780000D01*
X181740000Y-80332172D01*
X181739999Y-80332155D01*
X181733598Y-80272627D01*
X181733596Y-80272620D01*
X181683354Y-80137913D01*
X181683350Y-80137906D01*
X181597190Y-80022812D01*
X181597187Y-80022809D01*
X181482093Y-79936649D01*
X181482086Y-79936645D01*
X181347379Y-79886403D01*
X181347372Y-79886401D01*
X181287844Y-79880000D01*
X180840000Y-79880000D01*
X179840000Y-79880000D01*
X179392155Y-79880000D01*
X179332627Y-79886401D01*
X179332620Y-79886403D01*
X179197913Y-79936645D01*
X179197906Y-79936649D01*
X179082812Y-80022809D01*
X179082809Y-80022812D01*
X178996649Y-80137906D01*
X178996645Y-80137913D01*
X178946403Y-80272620D01*
X178946401Y-80272627D01*
X178940000Y-80332155D01*
X178940000Y-80780000D01*
X174120000Y-80780000D01*
X174120000Y-80332172D01*
X174119999Y-80332155D01*
X174113598Y-80272627D01*
X174113596Y-80272620D01*
X174063354Y-80137913D01*
X174063350Y-80137906D01*
X173977190Y-80022812D01*
X173977187Y-80022809D01*
X173862093Y-79936649D01*
X173862086Y-79936645D01*
X173727379Y-79886403D01*
X173727372Y-79886401D01*
X173667844Y-79880000D01*
X173220000Y-79880000D01*
X172220000Y-79880000D01*
X171772155Y-79880000D01*
X171712627Y-79886401D01*
X171712620Y-79886403D01*
X171577913Y-79936645D01*
X171577906Y-79936649D01*
X171462812Y-80022809D01*
X171462809Y-80022812D01*
X171376649Y-80137906D01*
X171376645Y-80137913D01*
X171326403Y-80272620D01*
X171326401Y-80272627D01*
X171320000Y-80332155D01*
X171320000Y-80780000D01*
X166500000Y-80780000D01*
X166500000Y-80332172D01*
X166499999Y-80332155D01*
X166493598Y-80272627D01*
X166493596Y-80272620D01*
X166443354Y-80137913D01*
X166443350Y-80137906D01*
X166357190Y-80022812D01*
X166357187Y-80022809D01*
X166242093Y-79936649D01*
X166242086Y-79936645D01*
X166107379Y-79886403D01*
X166107372Y-79886401D01*
X166047844Y-79880000D01*
X165600000Y-79880000D01*
X164600000Y-79880000D01*
X164152155Y-79880000D01*
X164092627Y-79886401D01*
X164092620Y-79886403D01*
X163957913Y-79936645D01*
X163957906Y-79936649D01*
X163842812Y-80022809D01*
X163842809Y-80022812D01*
X163756649Y-80137906D01*
X163756645Y-80137913D01*
X163706403Y-80272620D01*
X163706401Y-80272627D01*
X163700000Y-80332155D01*
X163700000Y-80780000D01*
X158880000Y-80780000D01*
X158880000Y-80332172D01*
X158879999Y-80332155D01*
X158873598Y-80272627D01*
X158873596Y-80272620D01*
X158823354Y-80137913D01*
X158823350Y-80137906D01*
X158737190Y-80022812D01*
X158737187Y-80022809D01*
X158622093Y-79936649D01*
X158622086Y-79936645D01*
X158487379Y-79886403D01*
X158487372Y-79886401D01*
X158427844Y-79880000D01*
X157980000Y-79880000D01*
X156980000Y-79880000D01*
X156532155Y-79880000D01*
X156472627Y-79886401D01*
X156472620Y-79886403D01*
X156337913Y-79936645D01*
X156337906Y-79936649D01*
X156222812Y-80022809D01*
X156222809Y-80022812D01*
X156136649Y-80137906D01*
X156136645Y-80137913D01*
X156086403Y-80272620D01*
X156086401Y-80272627D01*
X156080000Y-80332155D01*
X156080000Y-80780000D01*
X151260000Y-80780000D01*
X151260000Y-80332172D01*
X151259999Y-80332155D01*
X151253598Y-80272627D01*
X151253596Y-80272620D01*
X151203354Y-80137913D01*
X151203350Y-80137906D01*
X151117190Y-80022812D01*
X151117187Y-80022809D01*
X151002093Y-79936649D01*
X151002086Y-79936645D01*
X150867379Y-79886403D01*
X150867372Y-79886401D01*
X150807844Y-79880000D01*
X150360000Y-79880000D01*
X149360000Y-79880000D01*
X148912155Y-79880000D01*
X148852627Y-79886401D01*
X148852620Y-79886403D01*
X148717913Y-79936645D01*
X148717906Y-79936649D01*
X148602812Y-80022809D01*
X148602809Y-80022812D01*
X148516649Y-80137906D01*
X148516645Y-80137913D01*
X148466403Y-80272620D01*
X148466401Y-80272627D01*
X148460000Y-80332155D01*
X148460000Y-80780000D01*
X143640000Y-80780000D01*
X143640000Y-80332172D01*
X143639999Y-80332155D01*
X143633598Y-80272627D01*
X143633596Y-80272620D01*
X143583354Y-80137913D01*
X143583350Y-80137906D01*
X143497190Y-80022812D01*
X143497187Y-80022809D01*
X143382093Y-79936649D01*
X143382086Y-79936645D01*
X143247379Y-79886403D01*
X143247372Y-79886401D01*
X143187844Y-79880000D01*
X142740000Y-79880000D01*
X141740000Y-79880000D01*
X141292155Y-79880000D01*
X141232627Y-79886401D01*
X141232620Y-79886403D01*
X141097913Y-79936645D01*
X141097906Y-79936649D01*
X140982812Y-80022809D01*
X140982809Y-80022812D01*
X140896649Y-80137906D01*
X140896645Y-80137913D01*
X140846403Y-80272620D01*
X140846401Y-80272627D01*
X140840000Y-80332155D01*
X140840000Y-80780000D01*
X136020000Y-80780000D01*
X136020000Y-80332172D01*
X136019999Y-80332155D01*
X136013598Y-80272627D01*
X136013596Y-80272620D01*
X135963354Y-80137913D01*
X135963350Y-80137906D01*
X135877190Y-80022812D01*
X135877187Y-80022809D01*
X135762093Y-79936649D01*
X135762086Y-79936645D01*
X135627379Y-79886403D01*
X135627372Y-79886401D01*
X135567844Y-79880000D01*
X135120000Y-79880000D01*
X134120000Y-79880000D01*
X133672155Y-79880000D01*
X133612627Y-79886401D01*
X133612620Y-79886403D01*
X133477913Y-79936645D01*
X133477906Y-79936649D01*
X133362812Y-80022809D01*
X133362809Y-80022812D01*
X133276649Y-80137906D01*
X133276645Y-80137913D01*
X133226403Y-80272620D01*
X133226401Y-80272627D01*
X133220000Y-80332155D01*
X133220000Y-80780000D01*
X128684588Y-80780000D01*
X128527912Y-80590611D01*
X128346975Y-80420700D01*
X128293964Y-80370920D01*
X128293961Y-80370918D01*
X128293955Y-80370913D01*
X128034339Y-80182291D01*
X128034321Y-80182280D01*
X127753096Y-80027675D01*
X127753093Y-80027674D01*
X127454703Y-79909533D01*
X127454706Y-79909533D01*
X127143864Y-79829723D01*
X127143851Y-79829721D01*
X126825475Y-79789500D01*
X126825464Y-79789500D01*
X126504536Y-79789500D01*
X126504524Y-79789500D01*
X126186148Y-79829721D01*
X126186135Y-79829723D01*
X125875294Y-79909533D01*
X125576906Y-80027674D01*
X125576903Y-80027675D01*
X125295678Y-80182280D01*
X125295660Y-80182291D01*
X125036044Y-80370913D01*
X125036034Y-80370921D01*
X124802087Y-80590611D01*
X124597522Y-80837888D01*
X124597520Y-80837891D01*
X124425562Y-81108855D01*
X124425558Y-81108861D01*
X124288918Y-81399235D01*
X124288916Y-81399240D01*
X124189745Y-81704457D01*
X124129607Y-82019709D01*
X124129606Y-82019716D01*
X124109457Y-82339994D01*
X124109457Y-82340005D01*
X117000000Y-82340005D01*
X117000000Y-76235268D01*
X124115000Y-76235268D01*
X124125215Y-76379958D01*
X124125217Y-76379968D01*
X124179313Y-76620165D01*
X124179315Y-76620172D01*
X124271244Y-76848585D01*
X124398620Y-77059289D01*
X124398627Y-77059299D01*
X124558153Y-77246846D01*
X124745700Y-77406372D01*
X124745710Y-77406379D01*
X124956414Y-77533755D01*
X125184827Y-77625684D01*
X125184834Y-77625686D01*
X125425031Y-77679782D01*
X125425041Y-77679784D01*
X125569731Y-77689999D01*
X125569734Y-77690000D01*
X126165000Y-77690000D01*
X126165000Y-76397014D01*
X126348874Y-76456758D01*
X126558753Y-76490000D01*
X126771247Y-76490000D01*
X126981126Y-76456758D01*
X127165000Y-76397014D01*
X127165000Y-77690000D01*
X127760266Y-77690000D01*
X127760268Y-77689999D01*
X127904958Y-77679784D01*
X127904968Y-77679782D01*
X128145165Y-77625686D01*
X128145172Y-77625684D01*
X128373585Y-77533755D01*
X128584289Y-77406379D01*
X128584299Y-77406372D01*
X128771846Y-77246846D01*
X128931372Y-77059299D01*
X128931379Y-77059289D01*
X129058755Y-76848585D01*
X129114531Y-76710000D01*
X133220000Y-76710000D01*
X133220000Y-77157844D01*
X133226401Y-77217372D01*
X133226403Y-77217379D01*
X133276645Y-77352086D01*
X133276649Y-77352093D01*
X133362809Y-77467187D01*
X133362812Y-77467190D01*
X133477906Y-77553350D01*
X133477913Y-77553354D01*
X133612620Y-77603596D01*
X133612627Y-77603598D01*
X133672155Y-77609999D01*
X133672172Y-77610000D01*
X134120000Y-77610000D01*
X134120000Y-76710000D01*
X135120000Y-76710000D01*
X135120000Y-77610000D01*
X135567828Y-77610000D01*
X135567844Y-77609999D01*
X135627372Y-77603598D01*
X135627379Y-77603596D01*
X135762086Y-77553354D01*
X135762093Y-77553350D01*
X135877187Y-77467190D01*
X135877190Y-77467187D01*
X135963350Y-77352093D01*
X135963354Y-77352086D01*
X136013596Y-77217379D01*
X136013598Y-77217372D01*
X136019999Y-77157844D01*
X136020000Y-77157827D01*
X136020000Y-76710000D01*
X140840000Y-76710000D01*
X140840000Y-77157844D01*
X140846401Y-77217372D01*
X140846403Y-77217379D01*
X140896645Y-77352086D01*
X140896649Y-77352093D01*
X140982809Y-77467187D01*
X140982812Y-77467190D01*
X141097906Y-77553350D01*
X141097913Y-77553354D01*
X141232620Y-77603596D01*
X141232627Y-77603598D01*
X141292155Y-77609999D01*
X141292172Y-77610000D01*
X141740000Y-77610000D01*
X141740000Y-76710000D01*
X142740000Y-76710000D01*
X142740000Y-77610000D01*
X143187828Y-77610000D01*
X143187844Y-77609999D01*
X143247372Y-77603598D01*
X143247379Y-77603596D01*
X143382086Y-77553354D01*
X143382093Y-77553350D01*
X143497187Y-77467190D01*
X143497190Y-77467187D01*
X143583350Y-77352093D01*
X143583354Y-77352086D01*
X143633596Y-77217379D01*
X143633598Y-77217372D01*
X143639999Y-77157844D01*
X143640000Y-77157827D01*
X143640000Y-76710000D01*
X148460000Y-76710000D01*
X148460000Y-77157844D01*
X148466401Y-77217372D01*
X148466403Y-77217379D01*
X148516645Y-77352086D01*
X148516649Y-77352093D01*
X148602809Y-77467187D01*
X148602812Y-77467190D01*
X148717906Y-77553350D01*
X148717913Y-77553354D01*
X148852620Y-77603596D01*
X148852627Y-77603598D01*
X148912155Y-77609999D01*
X148912172Y-77610000D01*
X149360000Y-77610000D01*
X149360000Y-76710000D01*
X150360000Y-76710000D01*
X150360000Y-77610000D01*
X150807828Y-77610000D01*
X150807844Y-77609999D01*
X150867372Y-77603598D01*
X150867379Y-77603596D01*
X151002086Y-77553354D01*
X151002093Y-77553350D01*
X151117187Y-77467190D01*
X151117190Y-77467187D01*
X151203350Y-77352093D01*
X151203354Y-77352086D01*
X151253596Y-77217379D01*
X151253598Y-77217372D01*
X151259999Y-77157844D01*
X151260000Y-77157827D01*
X151260000Y-76710000D01*
X156080000Y-76710000D01*
X156080000Y-77157844D01*
X156086401Y-77217372D01*
X156086403Y-77217379D01*
X156136645Y-77352086D01*
X156136649Y-77352093D01*
X156222809Y-77467187D01*
X156222812Y-77467190D01*
X156337906Y-77553350D01*
X156337913Y-77553354D01*
X156472620Y-77603596D01*
X156472627Y-77603598D01*
X156532155Y-77609999D01*
X156532172Y-77610000D01*
X156980000Y-77610000D01*
X156980000Y-76710000D01*
X157980000Y-76710000D01*
X157980000Y-77610000D01*
X158427828Y-77610000D01*
X158427844Y-77609999D01*
X158487372Y-77603598D01*
X158487379Y-77603596D01*
X158622086Y-77553354D01*
X158622093Y-77553350D01*
X158737187Y-77467190D01*
X158737190Y-77467187D01*
X158823350Y-77352093D01*
X158823354Y-77352086D01*
X158873596Y-77217379D01*
X158873598Y-77217372D01*
X158879999Y-77157844D01*
X158880000Y-77157827D01*
X158880000Y-76710000D01*
X163700000Y-76710000D01*
X163700000Y-77157844D01*
X163706401Y-77217372D01*
X163706403Y-77217379D01*
X163756645Y-77352086D01*
X163756649Y-77352093D01*
X163842809Y-77467187D01*
X163842812Y-77467190D01*
X163957906Y-77553350D01*
X163957913Y-77553354D01*
X164092620Y-77603596D01*
X164092627Y-77603598D01*
X164152155Y-77609999D01*
X164152172Y-77610000D01*
X164600000Y-77610000D01*
X164600000Y-76710000D01*
X165600000Y-76710000D01*
X165600000Y-77610000D01*
X166047828Y-77610000D01*
X166047844Y-77609999D01*
X166107372Y-77603598D01*
X166107379Y-77603596D01*
X166242086Y-77553354D01*
X166242093Y-77553350D01*
X166357187Y-77467190D01*
X166357190Y-77467187D01*
X166443350Y-77352093D01*
X166443354Y-77352086D01*
X166493596Y-77217379D01*
X166493598Y-77217372D01*
X166499999Y-77157844D01*
X166500000Y-77157827D01*
X166500000Y-76710000D01*
X171320000Y-76710000D01*
X171320000Y-77157844D01*
X171326401Y-77217372D01*
X171326403Y-77217379D01*
X171376645Y-77352086D01*
X171376649Y-77352093D01*
X171462809Y-77467187D01*
X171462812Y-77467190D01*
X171577906Y-77553350D01*
X171577913Y-77553354D01*
X171712620Y-77603596D01*
X171712627Y-77603598D01*
X171772155Y-77609999D01*
X171772172Y-77610000D01*
X172220000Y-77610000D01*
X172220000Y-76710000D01*
X173220000Y-76710000D01*
X173220000Y-77610000D01*
X173667828Y-77610000D01*
X173667844Y-77609999D01*
X173727372Y-77603598D01*
X173727379Y-77603596D01*
X173862086Y-77553354D01*
X173862093Y-77553350D01*
X173977187Y-77467190D01*
X173977190Y-77467187D01*
X174063350Y-77352093D01*
X174063354Y-77352086D01*
X174113596Y-77217379D01*
X174113598Y-77217372D01*
X174119999Y-77157844D01*
X174120000Y-77157827D01*
X174120000Y-76710000D01*
X178940000Y-76710000D01*
X178940000Y-77157844D01*
X178946401Y-77217372D01*
X178946403Y-77217379D01*
X178996645Y-77352086D01*
X178996649Y-77352093D01*
X179082809Y-77467187D01*
X179082812Y-77467190D01*
X179197906Y-77553350D01*
X179197913Y-77553354D01*
X179332620Y-77603596D01*
X179332627Y-77603598D01*
X179392155Y-77609999D01*
X179392172Y-77610000D01*
X179840000Y-77610000D01*
X179840000Y-76710000D01*
X180840000Y-76710000D01*
X180840000Y-77610000D01*
X181287828Y-77610000D01*
X181287844Y-77609999D01*
X181347372Y-77603598D01*
X181347379Y-77603596D01*
X181482086Y-77553354D01*
X181482093Y-77553350D01*
X181597187Y-77467190D01*
X181597190Y-77467187D01*
X181683350Y-77352093D01*
X181683354Y-77352086D01*
X181733596Y-77217379D01*
X181733598Y-77217372D01*
X181739999Y-77157844D01*
X181740000Y-77157827D01*
X181740000Y-76710000D01*
X186560000Y-76710000D01*
X186560000Y-77157844D01*
X186566401Y-77217372D01*
X186566403Y-77217379D01*
X186616645Y-77352086D01*
X186616649Y-77352093D01*
X186702809Y-77467187D01*
X186702812Y-77467190D01*
X186817906Y-77553350D01*
X186817913Y-77553354D01*
X186952620Y-77603596D01*
X186952627Y-77603598D01*
X187012155Y-77609999D01*
X187012172Y-77610000D01*
X187460000Y-77610000D01*
X187460000Y-76710000D01*
X188460000Y-76710000D01*
X188460000Y-77610000D01*
X188907828Y-77610000D01*
X188907844Y-77609999D01*
X188967372Y-77603598D01*
X188967379Y-77603596D01*
X189102086Y-77553354D01*
X189102093Y-77553350D01*
X189217187Y-77467190D01*
X189217190Y-77467187D01*
X189303350Y-77352093D01*
X189303354Y-77352086D01*
X189353596Y-77217379D01*
X189353598Y-77217372D01*
X189359999Y-77157844D01*
X189360000Y-77157827D01*
X189360000Y-76710000D01*
X188460000Y-76710000D01*
X187460000Y-76710000D01*
X186560000Y-76710000D01*
X181740000Y-76710000D01*
X180840000Y-76710000D01*
X179840000Y-76710000D01*
X178940000Y-76710000D01*
X174120000Y-76710000D01*
X173220000Y-76710000D01*
X172220000Y-76710000D01*
X171320000Y-76710000D01*
X166500000Y-76710000D01*
X165600000Y-76710000D01*
X164600000Y-76710000D01*
X163700000Y-76710000D01*
X158880000Y-76710000D01*
X157980000Y-76710000D01*
X156980000Y-76710000D01*
X156080000Y-76710000D01*
X151260000Y-76710000D01*
X150360000Y-76710000D01*
X149360000Y-76710000D01*
X148460000Y-76710000D01*
X143640000Y-76710000D01*
X142740000Y-76710000D01*
X141740000Y-76710000D01*
X140840000Y-76710000D01*
X136020000Y-76710000D01*
X135120000Y-76710000D01*
X134120000Y-76710000D01*
X133220000Y-76710000D01*
X129114531Y-76710000D01*
X129150684Y-76620172D01*
X129150686Y-76620165D01*
X129204782Y-76379968D01*
X129204784Y-76379958D01*
X129212600Y-76269244D01*
X134170000Y-76269244D01*
X134200667Y-76383694D01*
X134259910Y-76486306D01*
X134343694Y-76570090D01*
X134446306Y-76629333D01*
X134560756Y-76660000D01*
X134679244Y-76660000D01*
X134793694Y-76629333D01*
X134896306Y-76570090D01*
X134980090Y-76486306D01*
X135039333Y-76383694D01*
X135070000Y-76269244D01*
X141790000Y-76269244D01*
X141820667Y-76383694D01*
X141879910Y-76486306D01*
X141963694Y-76570090D01*
X142066306Y-76629333D01*
X142180756Y-76660000D01*
X142299244Y-76660000D01*
X142413694Y-76629333D01*
X142516306Y-76570090D01*
X142600090Y-76486306D01*
X142659333Y-76383694D01*
X142690000Y-76269244D01*
X149410000Y-76269244D01*
X149440667Y-76383694D01*
X149499910Y-76486306D01*
X149583694Y-76570090D01*
X149686306Y-76629333D01*
X149800756Y-76660000D01*
X149919244Y-76660000D01*
X150033694Y-76629333D01*
X150136306Y-76570090D01*
X150220090Y-76486306D01*
X150279333Y-76383694D01*
X150310000Y-76269244D01*
X157030000Y-76269244D01*
X157060667Y-76383694D01*
X157119910Y-76486306D01*
X157203694Y-76570090D01*
X157306306Y-76629333D01*
X157420756Y-76660000D01*
X157539244Y-76660000D01*
X157653694Y-76629333D01*
X157756306Y-76570090D01*
X157840090Y-76486306D01*
X157899333Y-76383694D01*
X157930000Y-76269244D01*
X164650000Y-76269244D01*
X164680667Y-76383694D01*
X164739910Y-76486306D01*
X164823694Y-76570090D01*
X164926306Y-76629333D01*
X165040756Y-76660000D01*
X165159244Y-76660000D01*
X165273694Y-76629333D01*
X165376306Y-76570090D01*
X165460090Y-76486306D01*
X165519333Y-76383694D01*
X165550000Y-76269244D01*
X172270000Y-76269244D01*
X172300667Y-76383694D01*
X172359910Y-76486306D01*
X172443694Y-76570090D01*
X172546306Y-76629333D01*
X172660756Y-76660000D01*
X172779244Y-76660000D01*
X172893694Y-76629333D01*
X172996306Y-76570090D01*
X173080090Y-76486306D01*
X173139333Y-76383694D01*
X173170000Y-76269244D01*
X179890000Y-76269244D01*
X179920667Y-76383694D01*
X179979910Y-76486306D01*
X180063694Y-76570090D01*
X180166306Y-76629333D01*
X180280756Y-76660000D01*
X180399244Y-76660000D01*
X180513694Y-76629333D01*
X180616306Y-76570090D01*
X180700090Y-76486306D01*
X180759333Y-76383694D01*
X180790000Y-76269244D01*
X187510000Y-76269244D01*
X187540667Y-76383694D01*
X187599910Y-76486306D01*
X187683694Y-76570090D01*
X187786306Y-76629333D01*
X187900756Y-76660000D01*
X188019244Y-76660000D01*
X188133694Y-76629333D01*
X188236306Y-76570090D01*
X188320090Y-76486306D01*
X188379333Y-76383694D01*
X188410000Y-76269244D01*
X188410000Y-76150756D01*
X188379333Y-76036306D01*
X188320090Y-75933694D01*
X188236306Y-75849910D01*
X188133694Y-75790667D01*
X188019244Y-75760000D01*
X187900756Y-75760000D01*
X187786306Y-75790667D01*
X187683694Y-75849910D01*
X187599910Y-75933694D01*
X187540667Y-76036306D01*
X187510000Y-76150756D01*
X187510000Y-76269244D01*
X180790000Y-76269244D01*
X180790000Y-76150756D01*
X180759333Y-76036306D01*
X180700090Y-75933694D01*
X180616306Y-75849910D01*
X180513694Y-75790667D01*
X180399244Y-75760000D01*
X180280756Y-75760000D01*
X180166306Y-75790667D01*
X180063694Y-75849910D01*
X179979910Y-75933694D01*
X179920667Y-76036306D01*
X179890000Y-76150756D01*
X179890000Y-76269244D01*
X173170000Y-76269244D01*
X173170000Y-76150756D01*
X173139333Y-76036306D01*
X173080090Y-75933694D01*
X172996306Y-75849910D01*
X172893694Y-75790667D01*
X172779244Y-75760000D01*
X172660756Y-75760000D01*
X172546306Y-75790667D01*
X172443694Y-75849910D01*
X172359910Y-75933694D01*
X172300667Y-76036306D01*
X172270000Y-76150756D01*
X172270000Y-76269244D01*
X165550000Y-76269244D01*
X165550000Y-76150756D01*
X165519333Y-76036306D01*
X165460090Y-75933694D01*
X165376306Y-75849910D01*
X165273694Y-75790667D01*
X165159244Y-75760000D01*
X165040756Y-75760000D01*
X164926306Y-75790667D01*
X164823694Y-75849910D01*
X164739910Y-75933694D01*
X164680667Y-76036306D01*
X164650000Y-76150756D01*
X164650000Y-76269244D01*
X157930000Y-76269244D01*
X157930000Y-76150756D01*
X157899333Y-76036306D01*
X157840090Y-75933694D01*
X157756306Y-75849910D01*
X157653694Y-75790667D01*
X157539244Y-75760000D01*
X157420756Y-75760000D01*
X157306306Y-75790667D01*
X157203694Y-75849910D01*
X157119910Y-75933694D01*
X157060667Y-76036306D01*
X157030000Y-76150756D01*
X157030000Y-76269244D01*
X150310000Y-76269244D01*
X150310000Y-76150756D01*
X150279333Y-76036306D01*
X150220090Y-75933694D01*
X150136306Y-75849910D01*
X150033694Y-75790667D01*
X149919244Y-75760000D01*
X149800756Y-75760000D01*
X149686306Y-75790667D01*
X149583694Y-75849910D01*
X149499910Y-75933694D01*
X149440667Y-76036306D01*
X149410000Y-76150756D01*
X149410000Y-76269244D01*
X142690000Y-76269244D01*
X142690000Y-76150756D01*
X142659333Y-76036306D01*
X142600090Y-75933694D01*
X142516306Y-75849910D01*
X142413694Y-75790667D01*
X142299244Y-75760000D01*
X142180756Y-75760000D01*
X142066306Y-75790667D01*
X141963694Y-75849910D01*
X141879910Y-75933694D01*
X141820667Y-76036306D01*
X141790000Y-76150756D01*
X141790000Y-76269244D01*
X135070000Y-76269244D01*
X135070000Y-76150756D01*
X135039333Y-76036306D01*
X134980090Y-75933694D01*
X134896306Y-75849910D01*
X134793694Y-75790667D01*
X134679244Y-75760000D01*
X134560756Y-75760000D01*
X134446306Y-75790667D01*
X134343694Y-75849910D01*
X134259910Y-75933694D01*
X134200667Y-76036306D01*
X134170000Y-76150756D01*
X134170000Y-76269244D01*
X129212600Y-76269244D01*
X129214999Y-76235268D01*
X129215000Y-76235266D01*
X129215000Y-75640000D01*
X127922014Y-75640000D01*
X127981758Y-75456126D01*
X128015000Y-75246247D01*
X128015000Y-75033753D01*
X127981758Y-74823874D01*
X127922014Y-74640000D01*
X129215000Y-74640000D01*
X129215000Y-74044734D01*
X129214999Y-74044731D01*
X129204784Y-73900041D01*
X129204782Y-73900031D01*
X129150686Y-73659834D01*
X129150684Y-73659827D01*
X129058755Y-73431414D01*
X128931379Y-73220710D01*
X128931372Y-73220700D01*
X128771846Y-73033153D01*
X128584299Y-72873627D01*
X128584289Y-72873620D01*
X128373585Y-72746244D01*
X128145172Y-72654315D01*
X128145165Y-72654313D01*
X127904968Y-72600217D01*
X127904958Y-72600215D01*
X127760268Y-72590000D01*
X127165000Y-72590000D01*
X127165000Y-73882985D01*
X126981126Y-73823242D01*
X126771247Y-73790000D01*
X126558753Y-73790000D01*
X126348874Y-73823242D01*
X126165000Y-73882985D01*
X126165000Y-72590000D01*
X125569731Y-72590000D01*
X125425041Y-72600215D01*
X125425031Y-72600217D01*
X125184834Y-72654313D01*
X125184827Y-72654315D01*
X124956414Y-72746244D01*
X124745710Y-72873620D01*
X124745700Y-72873627D01*
X124558153Y-73033153D01*
X124398627Y-73220700D01*
X124398620Y-73220710D01*
X124271244Y-73431414D01*
X124179315Y-73659827D01*
X124179313Y-73659834D01*
X124125217Y-73900031D01*
X124125215Y-73900041D01*
X124115000Y-74044731D01*
X124115000Y-74640000D01*
X125407986Y-74640000D01*
X125348242Y-74823874D01*
X125315000Y-75033753D01*
X125315000Y-75246247D01*
X125348242Y-75456126D01*
X125407986Y-75640000D01*
X124115000Y-75640000D01*
X124115000Y-76235268D01*
X117000000Y-76235268D01*
X117000000Y-72487870D01*
X119164500Y-72487870D01*
X119164501Y-72487876D01*
X119170908Y-72547483D01*
X119221202Y-72682328D01*
X119221206Y-72682335D01*
X119307452Y-72797544D01*
X119307455Y-72797547D01*
X119422664Y-72883793D01*
X119422671Y-72883797D01*
X119557517Y-72934091D01*
X119557516Y-72934091D01*
X119564444Y-72934835D01*
X119617127Y-72940500D01*
X121712872Y-72940499D01*
X121772483Y-72934091D01*
X121907331Y-72883796D01*
X122022546Y-72797546D01*
X122108796Y-72682331D01*
X122159091Y-72547483D01*
X122165500Y-72487873D01*
X122165499Y-71492128D01*
X122159091Y-71432517D01*
X122108796Y-71297669D01*
X122108795Y-71297668D01*
X122108793Y-71297664D01*
X122022547Y-71182455D01*
X122022544Y-71182452D01*
X121907335Y-71096206D01*
X121907328Y-71096202D01*
X121772482Y-71045908D01*
X121772483Y-71045908D01*
X121712883Y-71039501D01*
X121712881Y-71039500D01*
X121712873Y-71039500D01*
X121712864Y-71039500D01*
X119617129Y-71039500D01*
X119617123Y-71039501D01*
X119557516Y-71045908D01*
X119422671Y-71096202D01*
X119422664Y-71096206D01*
X119307455Y-71182452D01*
X119307452Y-71182455D01*
X119221206Y-71297664D01*
X119221202Y-71297671D01*
X119170908Y-71432517D01*
X119164501Y-71492116D01*
X119164501Y-71492123D01*
X119164500Y-71492135D01*
X119164500Y-72487870D01*
X117000000Y-72487870D01*
X117000000Y-65124000D01*
X117019685Y-65056961D01*
X117072489Y-65011206D01*
X117124000Y-65000000D01*
X123362576Y-65000000D01*
X123429615Y-65019685D01*
G37*
%TD.AperFunction*%
%TD*%
M02*
